<svg xmlns="http://www.w3.org/2000/svg" width="44" height="48" viewBox="0 0 44 48">
    <defs>
        <linearGradient id="5mqgq7hyfa" x1="50%" x2="50%" y1="100%" y2="0%">
            <stop offset="0%" stop-color="#FFECB6"/>
            <stop offset="100%" stop-color="#FFF6DB"/>
        </linearGradient>
        <linearGradient id="l26czw5l4b" x1="50%" x2="50%" y1="100%" y2="0%">
            <stop offset="0%" stop-color="#FF7D2A"/>
            <stop offset="100%" stop-color="#FFE086"/>
        </linearGradient>
    </defs>
    <g fill="none" fill-rule="evenodd">
        <g>
            <g>
                <g>
                    <path d="M0 0H48V48H0z" transform="translate(-486 -344) translate(420 224) translate(64 120)"/>
                    <g fill-rule="nonzero">
                        <path fill="url(#5mqgq7hyfa)" d="M19.965 24.243c.15-.762-.355-1.5-1.13-1.648C11.952 21.277 3.962 15.261 2.96 8.428h7.209c.788 0 1.428-.629 1.428-1.404 0-.776-.64-1.405-1.428-1.405H1.428C.639 5.619 0 6.248 0 7.024c0 8.815 9.596 16.664 18.29 18.329.774.148 1.524-.35 1.675-1.11zM41.41 5.619h-8.741c-.789 0-1.428.629-1.428 1.405 0 .775.639 1.404 1.428 1.404h7.209c-1.003 6.84-9 12.85-15.876 14.167-.774.148-1.28.886-1.129 1.648.151.763.902 1.258 1.674 1.11 8.682-1.663 18.29-9.506 18.29-18.33 0-.775-.639-1.404-1.427-1.404zM7.14 2.809h1.443l2.079 1.218h21.514l2.079-1.218h1.443c.788 0 1.428-.628 1.428-1.404 0-.776-.64-1.405-1.428-1.405H7.14C6.35 0 5.712.629 5.712 1.405S6.35 2.809 7.14 2.809zM32.842 36.71c.789 0 1.428-.629 1.428-1.404 0-.776-.64-1.405-1.428-1.405h-4.284L26.75 32.59H16.278L14.28 33.9H9.995c-.788 0-1.428.63-1.428 1.406 0 .775.64 1.404 1.428 1.404h1.428v8.429H9.995c-.788 0-1.428.629-1.428 1.404 0 .776.64 1.405 1.428 1.405h22.847c.789 0 1.428-.629 1.428-1.405 0-.775-.64-1.404-1.428-1.404h-1.428V36.71h1.428z" transform="translate(-486 -344) translate(420 224) translate(64 120) translate(2.571)"/>
                        <path fill="url(#l26czw5l4b)" d="M29.75 20.84c2.83-4.21 4.343-10.27 4.505-18.03H8.583c.161 7.76 1.674 13.82 4.505 18.03 1.527 2.268 3.078 3.436 4.047 4v3.442h-1.428c-.789 0-1.428.629-1.428 1.405V33.9h14.28v-4.214c0-.776-.64-1.405-1.429-1.405h-1.428V24.84c.97-.564 2.52-1.732 4.047-4zm-5.475 18.68h-5.712c-.789 0-1.428.629-1.428 1.405 0 .775.64 1.404 1.428 1.404h5.712c.788 0 1.427-.629 1.427-1.404 0-.776-.639-1.405-1.427-1.405z" transform="translate(-486 -344) translate(420 224) translate(64 120) translate(2.571)"/>
                    </g>
                </g>
            </g>
        </g>
    </g>
</svg>
