<svg xmlns="http://www.w3.org/2000/svg" width="48" height="46" viewBox="0 0 48 46">
    <defs>
        <linearGradient id="ifswitl1ga" x1="50%" x2="50%" y1="100%" y2="0%">
            <stop offset="0%" stop-color="#FFD3C4"/>
            <stop offset="100%" stop-color="#FFE1D7"/>
        </linearGradient>
        <linearGradient id="yaz0kyzvnb" x1="50%" x2="50%" y1="100%" y2="0%">
            <stop offset="0%" stop-color="#FF784A"/>
            <stop offset="100%" stop-color="#FFC4B0"/>
        </linearGradient>
    </defs>
    <g fill="none" fill-rule="evenodd">
        <g>
            <g>
                <g>
                    <path d="M0 0H48V48H0z" transform="translate(-556 -345) translate(420 224) translate(136 120)"/>
                    <g fill-rule="nonzero">
                        <path fill="url(#ifswitl1ga)" d="M19.682 23.787L28.078 23.787 28.078 34.98 19.682 34.98z" transform="translate(-556 -345) translate(420 224) translate(136 120) translate(0 1.714)"/>
                        <path fill="url(#yaz0kyzvnb)" d="M46.36 0H35.168c-2.307 0-4.19 1.894-4.198 4.222-.008 2.575-1.446 4.932-3.75 6.15-2.493 1.319-5.45 1.043-8.11-.756-2.031-1.373-2.267-3.907-2.227-5.295.033-1.115-.388-2.182-1.185-3.001C14.882.48 13.751 0 12.593 0H1.399C.626 0 0 .626 0 1.4c0 2.283 1.1 4.315 2.798 5.593v.003c0 2.284 1.1 4.316 2.799 5.594v.003c0 3.858 3.138 6.996 6.996 6.996h2.892c.771 0 1.399.628 1.399 1.4 0 2.314 1.883 4.197 4.198 4.197h5.596c2.315 0 4.198-1.883 4.198-4.198 0-.745.698-1.399 1.493-1.399h2.798c3.858 0 6.996-3.138 6.996-6.996v-.003c1.699-1.278 2.799-3.31 2.799-5.594v-.003c1.698-1.278 2.798-3.31 2.798-5.594C47.76.626 47.134 0 46.36 0zM33.528 37.153c-.237-.474-.722-.773-1.252-.773h-1.399v-1.4c0-.772-.626-1.399-1.4-1.399H18.284c-.773 0-1.4.627-1.4 1.4v1.399h-1.398c-.53 0-1.015.3-1.252.773l-2.798 5.597c-.217.434-.194.949.061 1.361.255.413.705.664 1.19.664h22.388c.485 0 .935-.251 1.19-.664.255-.412.278-.927.061-1.36l-2.798-5.598z" transform="translate(-556 -345) translate(420 224) translate(136 120) translate(0 1.714)"/>
                    </g>
                </g>
            </g>
        </g>
    </g>
</svg>
