<svg xmlns="http://www.w3.org/2000/svg" width="26" height="48" viewBox="0 0 26 48">
    <defs>
        <linearGradient id="6a3uypn66a" x1="50%" x2="50%" y1="100%" y2="0%">
            <stop offset="0%" stop-color="#FF7D2A"/>
            <stop offset="100%" stop-color="#FFE086"/>
        </linearGradient>
        <linearGradient id="r5yhrym3jb" x1="50%" x2="50%" y1="100%" y2="0%">
            <stop offset="0%" stop-color="#FFECB6"/>
            <stop offset="100%" stop-color="#FFF6DB"/>
        </linearGradient>
    </defs>
    <g fill="none" fill-rule="evenodd">
        <g>
            <g>
                <g>
                    <path d="M0 0H48V48H0z" transform="translate(-639 -344) translate(420 224) translate(208 120)"/>
                    <g fill-rule="nonzero">
                        <path fill="url(#6a3uypn66a)" d="M22.339 40.317c-.238-.476-.725-.777-1.257-.777h-1.405v-1.405c0-.776-.63-1.405-1.406-1.405h-1.22l-1.685-1.219H10.12L8.248 36.73h-1.22c-.777 0-1.406.629-1.406 1.405v1.405H4.216c-.532 0-1.019.301-1.257.777L.15 45.94c-.218.436-.195.953.06 1.368.257.414.71.666 1.196.666h22.488c.487 0 .94-.252 1.195-.666.257-.415.28-.932.062-1.368l-2.811-5.622zm-19.34-22.14l-.53 1.972c1.105 1.495 2.53 2.738 4.174 3.628l2.165 2.552h7.495l2.352-2.552c1.644-.89 3.07-2.133 4.174-3.628l-.248-1.503 1.657-.93c.681-1.552 1.06-3.266 1.06-5.067 0-1.801-.379-3.515-1.06-5.067l-1.563-.555.154-1.878C20.786 2.384 17.644.477 14.055.08c-.462-.052-.93 1.326-1.406 1.326-.475 0-.944-1.378-1.405-1.326-3.59.398-6.731 2.305-8.774 5.07l.34 1.878-1.75.555C.38 9.134 0 10.848 0 12.649c0 1.801.38 3.515 1.06 5.068l1.938.46z" transform="translate(-639 -344) translate(420 224) translate(208 120) translate(11.143)"/>
                        <path fill="url(#r5yhrym3jb)" d="M18.923 10.65l5.315-3.069c-.38-.865-.854-1.68-1.41-2.432l-5.31 3.066-3.463-2V.08C13.593.027 13.125 0 12.649 0c-.475 0-.944.027-1.405.079v6.137l-3.464 2-5.31-3.067c-.555.752-1.03 1.567-1.41 2.432l5.315 3.069v3.999l-5.314 3.068c.38.865.854 1.68 1.409 2.432l5.31-3.066 3.464 2v6.137c-1.65-.183-3.204-.686-4.601-1.443L8.248 36.73h8.802l1.605-12.953c-1.397.757-2.95 1.26-4.6 1.443v-6.138l3.463-1.999 5.31 3.066c.556-.752 1.03-1.567 1.41-2.432l-5.315-3.068v-4z" transform="translate(-639 -344) translate(420 224) translate(208 120) translate(11.143)"/>
                    </g>
                </g>
            </g>
        </g>
    </g>
</svg>
