<svg xmlns="http://www.w3.org/2000/svg" width="35" height="48" viewBox="0 0 35 48">
    <defs>
        <linearGradient id="2b77pmesna" x1="50%" x2="50%" y1="0%" y2="100%">
            <stop offset="0%" stop-color="#AFCBE5"/>
            <stop offset="100%" stop-color="#4789C3"/>
        </linearGradient>
        <linearGradient id="hl594rj50b" x1="50%" x2="50%" y1="100%" y2="0%">
            <stop offset="0%" stop-color="#BCD4E9"/>
            <stop offset="100%" stop-color="#E4EEF6"/>
        </linearGradient>
    </defs>
    <g fill="none" fill-rule="evenodd">
        <g>
            <g>
                <g>
                    <path d="M0 0H48V48H0z" transform="translate(-778 -344) translate(420 224) translate(352 120)"/>
                    <g fill-rule="nonzero">
                        <path fill="url(#2b77pmesna)" d="M26.555 40.317c-.238-.476-.724-.777-1.257-.777h-1.405v-1.405c0-.776-.63-1.405-1.406-1.405h-1.405l-1.78-1.219h-4.404l-2.249 1.219h-1.405c-.776 0-1.406.629-1.406 1.405v1.405H8.433c-.533 0-1.02.301-1.257.777L4.365 45.94c-.218.436-.195.953.061 1.368.256.414.709.666 1.196.666h22.487c.487 0 .94-.252 1.196-.666.256-.415.28-.932.061-1.368l-2.81-5.622zM33.32 6.034L27.698.412C27.434.148 27.077 0 26.704 0h-6.159l-1.993.656h-3.28L13.187 0H7.027c-.372 0-.73.148-.993.412L.412 6.034c-.275.275-.41.634-.41.993 0 .38.151.76.455 1.037l3.385 2.055 8.894 7.777 3.18 4.317c.27.245.61.368.95.368.34 0 .68-.123.948-.368l1.675-2.911L30.545 8.669l2.73-.605c.303-.278.455-.657.455-1.037 0-.359-.136-.718-.41-.993z" transform="translate(-778 -344) translate(420 224) translate(352 120) translate(6.857)"/>
                        <path fill="url(#hl594rj50b)" d="M22.487 22.581H11.244c-.776 0-1.406.63-1.406 1.406v2.81c0 .777.63 1.406 1.406 1.406h1.405v8.527h8.433v-8.527h1.405c.777 0 1.406-.63 1.406-1.405v-2.811c0-.777-.63-1.406-1.406-1.406zM13.186 0L9.672 7.027H24.06L20.545 0h-7.359zm10.873 7.027l-6.245 15.186 15.46-14.149c.304-.278.456-.657.456-1.037h-9.671zM.457 8.064l15.46 14.149L9.672 7.027H.002c0 .38.151.76.455 1.037z" transform="translate(-778 -344) translate(420 224) translate(352 120) translate(6.857)"/>
                    </g>
                </g>
            </g>
        </g>
    </g>
</svg>
