<svg width="49" height="48" viewBox="0 0 49 48" fill="none" xmlns="http://www.w3.org/2000/svg">
<circle cx="24.5" cy="24" r="24" fill="#F7F7F7"/>
<path d="M32 30.0631V30C31.9314 28.078 31.1033 26.2616 29.6973 24.9493C28.2913 23.6371 26.4222 22.936 24.5 23C22.5778 22.936 20.7087 23.6371 19.3027 24.9493C17.8967 26.2616 17.0686 28.078 17 30V30.0631" stroke="#2A313B" stroke-width="1.5" stroke-linecap="round" stroke-linejoin="round"/>
<path d="M24.5 23V20" stroke="#2A313B" stroke-width="1.5" stroke-linecap="round" stroke-linejoin="round"/>
<path d="M26.5 20H22.5" stroke="#2A313B" stroke-width="1.5" stroke-linecap="round" stroke-linejoin="round"/>
<path d="M17.5 30H31.5C32.0304 30 32.5391 30.2107 32.9142 30.5858C33.2893 30.9609 33.5 31.4696 33.5 32C33.5 32.2652 33.3946 32.5196 33.2071 32.7071C33.0196 32.8946 32.7652 33 32.5 33H16.5C16.2348 33 15.9804 32.8946 15.7929 32.7071C15.6054 32.5196 15.5 32.2652 15.5 32C15.5 31.4696 15.7107 30.9609 16.0858 30.5858C16.4609 30.2107 16.9696 30 17.5 30V30Z" stroke="#2A313B" stroke-width="1.5" stroke-linecap="round" stroke-linejoin="round"/>
<path d="M34.5 22H33.5" stroke="#2A313B" stroke-width="1.5" stroke-linecap="round" stroke-linejoin="round"/>
<path d="M15.5 22H14.5" stroke="#2A313B" stroke-width="1.5" stroke-linecap="round" stroke-linejoin="round"/>
<path d="M24.5 14V15" stroke="#2A313B" stroke-width="1.5" stroke-linecap="round" stroke-linejoin="round"/>
<path d="M17.793 16.293L18.5 17" stroke="#2A313B" stroke-width="1.5" stroke-linecap="round" stroke-linejoin="round"/>
<path d="M31.207 16.293L30.5 17" stroke="#2A313B" stroke-width="1.5" stroke-linecap="round" stroke-linejoin="round"/>
</svg>
