<svg width="49" height="48" viewBox="0 0 49 48" fill="none" xmlns="http://www.w3.org/2000/svg">
<circle cx="24.5" cy="24" r="24" fill="#F7F7F7"/>
<path d="M24.5 32.5H19.5C16.5 32.5 14.5 31 14.5 27.5V20.5C14.5 17 16.5 15.5 19.5 15.5H29.5C32.5 15.5 34.5 17 34.5 20.5V23.5" stroke="#2A313B" stroke-width="1.5" stroke-miterlimit="10" stroke-linecap="round" stroke-linejoin="round"/>
<path d="M29.5 21L26.37 23.5C25.34 24.32 23.65 24.32 22.62 23.5L19.5 21" stroke="#2A313B" stroke-width="1.5" stroke-miterlimit="10" stroke-linecap="round" stroke-linejoin="round"/>
<path d="M31.71 26.77L28.1701 30.31C28.0301 30.45 27.9 30.71 27.87 30.9L27.68 32.25C27.61 32.74 27.95 33.08 28.44 33.01L29.79 32.82C29.98 32.79 30.25 32.66 30.38 32.52L33.9201 28.98C34.5301 28.37 34.8201 27.66 33.9201 26.76C33.0301 25.87 32.32 26.16 31.71 26.77Z" stroke="#2A313B" stroke-width="1.5" stroke-miterlimit="10" stroke-linecap="round" stroke-linejoin="round"/>
<path d="M31.2 27.28C31.5 28.36 32.34 29.2 33.42 29.5" stroke="#2A313B" stroke-width="1.5" stroke-miterlimit="10" stroke-linecap="round" stroke-linejoin="round"/>
</svg>
