<svg width="49" height="48" viewBox="0 0 49 48" fill="none" xmlns="http://www.w3.org/2000/svg">
<circle cx="24.5" cy="24" r="24" fill="#F7F7F7"/>
<path d="M29.9998 19.91C29.9698 19.91 29.9498 19.91 29.9198 19.91H29.8698C27.9798 19.85 26.5698 18.39 26.5698 16.59C26.5698 14.75 28.0698 13.26 29.8998 13.26C31.7298 13.26 33.2298 14.76 33.2298 16.59C33.2198 18.4 31.8098 19.86 30.0098 19.92C30.0098 19.91 30.0098 19.91 29.9998 19.91ZM29.8998 14.75C28.8898 14.75 28.0698 15.57 28.0698 16.58C28.0698 17.57 28.8398 18.37 29.8298 18.41C29.8398 18.4 29.9198 18.4 30.0098 18.41C30.9798 18.36 31.7298 17.56 31.7398 16.58C31.7398 15.57 30.9198 14.75 29.8998 14.75Z" fill="#2A313B"/>
<path d="M30.01 27.28C29.62 27.28 29.23 27.25 28.84 27.18C28.43 27.11 28.16 26.72 28.23 26.31C28.3 25.9 28.69 25.63 29.1 25.7C30.33 25.91 31.63 25.68 32.5 25.1C32.97 24.79 33.22 24.4 33.22 24.01C33.22 23.62 32.96 23.24 32.5 22.93C31.63 22.35 30.31 22.12 29.07 22.34C28.66 22.42 28.27 22.14 28.2 21.73C28.13 21.32 28.4 20.93 28.81 20.86C30.44 20.57 32.13 20.88 33.33 21.68C34.21 22.27 34.72 23.11 34.72 24.01C34.72 24.9 34.22 25.75 33.33 26.35C32.42 26.95 31.24 27.28 30.01 27.28Z" fill="#2A313B"/>
<path d="M17.97 19.91C17.96 19.91 17.95 19.91 17.95 19.91C16.15 19.85 14.74 18.39 14.73 16.59C14.73 14.75 16.23 13.25 18.06 13.25C19.89 13.25 21.39 14.75 21.39 16.58C21.39 18.39 19.98 19.85 18.18 19.91L17.97 19.16L18.04 19.91C18.02 19.91 17.99 19.91 17.97 19.91ZM18.07 18.41C18.13 18.41 18.18 18.41 18.24 18.42C19.13 18.38 19.91 17.58 19.91 16.59C19.91 15.58 19.09 14.76 18.08 14.76C17.07 14.76 16.25 15.58 16.25 16.59C16.25 17.57 17.01 18.36 17.98 18.42C17.99 18.41 18.03 18.41 18.07 18.41Z" fill="#2A313B"/>
<path d="M17.96 27.28C16.73 27.28 15.55 26.95 14.64 26.35C13.76 25.76 13.25 24.91 13.25 24.01C13.25 23.12 13.76 22.27 14.64 21.68C15.84 20.88 17.53 20.57 19.16 20.86C19.57 20.93 19.84 21.32 19.77 21.73C19.7 22.14 19.31 22.42 18.9 22.34C17.66 22.12 16.35 22.35 15.47 22.93C15 23.24 14.75 23.62 14.75 24.01C14.75 24.4 15.01 24.79 15.47 25.1C16.34 25.68 17.64 25.91 18.87 25.7C19.28 25.63 19.67 25.91 19.74 26.31C19.81 26.72 19.54 27.11 19.13 27.18C18.74 27.25 18.35 27.28 17.96 27.28Z" fill="#2A313B"/>
<path d="M23.9998 27.38C23.9698 27.38 23.9498 27.38 23.9198 27.38H23.8698C21.9798 27.32 20.5698 25.86 20.5698 24.06C20.5698 22.22 22.0698 20.73 23.8998 20.73C25.7298 20.73 27.2298 22.23 27.2298 24.06C27.2198 25.87 25.8098 27.33 24.0098 27.39C24.0098 27.38 24.0098 27.38 23.9998 27.38ZM23.8998 22.22C22.8898 22.22 22.0698 23.04 22.0698 24.05C22.0698 25.04 22.8398 25.84 23.8298 25.88C23.8398 25.87 23.9198 25.87 24.0098 25.88C24.9798 25.83 25.7298 25.03 25.7398 24.05C25.7398 23.05 24.9198 22.22 23.8998 22.22Z" fill="#2A313B"/>
<path d="M23.9998 34.76C22.7998 34.76 21.5998 34.45 20.6698 33.82C19.7898 33.23 19.2798 32.39 19.2798 31.49C19.2798 30.6 19.7798 29.74 20.6698 29.15C22.5398 27.91 25.4698 27.91 27.3298 29.15C28.2098 29.74 28.7198 30.58 28.7198 31.48C28.7198 32.37 28.2198 33.23 27.3298 33.82C26.3998 34.44 25.1998 34.76 23.9998 34.76ZM21.4998 30.41C21.0298 30.72 20.7798 31.11 20.7798 31.5C20.7798 31.89 21.0398 32.27 21.4998 32.58C22.8498 33.49 25.1398 33.49 26.4898 32.58C26.9598 32.27 27.2098 31.88 27.2098 31.49C27.2098 31.1 26.9498 30.72 26.4898 30.41C25.1498 29.5 22.8598 29.51 21.4998 30.41Z" fill="#2A313B"/>
</svg>
