<svg width="49" height="48" viewBox="0 0 49 48" fill="none" xmlns="http://www.w3.org/2000/svg">
<circle cx="24.5" cy="24" r="24" fill="#F7F7F7"/>
<path d="M34.5 28.74V16.67C34.5 15.47 33.52 14.58 32.33 14.68H32.27C30.17 14.86 26.98 15.93 25.2 17.05L25.03 17.16C24.74 17.34 24.26 17.34 23.97 17.16L23.72 17.01C21.94 15.9 18.76 14.84 16.66 14.67C15.47 14.57 14.5 15.47 14.5 16.66V28.74C14.5 29.7 15.28 30.6 16.24 30.72L16.53 30.76C18.7 31.05 22.05 32.15 23.97 33.2L24.01 33.22C24.28 33.37 24.71 33.37 24.97 33.22C26.89 32.16 30.25 31.05 32.43 30.76L32.76 30.72C33.72 30.6 34.5 29.7 34.5 28.74Z" stroke="#2A313B" stroke-width="1.5" stroke-linecap="round" stroke-linejoin="round"/>
<path d="M24.5 17.49V32.49" stroke="#2A313B" stroke-width="1.5" stroke-linecap="round" stroke-linejoin="round"/>
<path d="M20.25 20.49H18" stroke="#2A313B" stroke-width="1.5" stroke-linecap="round" stroke-linejoin="round"/>
<path d="M21 23.49H18" stroke="#2A313B" stroke-width="1.5" stroke-linecap="round" stroke-linejoin="round"/>
</svg>
