<svg width="49" height="48" viewBox="0 0 49 48" fill="none" xmlns="http://www.w3.org/2000/svg">
<circle cx="24.5" cy="24" r="24" fill="#F7F7F7"/>
<path d="M20 14V17" stroke="#2A313B" stroke-width="1.5" stroke-miterlimit="10" stroke-linecap="round" stroke-linejoin="round"/>
<path d="M28 14V17" stroke="#2A313B" stroke-width="1.5" stroke-miterlimit="10" stroke-linecap="round" stroke-linejoin="round"/>
<path d="M15.5 21.09H32.5" stroke="#2A313B" stroke-width="1.5" stroke-miterlimit="10" stroke-linecap="round" stroke-linejoin="round"/>
<path d="M33 24V20.5C33 17.5 31.5 15.5 28 15.5H20C16.5 15.5 15 17.5 15 20.5V29C15 32 16.5 34 20 34H23" stroke="#2A313B" stroke-width="1.5" stroke-miterlimit="10" stroke-linecap="round" stroke-linejoin="round"/>
<path d="M29.4106 29.003V30.753L30.7906 31.596" stroke="#2A313B" stroke-width="1.5" stroke-linecap="round" stroke-linejoin="round"/>
<path d="M29.5175 35.02H29.5075C27.0175 35.02 25.0075 33 25.0075 30.52C24.9975 30.51 24.9975 30.51 25.0075 30.51V30.5C25.0375 28.02 27.0375 26.03 29.5075 26C31.9875 26 33.9975 28.01 33.9975 30.5C33.9875 32.98 31.9775 34.99 29.4875 34.99" stroke="#2A313B" stroke-width="1.5"/>
</svg>
