<svg width="49" height="48" viewBox="0 0 49 48" fill="none" xmlns="http://www.w3.org/2000/svg">
<circle cx="24.5" cy="24" r="24" fill="#F7F7F7"/>
<path d="M21.6601 22.87C21.5601 22.86 21.4401 22.86 21.3301 22.87C18.9501 22.79 17.0601 20.84 17.0601 18.44C17.0601 15.99 19.0401 14 21.5001 14C23.9501 14 25.9401 15.99 25.9401 18.44C25.9301 20.84 24.0401 22.79 21.6601 22.87Z" stroke="#2A313B" stroke-width="1.5" stroke-linecap="round" stroke-linejoin="round"/>
<path d="M28.91 16C30.85 16 32.41 17.57 32.41 19.5C32.41 21.39 30.91 22.93 29.04 23C28.96 22.99 28.87 22.99 28.78 23" stroke="#2A313B" stroke-width="1.5" stroke-linecap="round" stroke-linejoin="round"/>
<path d="M16.66 26.56C14.24 28.18 14.24 30.82 16.66 32.43C19.41 34.27 23.92 34.27 26.67 32.43C29.09 30.81 29.09 28.17 26.67 26.56C23.93 24.73 19.42 24.73 16.66 26.56Z" stroke="#2A313B" stroke-width="1.5" stroke-linecap="round" stroke-linejoin="round"/>
<path d="M30.8401 32C31.5601 31.85 32.2401 31.56 32.8001 31.13C34.3601 29.96 34.3601 28.03 32.8001 26.86C32.2501 26.44 31.5801 26.16 30.8701 26" stroke="#2A313B" stroke-width="1.5" stroke-linecap="round" stroke-linejoin="round"/>
</svg>
