<svg width="49" height="48" viewBox="0 0 49 48" fill="none" xmlns="http://www.w3.org/2000/svg">
<circle cx="24.5" cy="24" r="24" fill="#F7F7F7"/>
<path d="M19.98 30.35L23.08 32.75C23.48 33.15 24.38 33.35 24.98 33.35H28.78C29.98 33.35 31.28 32.45 31.58 31.25L33.98 23.95C34.48 22.55 33.58 21.35 32.08 21.35H28.08C27.48 21.35 26.98 20.85 27.08 20.15L27.58 16.95C27.78 16.05 27.18 15.05 26.28 14.75C25.48 14.45 24.48 14.85 24.08 15.45L19.98 21.55" stroke="#2A313B" stroke-width="1.5" stroke-miterlimit="10"/>
<path d="M14.8799 30.35V20.55C14.8799 19.15 15.4799 18.65 16.8799 18.65H17.8799C19.2799 18.65 19.8799 19.15 19.8799 20.55V30.35C19.8799 31.75 19.2799 32.25 17.8799 32.25H16.8799C15.4799 32.25 14.8799 31.75 14.8799 30.35Z" stroke="#2A313B" stroke-width="1.5" stroke-linecap="round" stroke-linejoin="round"/>
</svg>
