<svg width="48" height="48" viewBox="0 0 48 48" fill="none" xmlns="http://www.w3.org/2000/svg">
<circle cx="24" cy="24" r="24" fill="#00C49A"/>
<path fill-rule="evenodd" clip-rule="evenodd" d="M13.25 24C13.25 18.0858 18.0858 13.25 24 13.25C29.9142 13.25 34.75 18.0858 34.75 24C34.75 29.9142 29.9142 34.75 24 34.75C18.0858 34.75 13.25 29.9142 13.25 24ZM24 14.75C18.9142 14.75 14.75 18.9142 14.75 24C14.75 29.0858 18.9142 33.25 24 33.25C29.0858 33.25 33.25 29.0858 33.25 24C33.25 18.9142 29.0858 14.75 24 14.75Z" fill="white"/>
<path fill-rule="evenodd" clip-rule="evenodd" d="M28.7808 20.6401C29.0734 20.9333 29.073 21.4081 28.7799 21.7008L23.1099 27.3608C22.8169 27.6532 22.3424 27.653 22.0497 27.3603L19.2197 24.5303C18.9268 24.2374 18.9268 23.7625 19.2197 23.4697C19.5126 23.1768 19.9874 23.1768 20.2803 23.4697L22.5805 25.7698L27.7201 20.6392C28.0133 20.3466 28.4882 20.347 28.7808 20.6401Z" fill="white"/>
</svg>
