<svg width="49" height="48" viewBox="0 0 49 48" fill="none" xmlns="http://www.w3.org/2000/svg">
<circle cx="24.5" cy="24" r="24" fill="#F7F7F7"/>
<path d="M28.5 14H20.5C16.5 14 14.5 16 14.5 20V33C14.5 33.55 14.95 34 15.5 34H28.5C32.5 34 34.5 32 34.5 28V20C34.5 16 32.5 14 28.5 14Z" stroke="#2A313B" stroke-width="1.5" stroke-linecap="round" stroke-linejoin="round"/>
<path d="M25.41 19.84L20.22 25.03C20.02 25.23 19.83 25.62 19.79 25.9L19.51 27.88C19.41 28.6 19.91 29.1 20.63 29L22.61 28.72C22.89 28.68 23.28 28.49 23.48 28.29L28.67 23.1C29.56 22.21 29.99 21.17 28.67 19.85C27.35 18.52 26.31 18.94 25.41 19.84Z" stroke="#2A313B" stroke-width="1.5" stroke-miterlimit="10" stroke-linecap="round" stroke-linejoin="round"/>
<path d="M24.6699 20.58C25.1099 22.15 26.3399 23.39 27.9199 23.83" stroke="#2A313B" stroke-width="1.5" stroke-miterlimit="10" stroke-linecap="round" stroke-linejoin="round"/>
</svg>
