<svg width="49" height="48" viewBox="0 0 49 48" fill="none" xmlns="http://www.w3.org/2000/svg">
<circle cx="24.5" cy="24" r="24" fill="#F7F7F7"/>
<path d="M24.5 27C26.1569 27 27.5 25.6569 27.5 24C27.5 22.3431 26.1569 21 24.5 21C22.8431 21 21.5 22.3431 21.5 24C21.5 25.6569 22.8431 27 24.5 27Z" stroke="#2A313B" stroke-width="1.5" stroke-miterlimit="10" stroke-linecap="round" stroke-linejoin="round"/>
<path d="M14.5 24.88V23.12C14.5 22.08 15.35 21.22 16.4 21.22C18.21 21.22 18.95 19.94 18.04 18.37C17.52 17.47 17.83 16.3 18.74 15.78L20.47 14.79C21.26 14.32 22.28 14.6 22.75 15.39L22.86 15.58C23.76 17.15 25.24 17.15 26.15 15.58L26.26 15.39C26.73 14.6 27.75 14.32 28.54 14.79L30.27 15.78C31.18 16.3 31.49 17.47 30.97 18.37C30.06 19.94 30.8 21.22 32.61 21.22C33.65 21.22 34.51 22.07 34.51 23.12V24.88C34.51 25.92 33.66 26.78 32.61 26.78C30.8 26.78 30.06 28.06 30.97 29.63C31.49 30.54 31.18 31.7 30.27 32.22L28.54 33.21C27.75 33.68 26.73 33.4 26.26 32.61L26.15 32.42C25.25 30.85 23.77 30.85 22.86 32.42L22.75 32.61C22.28 33.4 21.26 33.68 20.47 33.21L18.74 32.22C17.83 31.7 17.52 30.53 18.04 29.63C18.95 28.06 18.21 26.78 16.4 26.78C15.35 26.78 14.5 25.92 14.5 24.88Z" stroke="#2A313B" stroke-width="1.5" stroke-miterlimit="10" stroke-linecap="round" stroke-linejoin="round"/>
</svg>
