<svg xmlns="http://www.w3.org/2000/svg" width="24" height="22" viewBox="0 0 24 22">
    <g fill="none" fill-rule="evenodd">
        <g fill-rule="nonzero">
            <g>
                <g>
                    <g>
                        <path d="M0 0H24V24H0z" transform="translate(-17 -222) translate(1) translate(16 222)"/>
                        <path fill="#2E3537" fill-opacity=".3" d="M15.516 17.707v1.43h7.078c.776 0 1.406.642 1.406 1.432v.715c0 .396-.315.716-.703.716H.703C.315 22 0 21.68 0 21.284v-.715c0-.79.63-1.431 1.406-1.431h7.078v-1.431h7.032zm7.042-3.702c.016.238.036.474.036.716v1.43c0 .396-.315.716-.703.716H2.109c-.388 0-.703-.32-.703-.715V14.72c0-.242.02-.478.036-.716zM12 3.892c5.094 0 9.401 3.789 10.381 8.682H1.62C2.599 7.681 6.906 3.892 12 3.892zM14.11 0c.776 0 1.406.64 1.406 1.431v.716c0 .395-.315.715-.704.715H9.189c-.389 0-.704-.32-.704-.715V1.43C8.484.641 9.114 0 9.891 0z" transform="translate(-17 -222) translate(1) translate(16 222)"/>
                    </g>
                </g>
            </g>
        </g>
    </g>
</svg>
