<svg xmlns="http://www.w3.org/2000/svg" width="24" height="22" viewBox="0 0 24 22">
    <g fill="none" fill-rule="evenodd">
        <g fill-rule="nonzero">
            <g>
                <g>
                    <g>
                        <path d="M0 0H24V24H0z" transform="translate(-17 -271) translate(1) translate(16 270)"/>
                        <path fill="#2E3537" fill-opacity=".3" d="M23.628 6.013c-.201-.268-.485-.473-.85-.616.019.334-.005.607-.072.817L18.382 20.35c-.077.248-.245.446-.504.594-.26.148-.529.222-.807.222H3.769c-1.153 0-1.845-.334-2.076-1.003-.096-.257-.09-.463.015-.615.106-.144.288-.215.548-.215h12.523c.894 0 1.511-.165 1.852-.495.342-.33.685-1.062 1.03-2.198l3.95-12.977c.21-.707.124-1.327-.26-1.862C20.967 1.267 20.42 1 19.708 1H8.741c-.125 0-.37.043-.735.129l.014-.043c-.269-.057-.497-.084-.684-.08-.188.006-.36.06-.52.166-.158.105-.285.217-.381.336-.096.12-.19.273-.281.459-.091.186-.168.358-.23.516-.063.157-.135.324-.217.501-.081.177-.16.322-.237.437-.058.076-.14.176-.245.3-.106.125-.193.235-.26.33-.067.096-.11.182-.13.258-.019.086-.009.212.03.38.038.166.052.288.043.365-.039.362-.171.823-.397 1.382-.225.558-.43.962-.612 1.21-.039.048-.144.155-.317.322-.173.168-.279.313-.317.437-.039.048-.041.182-.007.401.033.22.045.373.036.458-.039.325-.159.755-.36 1.29-.203.534-.404.974-.606 1.317-.029.058-.11.167-.245.33-.134.162-.216.296-.245.4-.02.077-.017.21.007.402.024.19.022.334-.007.43-.077.362-.221.799-.432 1.31-.212.51-.428.948-.65 1.31-.057.096-.136.208-.237.337-.1.129-.18.241-.238.336-.057.096-.096.196-.115.301-.01.058.005.15.044.28.038.128.052.231.043.308-.01.133-.03.31-.058.53-.029.22-.043.348-.043.386-.212.573-.202 1.18.029 1.82.269.744.746 1.372 1.433 1.883.687.51 1.4.766 2.14.766h13.303c.624 0 1.212-.208 1.765-.623.552-.415.92-.928 1.102-1.54l3.963-12.976c.212-.688.126-1.304-.259-1.848zm-15.334.029l.303-.917c.038-.124.117-.232.238-.322.12-.091.242-.137.367-.137h8.763c.134 0 .23.046.288.137.057.09.067.198.029.322l-.303.917c-.039.124-.118.23-.238.322-.12.09-.243.136-.368.136H8.611c-.134 0-.23-.046-.288-.136-.058-.091-.067-.198-.029-.322zM7.098 9.708l.303-.916c.038-.125.117-.232.237-.323.12-.09.243-.136.368-.136h8.762c.135 0 .23.045.288.136.058.091.068.198.03.323l-.304.916c-.038.124-.117.232-.237.322-.12.091-.243.136-.368.136H7.415c-.134 0-.23-.045-.288-.136-.058-.09-.067-.198-.029-.322z" transform="translate(-17 -271) translate(1) translate(16 270)"/>
                    </g>
                </g>
            </g>
        </g>
    </g>
</svg>
