<svg xmlns="http://www.w3.org/2000/svg" width="20" height="20" viewBox="0 0 20 20">
    <g fill="none" fill-rule="evenodd">
        <path fill="#ACAEAF" fill-rule="nonzero" d="M7 2c.425 0 .775.318.827.729l.006.104V4.5h8.334V2.833c0-.424.318-.775.729-.827L17 2h.833c.425 0 .776.318.827.729l.007.104V4.5h.833c1.323 0 2.41 1.034 2.495 2.336L22 7v12.5c0 1.323-1.034 2.41-2.336 2.495L19.5 22h-15c-1.323 0-2.41-1.034-2.495-2.336L2 19.5V7c0-1.323 1.034-2.41 2.336-2.495L4.5 4.5h.833V2.833c0-.424.318-.775.73-.827L6.166 2H7zm13.333 8.367H3.667V19.5c0 .424.319.775.729.827l.104.006h15c.424 0 .775-.319.827-.729l.006-.104v-9.133zm-13.125 5.8c.31 0 .569.227.617.523l.008.102v2.083c0 .31-.227.568-.523.617l-.102.008H5.125c-.31 0-.568-.227-.617-.524l-.008-.101v-2.083c0-.31.227-.569.524-.617l.101-.008h2.083zm5.834 0c.31 0 .568.227.617.523l.008.102v2.083c0 .31-.227.568-.524.617l-.101.008h-2.084c-.31 0-.568-.227-.617-.524l-.008-.101v-2.083c0-.31.227-.569.524-.617l.101-.008h2.084zm-5.834-5c.31 0 .569.227.617.523l.008.102v2.083c0 .31-.227.568-.523.617l-.102.008H5.125c-.31 0-.568-.227-.617-.524l-.008-.101v-2.083c0-.31.227-.569.524-.617l.101-.008h2.083zm5.834 0c.31 0 .568.227.617.523l.008.102v2.083c0 .31-.227.568-.524.617l-.101.008h-2.084c-.31 0-.568-.227-.617-.524l-.008-.101v-2.083c0-.31.227-.569.524-.617l.101-.008h2.084zm5.833 0c.31 0 .568.227.617.523l.008.102v2.083c0 .31-.227.568-.524.617l-.101.008h-2.083c-.31 0-.569-.227-.617-.524l-.008-.101v-2.083c0-.31.227-.569.523-.617l.102-.008h2.083z" opacity=".9" transform="translate(-2 -2)"/>
    </g>
</svg>
