<svg xmlns="http://www.w3.org/2000/svg" width="24" height="24" viewBox="0 0 24 24">
    <g fill="none" fill-rule="evenodd">
        <g fill-rule="nonzero">
            <g>
                <g>
                    <g>
                        <path d="M0 0H24V24H0z" transform="translate(-17 -174) translate(1) translate(16 174)"/>
                        <path fill="#2E3537" fill-opacity=".3" d="M12 0C5.383 0 0 5.383 0 12s5.383 12 12 12 12-5.383 12-12S18.617 0 12 0zm0 3c3.956 0 7.316 2.569 8.52 6.123C18.303 8.405 15.27 8 12 8c-3.27 0-6.303.405-8.52 1.124C4.683 5.569 8.044 3 12 3zm2 9c0 1.103-.897 2-2 2s-2-.897-2-2 .897-2 2-2 2 .897 2 2zm-7.114 3.482L5.78 18.488c-1.339-1.284-2.28-2.974-2.626-4.872l1.365-.502c.673-.248 1.435-.08 1.942.426.506.507.674 1.27.426 1.942zM12 21c-.984 0-1.928-.164-2.815-.457l1.14-2.472c.3-.65.958-1.071 1.675-1.071.717 0 1.375.42 1.674 1.071l1.141 2.472c-.887.293-1.831.457-2.815.457zm6.221-2.512l-1.107-3.006c-.248-.672-.08-1.435.426-1.942.507-.506 1.269-.675 1.942-.426l1.365.503c-.347 1.898-1.288 3.587-2.626 4.871z" transform="translate(-17 -174) translate(1) translate(16 174)"/>
                    </g>
                </g>
            </g>
        </g>
    </g>
</svg>
