<svg xmlns="http://www.w3.org/2000/svg" width="24" height="24" viewBox="0 0 24 24">
    <g fill="none" fill-rule="evenodd">
        <g fill-rule="nonzero">
            <g>
                <g>
                    <g>
                        <path d="M0 0H24V24H0z" transform="translate(-17 -318) translate(1) translate(16 318)"/>
                        <path fill="#2E3537" fill-opacity=".3" d="M5.743 12.703C6.098 15.86 8.75 18.328 12 18.328c3.156 0 5.794-2.33 6.268-5.356l.036-.269H24v.703c0 .265-.149.504-.378.624l-.103.044-2.847.944c-.08.23-.165.446-.252.65l-.135.298 1.335 2.682c.118.237.092.516-.06.725l-.072.085-1.983 1.983c-.187.188-.46.25-.707.174l-.103-.042-2.682-1.335c-.193.092-.397.18-.614.264l-.334.124-.944 2.893c-.084.25-.3.431-.556.472l-.112.009h-2.86c-.264 0-.503-.149-.623-.378l-.044-.103-.944-2.893c-.23-.081-.446-.165-.65-.253l-.298-.135-2.682 1.335c-.236.117-.515.092-.725-.06l-.085-.072-1.983-1.983c-.187-.187-.25-.46-.174-.706l.042-.104 1.335-2.682c-.092-.193-.18-.397-.264-.614l-.124-.334-2.893-.944c-.25-.084-.431-.3-.472-.556L0 13.406v-.703h5.743zm2.813 0c.326 1.603 1.746 2.813 3.444 2.813 1.624 0 3.037-1.107 3.442-2.606l.05-.207h1.406c-.345 2.379-2.425 4.219-4.898 4.219-2.39 0-4.37-1.72-4.81-3.983l-.04-.236h1.406zm5.47 0c-.29.817-1.11 1.406-2.026 1.406-.854 0-1.585-.513-1.915-1.246l-.065-.16h4.007zm7.45-6.427c1.423.802 2.42 2.318 2.516 4.044l.008.274v.703h-5.668c-.2-1.78-1.15-3.376-2.518-4.398.269-.24.565-.44.874-.617.68.47 1.502.75 2.39.75.892 0 1.716-.282 2.398-.756zM12 7.03c2.393 0 4.436 1.76 4.879 4.03l.04.236h-9.79C7.47 8.915 9.524 7.03 12 7.03zm-9.43-.755c.682.474 1.507.755 2.399.755.888 0 1.71-.278 2.39-.749.309.177.605.377.873.617-1.287.962-2.203 2.432-2.474 4.086l-.043.312H0v-.703C0 8.755 1.073 7.12 2.57 6.276zM12 0c1.551 0 2.86 1.261 2.86 2.813 0 1.55-1.309 2.812-2.86 2.812S9.187 4.364 9.187 2.812C9.188 1.262 10.45 0 12 0zm7.078 0c1.551 0 2.813 1.261 2.813 2.813 0 1.55-1.262 2.812-2.813 2.812-1.551 0-2.812-1.261-2.812-2.813 0-1.55 1.261-2.812 2.812-2.812zM4.968 0C6.52 0 7.782 1.261 7.782 2.813c0 1.55-1.261 2.812-2.812 2.812S2.156 4.364 2.156 2.812C2.156 1.262 3.418 0 4.97 0z" transform="translate(-17 -318) translate(1) translate(16 318)"/>
                    </g>
                </g>
            </g>
        </g>
    </g>
</svg>
