<svg width="24" height="24" viewBox="0 0 24 24" fill="none" xmlns="http://www.w3.org/2000/svg">
<path d="M19.97 10H3.96997V18C3.96997 21 4.96997 22 7.96997 22H15.97C18.97 22 19.97 21 19.97 18V10Z" stroke="#62707A" stroke-width="1.5" stroke-miterlimit="10" stroke-linecap="round" stroke-linejoin="round"/>
<path d="M21.5 7.00003V8.00003C21.5 9.10003 20.97 10 19.5 10H4.5C2.97 10 2.5 9.10003 2.5 8.00003V7.00003C2.5 5.90003 2.97 5.00003 4.5 5.00003H19.5C20.97 5.00003 21.5 5.90003 21.5 7.00003Z" stroke="#62707A" stroke-width="1.5" stroke-miterlimit="10" stroke-linecap="round" stroke-linejoin="round"/>
<path d="M11.64 5.00003H6.12003C5.78003 4.63003 5.79003 4.06003 6.15003 3.70003L7.57003 2.28003C7.94003 1.91003 8.55003 1.91003 8.92003 2.28003L11.64 5.00003Z" stroke="#62707A" stroke-width="1.5" stroke-miterlimit="10" stroke-linecap="round" stroke-linejoin="round"/>
<path d="M17.87 5.00003H12.35L15.07 2.28003C15.44 1.91003 16.05 1.91003 16.42 2.28003L17.84 3.70003C18.2 4.06003 18.21 4.63003 17.87 5.00003Z" stroke="#62707A" stroke-width="1.5" stroke-miterlimit="10" stroke-linecap="round" stroke-linejoin="round"/>
<path d="M8.94 10V15.14C8.94 15.94 9.82 16.41 10.49 15.98L11.43 15.36C11.77 15.14 12.2 15.14 12.53 15.36L13.42 15.96C14.08 16.4 14.97 15.93 14.97 15.13V10H8.94Z" stroke="#62707A" stroke-width="1.5" stroke-miterlimit="10" stroke-linecap="round" stroke-linejoin="round"/>
</svg>
