<svg width="48" height="48" viewBox="0 0 48 48" fill="none" xmlns="http://www.w3.org/2000/svg">
<circle cx="24" cy="24" r="24" fill="#F7F7F7"/>
<path d="M31.97 22H15.97V30C15.97 33 16.97 34 19.97 34H27.97C30.97 34 31.97 33 31.97 30V22Z" stroke="#2A313B" stroke-width="1.5" stroke-miterlimit="10" stroke-linecap="round" stroke-linejoin="round"/>
<path d="M33.5 19V20C33.5 21.1 32.97 22 31.5 22H16.5C14.97 22 14.5 21.1 14.5 20V19C14.5 17.9 14.97 17 16.5 17H31.5C32.97 17 33.5 17.9 33.5 19Z" stroke="#2A313B" stroke-width="1.5" stroke-miterlimit="10" stroke-linecap="round" stroke-linejoin="round"/>
<path d="M23.64 17H18.12C17.78 16.63 17.79 16.06 18.15 15.7L19.57 14.28C19.94 13.91 20.55 13.91 20.92 14.28L23.64 17Z" stroke="#2A313B" stroke-width="1.5" stroke-miterlimit="10" stroke-linecap="round" stroke-linejoin="round"/>
<path d="M29.87 17H24.35L27.07 14.28C27.44 13.91 28.05 13.91 28.42 14.28L29.84 15.7C30.2 16.06 30.21 16.63 29.87 17Z" stroke="#2A313B" stroke-width="1.5" stroke-miterlimit="10" stroke-linecap="round" stroke-linejoin="round"/>
<path d="M20.94 22V27.14C20.94 27.94 21.82 28.41 22.49 27.98L23.43 27.36C23.77 27.14 24.2 27.14 24.53 27.36L25.42 27.96C26.08 28.4 26.97 27.93 26.97 27.13V22H20.94Z" stroke="#2A313B" stroke-width="1.5" stroke-miterlimit="10" stroke-linecap="round" stroke-linejoin="round"/>
</svg>
