<svg width="24" height="24" viewBox="0 0 24 24" fill="none" xmlns="http://www.w3.org/2000/svg">
<path d="M8 2V5" stroke="#62707A" stroke-width="1.5" stroke-miterlimit="10" stroke-linecap="round" stroke-linejoin="round"/>
<path d="M16 2V5" stroke="#62707A" stroke-width="1.5" stroke-miterlimit="10" stroke-linecap="round" stroke-linejoin="round"/>
<path d="M3.5 9.09H20.5" stroke="#62707A" stroke-width="1.5" stroke-miterlimit="10" stroke-linecap="round" stroke-linejoin="round"/>
<path d="M21 12V8.5C21 5.5 19.5 3.5 16 3.5H8C4.5 3.5 3 5.5 3 8.5V17C3 20 4.5 22 8 22H11" stroke="#62707A" stroke-width="1.5" stroke-miterlimit="10" stroke-linecap="round" stroke-linejoin="round"/>
<path d="M17.4105 17.003V18.753L18.7905 19.596" stroke="#62707A" stroke-width="1.5" stroke-linecap="round" stroke-linejoin="round"/>
<path d="M17.5175 23.02H17.5075C15.0175 23.02 13.0075 21 13.0075 18.52C12.9975 18.51 12.9975 18.51 13.0075 18.51V18.5C13.0375 16.02 15.0375 14.03 17.5075 14C19.9875 14 21.9975 16.01 21.9975 18.5C21.9875 20.98 19.9775 22.99 17.4875 22.99" stroke="#62707A" stroke-width="1.5"/>
</svg>
