<svg xmlns="http://www.w3.org/2000/svg" width="14" height="20" viewBox="0 0 14 20">
    <g fill="none" fill-rule="evenodd">
        <g>
            <g>
                <path d="M0 0H24V24H0z" transform="translate(-125 -634) translate(120 632)"/>
                <path fill="#000" d="M18.17 2c.457 0 .83.383.83.854v14.024c0 .42-.303.782-.706.845l-.106.009H7.886c-.677 0-1.227.574-1.227 1.28 0 .706.55 1.28 1.227 1.28H18.17c.457 0 .83.384.83.854 0 .472-.373.854-.83.854H7.886C6.295 22 5 20.66 5 19.013V4.759C5 3.238 6.196 2 7.666 2zm.007 16.256c.454 0 .823.34.823.756 0 .417-.369.757-.823.757H7.974c-.454 0-.823-.34-.823-.757 0-.416.37-.756.823-.756zM7.645 3.708c-.546.012-.986.478-.986 1.051v11.55c.31-.152.643-.245.986-.274zm9.696 0h-8.04v12.316h8.04V3.707z" transform="translate(-125 -634) translate(120 632)"/>
            </g>
        </g>
    </g>
</svg>
