<svg xmlns="http://www.w3.org/2000/svg" width="20" height="16" viewBox="0 0 20 16">
    <g fill="none" fill-rule="evenodd">
        <path d="M0 0H24V24H0z" transform="translate(-2 -4)"/>
        <path fill="#000" d="M20.312 6.788H3.688V6.41c.004-.422.354-.767.781-.77h15.06c.428.003.78.348.783.767v.38zm-16.624 7.69c.414.204.875.313 1.347.317.858 0 1.67-.353 2.246-.972.602.627 1.487 1 2.39 1h.008c.891-.013 1.742-.395 2.35-1.051.598.628 1.436.993 2.316 1.006.892-.001 1.771-.363 2.372-.974.576.62 1.39.975 2.258.975.464-.004.922-.113 1.337-.319v3.13c-.004.42-.354.766-.78.77H4.472c-.43-.004-.781-.348-.784-.768v-3.115zm2.044-1.399c-.432.256-.968.255-1.397 0-.44-.261-.682-.729-.647-1.256V8.42h2.69l.001 3.437c.035.496-.214.964-.647 1.222zm2.334-1.45V8.42h3.095v3.21c0 .837-.695 1.517-1.548 1.517-.853 0-1.547-.68-1.547-1.517zm7.869 0c0 .837-.695 1.517-1.548 1.517-.852 0-1.547-.68-1.547-1.517V8.42h3.095v3.21zm3.731 1.45c-.43.255-.967.256-1.398 0-.44-.262-.682-.73-.645-1.256V8.42h2.689v3.437c.035.496-.212.964-.646 1.222zM19.532 4H4.468C3.108 4 2 5.08 2 6.407v11.185C2 18.919 3.107 20 4.468 20h15.064C20.892 20 22 18.92 22 17.592V6.407C22 5.08 20.893 4 19.532 4z" transform="translate(-2 -4)"/>
    </g>
</svg>
