<svg xmlns="http://www.w3.org/2000/svg" width="24" height="24" viewBox="0 0 24 24">
    <path fill="#000" fill-rule="evenodd" d="M22 19c0 .552-.447 1-1 1-.553 0-1-.448-1-1 0-1.654-1.346-3-3-3-.683 0-1.332.234-1.856.649.544.996.856 2.138.856 3.351 0 .552-.447 1-1 1-.553 0-1-.448-1-1 0-2.757-2.243-5-5-5s-5 2.243-5 5c0 .552-.447 1-1 1-.553 0-1-.448-1-1 0-3.86 3.141-7 7-7 1.927 0 3.673.783 4.94 2.046C14.809 14.374 15.879 14 17 14c2.757 0 5 2.243 5 5M17 9c.552 0 1 .449 1 1 0 .551-.448 1-1 1s-1-.449-1-1c0-.551.448-1 1-1m0 4c1.654 0 3-1.346 3-3s-1.346-3-3-3-3 1.346-3 3 1.346 3 3 3M9 5c1.103 0 2 .897 2 2s-.897 2-2 2-2-.897-2-2 .897-2 2-2m0 6c2.206 0 4-1.794 4-4s-1.794-4-4-4-4 1.794-4 4 1.794 4 4 4"/>
</svg>
