<svg xmlns="http://www.w3.org/2000/svg" width="20" height="20" viewBox="0 0 20 20">
    <g fill="none" fill-rule="evenodd">
        <g>
            <g>
                <g>
                    <g>
                        <g>
                            <path d="M0 0H24V24H0z" transform="translate(-122 -110) translate(16 104) translate(88) translate(16 4)"/>
                            <path fill="#000" d="M19.917 9.402l-.647-2.004.968.154.379 1.152-.7.698zm-.16 4.359l-.143.023c-.112-.034-.173-.024-.223-.114l-3.11-9.676c-.06-.173-.104-.239-.085-.244.187-.06.354-.09.526.027l3.125 9.733c-.005.063-.032.19-.09.251zm-8.606-.411L9.904 9.482l4.882-4.333 2.708 8.416-6.343-.215zm-.582 2.818l-.303-.87.866-.305.304.871-.867.304zM9.44 19.982c-.058.098-.147.172-.256.213-.109.032-.226.025-.324-.032-.1-.05-.172-.14-.213-.25L7.44 16.156l.82-.266 1.128 3.527-.014.017.08.19.01.04c.01.031.013.068.023.107.001.075-.013.145-.046.211zm-3.385-5.25c-.916.29-1.901-.208-2.192-1.128-.101-.298-.117-.607-.054-.907.13-.608.586-1.11 1.177-1.296L8.31 10.32l1.07 3.33-3.325 1.082zM21.96 8.56l-.542-1.676c-.104-.327-.376-.56-.704-.613L19.31 6.06l-.902-2.824c-.192-.604-.676-1.05-1.306-1.196-.596-.128-1.204.055-1.594.46L8.446 8.402 4.442 9.697c-.898.295-1.627.912-2.054 1.752-.427.84-.504 1.802-.22 2.703.498 1.537 1.975 2.529 3.554 2.445l1.24 3.865c.183.557.562 1.017 1.083 1.286.182.094.36.16.553.202.378.081.767.064 1.133-.06.562-.182 1.022-.573 1.29-1.096.259-.525.313-1.122.153-1.618l-.291-1.991.888-.288c.474-.156.727-.655.578-1.12l-.176-.547c.785-.023 2.705-.034 7.406.05.613.095 1.22-.125 1.615-.603.405-.475.53-1.104.345-1.696l-.812-2.519 1.01-.99c.236-.244.32-.596.223-.912z" transform="translate(-122 -110) translate(16 104) translate(88) translate(16 4)"/>
                        </g>
                    </g>
                </g>
            </g>
        </g>
    </g>
</svg>
