<svg width="18" height="18" viewBox="0 0 18 18" fill="none" xmlns="http://www.w3.org/2000/svg">
<path d="M15 13.3235C14.1096 12.7192 13.0665 12.3971 12 12.3971C10.9335 12.3971 9.8904 12.7192 9 13.3235C8.1096 13.9279 7.06652 14.25 6 14.25C4.93348 14.25 3.8904 13.9279 3 13.3235M15 9C14.1096 8.39566 13.0665 8.07353 12 8.07353C10.9335 8.07353 9.8904 8.39566 9 9C8.1096 9.60434 7.06652 9.92647 6 9.92647C4.93348 9.92647 3.8904 9.60434 3 9M15 4.67647C14.1096 4.07213 13.0665 3.75 12 3.75C10.9335 3.75 9.8904 4.07213 9 4.67647C8.1096 5.28081 7.06652 5.60294 6 5.60294C4.93348 5.60294 3.8904 5.28081 3 4.67647" stroke="#555A62" stroke-width="1.5" stroke-linecap="round" stroke-linejoin="round"/>
</svg>
