<svg width="18" height="18" viewBox="0 0 18 18" fill="none" xmlns="http://www.w3.org/2000/svg">
<path d="M10.125 5.625C9.88427 5.37223 9.75 5.03656 9.75 4.6875C9.75 4.33844 9.88427 4.00277 10.125 3.75C10.3657 3.49724 10.5 3.16156 10.5 2.8125C10.5 2.46344 10.3657 2.12776 10.125 1.875M7.5 5.625C7.25927 5.37223 7.125 5.03656 7.125 4.6875C7.125 4.33844 7.25927 4.00277 7.5 3.75C7.74073 3.49723 7.875 3.16156 7.875 2.8125C7.875 2.46344 7.74073 2.12777 7.5 1.875M4.875 5.625C4.63427 5.37224 4.5 5.03656 4.5 4.6875C4.5 4.33844 4.63427 4.00276 4.875 3.75C5.11573 3.49723 5.25 3.16156 5.25 2.8125C5.25 2.46344 5.11573 2.12777 4.875 1.875M3 7.875H12C12.1989 7.875 12.3897 7.95402 12.5303 8.09467C12.671 8.23532 12.75 8.42609 12.75 8.625V10.875C12.75 12.0685 12.2759 13.2131 11.432 14.057C10.5881 14.9009 9.44347 15.375 8.25 15.375H6.75C5.55653 15.375 4.41193 14.9009 3.56802 14.057C2.72411 13.2131 2.25 12.0685 2.25 10.875V8.625C2.25 8.42609 2.32902 8.23532 2.46967 8.09467C2.61032 7.95402 2.80109 7.875 3 7.875Z" stroke="#555A62" stroke-width="1.5" stroke-linecap="round" stroke-linejoin="round"/>
<path d="M12.0958 13.2112L13.4802 12.8944C14.1251 12.7468 14.7008 12.3848 15.1131 11.8674C15.5255 11.3501 15.75 10.7081 15.75 10.0465V10.0465C15.75 9.76135 15.6938 9.47898 15.5847 9.21552C15.4756 8.95205 15.3156 8.71267 15.114 8.51102C14.9123 8.30938 14.673 8.14943 14.4095 8.0403C14.146 7.93117 13.8637 7.875 13.5785 7.875H11.625" stroke="#555A62" stroke-width="1.5" stroke-linecap="round" stroke-linejoin="round"/>
</svg>
