<svg width="18" height="18" viewBox="0 0 18 18" fill="none" xmlns="http://www.w3.org/2000/svg">
<path d="M12.3758 10.3493V10.3493C12.992 10.4531 13.6215 10.448 14.2359 10.3343V10.3343C14.9011 10.1891 15.5581 10.6106 15.7034 11.2758C15.7736 11.5971 15.7124 11.9332 15.5335 12.2092V12.2092C15.3003 12.5475 15.0367 12.8638 14.746 13.1542V13.1542C14.4192 13.4794 14.0626 13.7731 13.6809 14.0316L12.3758 10.3493ZM3.80267 4.60471L3.80267 4.60471C4.07138 4.14571 4.39366 3.72026 4.76274 3.3373V3.3373C5.06717 3.02396 5.39846 2.73789 5.75282 2.48236H5.75282C6.31639 2.0952 7.08712 2.2382 7.47429 2.80177C7.66595 3.08075 7.73503 3.42604 7.66546 3.75728V3.75728C7.53403 4.49297 7.54933 5.24738 7.71046 5.97714L3.80267 4.60471ZM9.13843 7.66644L10.3327 8.86147V8.86147C10.7308 9.25991 10.8554 9.85615 10.6503 10.3807L8.90255 14.8499V14.8499C8.61605 15.5816 7.79066 15.9425 7.05899 15.656C7.05332 15.6537 7.04767 15.6515 7.04203 15.6492H7.04204C4.9117 14.7811 3.2218 13.0901 2.35511 10.9592V10.9592C2.05904 10.2304 2.40982 9.39964 3.13859 9.10358C3.14367 9.10152 3.14876 9.09948 3.15386 9.09748L7.62017 7.34865V7.34865C8.14443 7.14337 8.74051 7.26813 9.13844 7.66644L9.13843 7.66644Z" stroke="#555A62" stroke-width="1.5" stroke-linecap="round" stroke-linejoin="round"/>
<path d="M2.76759 9.32939V9.32939C2.46597 7.91249 2.5673 6.43942 3.06009 5.07717V5.07717C3.18664 4.7066 3.58943 4.50858 3.96016 4.63467L7.32043 5.77462V5.77462C7.80628 5.92822 8.16719 6.33815 8.25799 6.83955V6.83955C8.27874 6.98763 8.3139 7.13332 8.36299 7.27455M10.7257 9.64439V9.64439C10.9382 9.70915 11.1569 9.75188 11.3782 9.77189V9.77189C11.9269 9.83089 12.3919 10.2022 12.5708 10.7243L13.6584 13.9416V13.9416C13.7769 14.2993 13.596 14.6873 13.2458 14.8266V14.8266C11.7979 15.4251 10.2021 15.569 8.67049 15.2391L10.7257 9.64439Z" stroke="#555A62" stroke-width="1.5" stroke-linecap="round" stroke-linejoin="round"/>
</svg>
