<svg width="18" height="18" viewBox="0 0 18 18" fill="none" xmlns="http://www.w3.org/2000/svg">
<path d="M12.9749 15.75H5.0249C4.6109 15.75 4.2749 15.414 4.2749 15V3C4.2749 2.586 4.6109 2.25 5.0249 2.25H12.9749C13.3889 2.25 13.7249 2.586 13.7249 3V15C13.7249 15.414 13.3889 15.75 12.9749 15.75Z" stroke="#555A62" stroke-width="1.5" stroke-linecap="round" stroke-linejoin="round"/>
<path d="M10.8562 9.01883C11.8813 10.044 11.8813 11.706 10.8562 12.7311C9.83103 13.7563 8.16898 13.7563 7.14385 12.7311C6.11872 11.706 6.11872 10.044 7.14385 9.01883C8.16898 7.9937 9.83103 7.9937 10.8562 9.01883ZM9.19888 5.05113C9.30872 5.16096 9.30872 5.33904 9.19888 5.44887C9.08905 5.55871 8.91097 5.55871 8.80114 5.44887C8.6913 5.33904 8.6913 5.16096 8.80114 5.05113C8.91097 4.94129 9.08905 4.94129 9.19888 5.05113Z" stroke="#555A62" stroke-width="1.5" stroke-linecap="round" stroke-linejoin="round"/>
</svg>
