<svg width="18" height="18" viewBox="0 0 18 18" fill="none" xmlns="http://www.w3.org/2000/svg">
<path d="M12.75 9.3747V9.3747C11.5501 9.87502 10.2 9.87513 9 9.37502V9.37502C7.8 8.87491 6.44992 8.87503 5.25 9.37534M7.875 1.5H10.125V1.5C10.7463 1.5 11.25 2.00368 11.25 2.625V3C11.25 3.41421 10.9142 3.75 10.5 3.75H7.5V3.75C7.08579 3.75 6.75 3.41421 6.75 3V2.625V2.625C6.75 2.00368 7.25368 1.5 7.875 1.5V1.5Z" stroke="#555A62" stroke-width="1.5" stroke-linecap="round" stroke-linejoin="round"/>
<path d="M7.47725 3.74561V3.74561C7.42827 4.24363 7.2141 4.71095 6.86884 5.07318L6.09155 5.87837V5.87837C5.55171 6.43763 5.25001 7.18458 5.25 7.96188V14.2502V14.2502C5.25 15.0786 5.92157 15.7502 6.75 15.7502H11.25V15.7502C12.0784 15.7502 12.75 15.0786 12.75 14.2502V14.2502V7.96188V7.96191C12.75 7.18461 12.4483 6.43766 11.9085 5.8784L11.1312 5.07318V5.07318C10.7859 4.71095 10.5717 4.24364 10.5227 3.74562" stroke="#555A62" stroke-width="1.5" stroke-linecap="round" stroke-linejoin="round"/>
</svg>
