<?xml version="1.0" encoding="UTF-8"?>
<svg width="64px" height="64px" viewBox="0 0 64 64" version="1.1" xmlns="http://www.w3.org/2000/svg" xmlns:xlink="http://www.w3.org/1999/xlink">
    <title>Group 49 Copy 2</title>
    <g id="Page-1" stroke="none" stroke-width="1" fill="none" fill-rule="evenodd">
        <g id="Group-49-Copy-2">
            <rect id="Rectangle-Copy-109" fill-opacity="0" fill="#FFFFFF" x="0" y="0" width="64" height="64"></rect>
            <g id="Group-45" opacity="0.800000012" transform="translate(9.600000, 6.400000)" fill-rule="nonzero">
                <path d="M3.19240258,-1.40824986e-14 L30.3168413,-1.40824986e-14 L44.6939665,14.3213006 L44.6939665,47.8865342 C44.6939665,49.6502916 43.2638348,51.0789368 41.5015639,51.0789368 L3.19240258,51.0789368 C1.43013161,51.0789368 1.40824986e-14,49.6502916 1.40824986e-14,47.8865342 L1.40824986e-14,3.19240258 C1.40824986e-14,1.42864516 1.43029677,-1.40824986e-14 3.19240258,-1.40824986e-14 Z" id="Path" fill="#26A6D1"></path>
                <path d="M44.7022245,14.3658942 L33.5749781,14.3658942 C31.8127071,14.3658942 30.3825755,12.9357626 30.3825755,11.1734916 L30.3825755,0.031876129 L44.7022245,14.3658942 Z" id="Path" fill="#1E7EA0"></path>
                <path d="M13.0619972,32.1795709 C13.7249426,32.1795709 14.3274166,32.0899685 14.8694192,31.9107638 C15.4114218,31.7315591 15.8750357,31.464992 16.2602607,31.1110626 C16.6454857,30.7571333 16.9433632,30.3091214 17.1538931,29.7670271 C17.3644231,29.2249328 17.4696881,28.590996 17.4696881,27.8652168 C17.4696881,27.1573581 17.3599437,26.5391018 17.1404551,26.0104478 C16.9209664,25.4817938 16.6141302,25.0427422 16.2199464,24.6932929 C15.8257627,24.3438437 15.3487108,24.0817568 14.7887907,23.9070322 C14.2288706,23.7323075 13.6129586,23.6449452 12.9410545,23.6449452 C12.5916643,23.6449452 12.2221171,23.6606256 11.8324127,23.6919865 C11.4427083,23.7233473 11.0821198,23.7972693 10.7506471,23.9137523 C10.5893901,23.9675138 10.463968,24.0391957 10.3743808,24.128798 C10.2847936,24.2184004 10.24,24.3438437 10.24,24.505128 L10.24,24.505128 L10.24,31.0909021 C10.24,31.4672321 10.4550093,31.7360392 10.8850279,31.8973234 C11.0552436,31.9600451 11.2366577,32.0093264 11.4292702,32.0451673 C11.6218828,32.0810083 11.8144953,32.1101291 12.0071078,32.1325297 C12.1997203,32.1549303 12.3856137,32.1683706 12.5647882,32.1728507 C12.7439626,32.1773308 12.9096989,32.1795709 13.0619972,32.1795709 Z M13.0619972,30.7548932 C12.8738641,30.7548932 12.6834912,30.7481731 12.4908787,30.7347327 C12.2982662,30.7212923 12.1258108,30.6966517 11.9735126,30.6608107 L11.9735126,30.6608107 L11.9735126,25.1368247 C12.1258108,25.1189042 12.2848281,25.1032238 12.4505645,25.0897834 C12.6163008,25.0763431 12.8021943,25.0696229 13.0082449,25.0696229 C13.3934699,25.0696229 13.7495791,25.1256244 14.0765724,25.2376273 C14.4035657,25.3496303 14.6857654,25.5198748 14.9231715,25.7483608 C15.1605777,25.9768469 15.3464711,26.2680546 15.4808519,26.6219839 C15.6152328,26.9759133 15.6824232,27.3948044 15.6824232,27.8786572 C15.6824232,28.8284423 15.4539758,29.5452612 14.997081,30.029114 C14.5401862,30.5129668 13.8951583,30.7548932 13.0619972,30.7548932 Z M22.7374162,32.2064516 C23.319733,32.2064516 23.8617357,32.1146092 24.3634241,31.9309243 C24.8651125,31.7472395 25.2973708,31.4739522 25.660199,31.1110626 C26.0230272,30.7481731 26.3074666,30.2979211 26.5135172,29.7603069 C26.7195678,29.2226927 26.8225931,28.6044364 26.8225931,27.9055379 C26.8225931,27.2066394 26.7173281,26.5906231 26.5067981,26.057489 C26.2962682,25.5243549 26.0073494,25.0763431 25.6400419,24.7134535 C25.2727343,24.3505639 24.840476,24.0772767 24.3432669,23.8935918 C23.8460579,23.7099069 23.3107743,23.6180645 22.7374162,23.6180645 C22.164058,23.6180645 21.6287744,23.7099069 21.1315654,23.8935918 C20.6343563,24.0772767 20.202098,24.3505639 19.8347905,24.7134535 C19.4674829,25.0763431 19.1785641,25.5243549 18.9680342,26.057489 C18.7575042,26.5906231 18.6522393,27.2066394 18.6522393,27.9055379 C18.6522393,28.6044364 18.7552646,29.2226927 18.9613152,29.7603069 C19.1673657,30.2979211 19.4518051,30.7481731 19.8146334,31.1110626 C20.1774616,31.4739522 20.6097199,31.7472395 21.1114083,31.9309243 C21.6130966,32.1146092 22.1550993,32.2064516 22.7374162,32.2064516 Z M22.7374162,30.7683336 C22.0386359,30.7683336 21.4831952,30.5264072 21.071094,30.0425544 C20.6589928,29.5587016 20.4529422,28.8463628 20.4529422,27.9055379 C20.4529422,26.964713 20.6612325,26.2523742 21.077813,25.7685214 C21.4943936,25.2846686 22.0475946,25.0427422 22.7374162,25.0427422 C23.4361964,25.0427422 23.9938768,25.2869086 24.4104574,25.7752416 C24.8270379,26.2635745 25.0353282,26.9736732 25.0353282,27.9055379 C25.0353282,28.8463628 24.8270379,29.5587016 24.4104574,30.0425544 C23.9938768,30.5264072 23.4361964,30.7683336 22.7374162,30.7683336 Z M32.1843877,32.2064516 C32.6681587,32.2064516 33.0735408,32.1594104 33.4005341,32.0653279 C33.7275275,31.9712454 33.9806113,31.8704427 34.1597858,31.7629199 C34.3479189,31.6643573 34.4822997,31.5523543 34.5629282,31.426911 C34.6435567,31.3014677 34.683871,31.162584 34.683871,31.01026 C34.683871,30.8310552 34.6435567,30.672011 34.5629282,30.5331274 C34.4822997,30.3942437 34.3792744,30.2844808 34.2538523,30.2038387 C34.0209256,30.3561627 33.7544036,30.4883262 33.4542865,30.6003291 C33.1541693,30.7123321 32.7980601,30.7683336 32.385959,30.7683336 C31.5975915,30.7683336 30.970481,30.5308873 30.5046275,30.0559947 C30.038774,29.5811022 29.8058472,28.8687634 29.8058472,27.9189782 C29.8058472,26.9871136 30.032055,26.2747748 30.4844704,25.7819617 C30.9368858,25.2891487 31.5438392,25.0427422 32.3053305,25.0427422 C32.7263904,25.0427422 33.0802599,25.1054638 33.3669389,25.2309072 C33.653618,25.3563505 33.9134209,25.4952342 34.1463477,25.6475582 C34.2717698,25.5758763 34.3837538,25.4750736 34.4822997,25.3451502 C34.5808457,25.2152267 34.6301186,25.0606627 34.6301186,24.8814579 C34.6301186,24.7112134 34.571887,24.5499292 34.4554236,24.3976051 C34.3389602,24.2452811 34.1687445,24.1108775 33.9447765,23.9943945 C33.7208084,23.8779114 33.4520468,23.786069 33.1384915,23.7188672 C32.8249363,23.6516654 32.4755462,23.6180645 32.0903212,23.6180645 C31.5348804,23.6180645 31.0085556,23.712147 30.5113465,23.900312 C30.0141375,24.088477 29.5796395,24.3640042 29.2078526,24.7268938 C28.8360657,25.0897834 28.5426675,25.5377953 28.3276582,26.0709294 C28.1126489,26.6040635 28.0051443,27.2200798 28.0051443,27.9189782 C28.0051443,28.6447574 28.1126489,29.2764541 28.3276582,29.8140684 C28.5426675,30.3516826 28.8383053,30.7974544 29.2145716,31.1513837 C29.5908379,31.5053131 30.032055,31.7696401 30.5382227,31.9443647 C31.0443905,32.1190893 31.5931121,32.2064516 32.1843877,32.2064516 Z" id="DOC" fill="#FFFFFF"></path>
            </g>
        </g>
    </g>
</svg>