<?xml version="1.0" encoding="UTF-8"?>
<svg width="64px" height="64px" viewBox="0 0 64 64" version="1.1" xmlns="http://www.w3.org/2000/svg" xmlns:xlink="http://www.w3.org/1999/xlink">
    <title>Group 35</title>
    <defs>
        <path d="M8,10 C8.828,10 9.5,9.328 9.5,8.5 C9.5,7.672 8.828,7 8,7 C7.172,7 6.5,7.672 6.5,8.5 C6.5,9.328 7.172,10 8,10 M18,19 L6.561,19 L13.566,13.155 C13.812,12.946 14.258,12.947 14.499,13.154 L19,16.994 L19,18 C19,18.552 18.552,19 18,19 M6,5 L18,5 C18.552,5 19,5.448 19,6 L19,14.364 L15.797,11.632 C14.807,10.79 13.258,10.79 12.277,11.626 L5,17.698 L5,6 C5,5.448 5.448,5 6,5 M18,3 L6,3 C4.346,3 3,4.346 3,6 L3,18 C3,19.654 4.346,21 6,21 L18,21 C19.654,21 21,19.654 21,18 L21,6 C21,4.346 19.654,3 18,3" id="path-1"></path>
    </defs>
    <g id="Page-1" stroke="none" stroke-width="1" fill="none" fill-rule="evenodd">
        <g id="Group-35">
            <g id="Group-48-Copy-3">
                <rect id="Rectangle-Copy-110" fill-opacity="0" fill="#FFFFFF" x="0" y="0" width="64" height="64"></rect>
                <g id="Group-46-Copy-2" opacity="0.800000012" transform="translate(9.600000, 6.400000)" fill-rule="nonzero">
                    <path d="M3.19240258,-1.40824986e-14 L30.3168413,-1.40824986e-14 L44.6939665,14.3213006 L44.6939665,47.8865342 C44.6939665,49.6502916 43.2638348,51.0789368 41.5015639,51.0789368 L3.19240258,51.0789368 C1.43013161,51.0789368 1.40824986e-14,49.6502916 1.40824986e-14,47.8865342 L1.40824986e-14,3.19240258 C1.40824986e-14,1.42864516 1.43029677,-1.40824986e-14 3.19240258,-1.40824986e-14 Z" id="Path" fill="#55BD74"></path>
                    <path d="M44.6478865,14.3658942 L33.52064,14.3658942 C31.758369,14.3658942 30.3282374,12.9357626 30.3282374,11.1734916 L30.3282374,0.031876129 L44.6478865,14.3658942 Z" id="Path" fill="#3D9959"></path>
                </g>
            </g>
            <g id="27)-Icon/image" transform="translate(20.000000, 22.000000)">
                <mask id="mask-2" fill="white">
                    <use xlink:href="#path-1"></use>
                </mask>
                <use id="🎨-Icon-Сolor" fill="#FFFFFF" xlink:href="#path-1"></use>
            </g>
        </g>
    </g>
</svg>