<?xml version="1.0" encoding="UTF-8"?>
<svg width="64px" height="64px" viewBox="0 0 64 64" version="1.1" xmlns="http://www.w3.org/2000/svg" xmlns:xlink="http://www.w3.org/1999/xlink">
    <title>Group 48 Copy 2</title>
    <g id="Page-1" stroke="none" stroke-width="1" fill="none" fill-rule="evenodd">
        <g id="Group-48-Copy-2">
            <rect id="Rectangle-Copy-110" fill-opacity="0" fill="#FFFFFF" x="0" y="0" width="64" height="64"></rect>
            <g id="Group-46" opacity="0.800000012" transform="translate(9.600000, 6.400000)" fill-rule="nonzero">
                <path d="M3.19240258,-1.40824986e-14 L30.3168413,-1.40824986e-14 L44.6939665,14.3213006 L44.6939665,47.8865342 C44.6939665,49.6502916 43.2638348,51.0789368 41.5015639,51.0789368 L3.19240258,51.0789368 C1.43013161,51.0789368 1.40824986e-14,49.6502916 1.40824986e-14,47.8865342 L1.40824986e-14,3.19240258 C1.40824986e-14,1.42864516 1.43029677,-1.40824986e-14 3.19240258,-1.40824986e-14 Z" id="Path" fill="#E2574C"></path>
                <path d="M44.6478865,14.3658942 L33.52064,14.3658942 C31.758369,14.3658942 30.3282374,12.9357626 30.3282374,11.1734916 L30.3282374,0.031876129 L44.6478865,14.3658942 Z" id="Path" fill="#B53629"></path>
                <path d="M12.1101718,32.1117765 C12.2815467,32.1117765 12.4416469,32.0982515 12.5904725,32.0712014 C12.739298,32.0441514 12.8542996,32.0216097 12.9354772,32.0035763 L12.9354772,32.0035763 L12.9354772,29.2850475 L13.9907856,29.2850475 C15.1002125,29.2850475 15.9480672,29.0280721 16.5343497,28.5141214 C17.1206322,28.0001707 17.4137734,27.3103947 17.4137734,26.4447935 C17.4137734,25.5791923 17.1138674,24.8916705 16.5140553,24.3822281 C15.9142432,23.8727857 15.0190349,23.6180645 13.8284305,23.6180645 C13.6570556,23.6180645 13.476661,23.6225729 13.2872467,23.6315895 C13.0978323,23.6406062 12.908418,23.6563854 12.7190036,23.6789271 C12.5295893,23.7014688 12.3469397,23.730773 12.171055,23.7668397 C11.9951702,23.8029064 11.83507,23.8434815 11.6907543,23.8885649 C11.5283992,23.942665 11.4021229,24.0147984 11.3119256,24.1049652 C11.2217283,24.195132 11.1766297,24.3258738 11.1766297,24.4971908 L11.1766297,24.4971908 L11.1766297,31.2867503 C11.1766297,31.5843007 11.2465326,31.7961927 11.3863384,31.9224262 C11.5261442,32.0486597 11.767422,32.1117765 12.1101718,32.1117765 Z M13.8825489,27.8784455 L12.9219476,27.8784455 L12.9219476,25.1193416 C13.1925395,25.0652416 13.5217596,25.0381915 13.9096081,25.0381915 C14.4688314,25.0381915 14.8950136,25.1554083 15.1881549,25.389842 C15.4812961,25.6242757 15.6278668,25.9759262 15.6278668,26.4447935 C15.6278668,26.9316942 15.4722764,27.2923614 15.1610957,27.526795 C14.849915,27.7612287 14.4237327,27.8784455 13.8825489,27.8784455 L13.8825489,27.8784455 Z M21.7838329,32.2064516 C22.451293,32.2064516 23.0578699,32.1162848 23.6035636,31.9359512 C24.1492573,31.7556176 24.6160284,31.4873714 25.0038768,31.1312126 C25.3917252,30.7750538 25.6916312,30.3242198 25.9035949,29.7787107 C26.1155586,29.2332016 26.2215404,28.5952715 26.2215404,27.8649205 C26.2215404,27.1526028 26.1110487,26.530452 25.8900653,25.9984679 C25.6690819,25.4664838 25.3601561,25.0246665 24.963288,24.673016 C24.5664198,24.3213655 24.0861192,24.0576276 23.522386,23.8818024 C22.9586529,23.7059771 22.3385464,23.6180645 21.6620666,23.6180645 C21.3102971,23.6180645 20.9382332,23.6338437 20.5458749,23.6654021 C20.1535166,23.6969605 19.7904725,23.7713481 19.4567424,23.8885649 C19.2943873,23.942665 19.168111,24.0147984 19.0779137,24.1049652 C18.9877164,24.195132 18.9426178,24.3213655 18.9426178,24.4836657 L18.9426178,24.4836657 L18.9426178,31.1109251 C18.9426178,31.4896256 19.1590913,31.760126 19.5920384,31.9224262 C19.7634133,31.985543 19.9460628,32.0351347 20.139987,32.0712014 C20.3339112,32.1072681 20.5278354,32.1365723 20.7217596,32.159114 C20.9156839,32.1816557 21.1028433,32.1951808 21.2832379,32.1996891 C21.4636325,32.2041974 21.6304975,32.2064516 21.7838329,32.2064516 Z M21.7838329,30.7727996 C21.5944186,30.7727996 21.4027493,30.7660371 21.2088251,30.7525121 C21.0149009,30.738987 20.8412711,30.7141912 20.6879357,30.6781245 L20.6879357,30.6781245 L20.6879357,25.1193416 C20.8412711,25.1013083 21.0013713,25.0855291 21.1682363,25.0720041 C21.3351013,25.058479 21.5222607,25.0517165 21.7297146,25.0517165 C22.117563,25.0517165 22.4760973,25.1080708 22.8053174,25.2207793 C23.1345376,25.3334878 23.4186591,25.5048047 23.657682,25.73473 C23.8967048,25.9646553 24.0838643,26.2576974 24.2191602,26.6138562 C24.3544562,26.9700151 24.4221042,27.3915448 24.4221042,27.8784455 C24.4221042,28.8342135 24.192101,29.5555479 23.7320948,30.0424486 C23.2720885,30.5293493 22.6226679,30.7727996 21.7838329,30.7727996 Z M28.8056933,32.1117765 C28.9680484,32.1117765 29.1236388,32.0982515 29.2724643,32.0712014 C29.4212899,32.0441514 29.5362914,32.0216097 29.617469,32.0035763 L29.617469,32.0035763 L29.617469,28.7981468 L32.3910362,28.7981468 C32.5804505,28.7981468 32.731531,28.7372842 32.8442777,28.6155591 C32.9570243,28.4938339 33.0133976,28.3112461 33.0133976,28.0677958 C33.0133976,27.9235289 32.9931032,27.7927871 32.9525144,27.6755702 C32.9119256,27.5583534 32.8690819,27.4636783 32.8239833,27.3915448 L32.8239833,27.3915448 L29.5904098,27.3915448 L29.5904098,25.2410668 L32.8510425,25.2410668 C33.0404568,25.2410668 33.1915373,25.17795 33.3042839,25.0517165 C33.4170306,24.925483 33.4734039,24.7406411 33.4734039,24.4971908 C33.4734039,24.3529239 33.4531095,24.2199279 33.4125207,24.0982027 C33.3719319,23.9764775 33.3290882,23.8795482 33.2839895,23.8074148 L33.2839895,23.8074148 L28.7921637,23.8074148 C28.5035323,23.8074148 28.2757841,23.8908191 28.1089191,24.0576276 C27.942054,24.2244362 27.8586215,24.4521074 27.8586215,24.7406411 L27.8586215,24.7406411 L27.8586215,31.2867503 C27.8586215,31.5843007 27.9307794,31.7961927 28.0750951,31.9224262 C28.2194108,32.0486597 28.4629435,32.1117765 28.8056933,32.1117765 Z" id="PDF" fill="#FFFFFF"></path>
            </g>
        </g>
    </g>
</svg>