<?xml version="1.0" encoding="UTF-8"?>
<svg width="64px" height="64px" viewBox="0 0 64 64" version="1.1" xmlns="http://www.w3.org/2000/svg" xmlns:xlink="http://www.w3.org/1999/xlink">
    <title>Group 51 Copy</title>
    <g id="Page-1" stroke="none" stroke-width="1" fill="none" fill-rule="evenodd">
        <g id="Group-51-Copy">
            <rect id="Rectangle" fill-opacity="0" fill="#FFFFFF" x="0" y="0" width="64" height="64"></rect>
            <g id="Group-50" opacity="0.800000012" transform="translate(9.600000, 6.400000)" fill-rule="nonzero">
                <path d="M3.19240258,-1.40824986e-14 L30.3168413,-1.40824986e-14 L44.6939665,14.3213006 L44.6939665,47.8865342 C44.6939665,49.6502916 43.2638348,51.0789368 41.5015639,51.0789368 L3.19240258,51.0789368 C1.43013161,51.0789368 1.40824986e-14,49.6502916 1.40824986e-14,47.8865342 L1.40824986e-14,3.19240258 C1.40824986e-14,1.42864516 1.43029677,-1.40824986e-14 3.19240258,-1.40824986e-14 Z" id="Path" fill="#F47F59"></path>
                <path d="M44.6478865,14.3658942 L33.52064,14.3658942 C31.758369,14.3658942 30.3282374,12.9357626 30.3282374,11.1734916 L30.3282374,0.031876129 L44.6478865,14.3658942 Z" id="Path" fill="#F47F59"></path>
                <path d="M44.6478865,14.3658942 L33.52064,14.3658942 C31.758369,14.3658942 30.3282374,12.9357626 30.3282374,11.1734916 L30.3282374,0.031876129 L44.6478865,14.3658942 Z" id="Path" fill-opacity="0.3" fill="#000000"></path>
                <path d="M12.3428182,32.2064516 C12.5166065,32.2064516 12.6789614,32.1927758 12.8298829,32.1654243 C12.9808043,32.1380727 13.0974254,32.1152798 13.1797462,32.0970454 L13.1797462,32.0970454 L13.1797462,29.3482145 L14.2499166,29.3482145 C15.3749674,29.3482145 16.2347624,29.0883748 16.8293014,28.5686953 C17.4238405,28.0490158 17.7211101,27.3515513 17.7211101,26.4763016 C17.7211101,25.601052 17.4169805,24.9058667 16.8087212,24.3907458 C16.200462,23.875625 15.2926466,23.6180645 14.085275,23.6180645 C13.9114866,23.6180645 13.7285515,23.6226231 13.5364697,23.6317403 C13.3443878,23.6408575 13.152306,23.6568125 12.9602241,23.6796055 C12.7681423,23.7023985 12.5829205,23.7320293 12.4045588,23.768498 C12.226197,23.8049668 12.0638421,23.8459941 11.9174941,23.89158 C11.7528525,23.9462831 11.6247979,24.0192206 11.5333304,24.1103924 C11.4418628,24.2015643 11.396129,24.3337634 11.396129,24.5069899 L11.396129,24.5069899 L11.396129,31.3722293 C11.396129,31.6730964 11.4670164,31.8873502 11.6087911,32.0149908 C11.7505658,32.1426313 11.9952415,32.2064516 12.3428182,32.2064516 Z M14.1401555,27.9259338 L13.1660261,27.9259338 L13.1660261,25.1360756 C13.4404288,25.0813725 13.7742853,25.054021 14.1675958,25.054021 C14.7346946,25.054021 15.1668787,25.1725443 15.4641483,25.4095911 C15.7614178,25.6466379 15.9100526,26.0022081 15.9100526,26.4763016 C15.9100526,26.9686295 15.7522711,27.3333169 15.436708,27.5703637 C15.121145,27.8074105 14.6889608,27.9259338 14.1401555,27.9259338 L14.1401555,27.9259338 Z M20.2181741,32.2064516 C20.3919625,32.2064516 20.5543174,32.1927758 20.7052388,32.1654243 C20.8561603,32.1380727 20.9727814,32.1152798 21.0551022,32.0970454 L21.0551022,32.0970454 L21.0551022,29.3482145 L22.1252725,29.3482145 C23.2503234,29.3482145 24.1101184,29.0883748 24.7046574,28.5686953 C25.2991965,28.0490158 25.596466,27.3515513 25.596466,26.4763016 C25.596466,25.601052 25.2923364,24.9058667 24.6840772,24.3907458 C24.075818,23.875625 23.1680026,23.6180645 21.960631,23.6180645 C21.7868426,23.6180645 21.6039075,23.6226231 21.4118257,23.6317403 C21.2197438,23.6408575 21.027662,23.6568125 20.8355801,23.6796055 C20.6434982,23.7023985 20.4582765,23.7320293 20.2799147,23.768498 C20.101553,23.8049668 19.9391981,23.8459941 19.79285,23.89158 C19.6282084,23.9462831 19.5001539,24.0192206 19.4086863,24.1103924 C19.3172188,24.2015643 19.271485,24.3337634 19.271485,24.5069899 L19.271485,24.5069899 L19.271485,31.3722293 C19.271485,31.6730964 19.3423724,31.8873502 19.4841471,32.0149908 C19.6259218,32.1426313 19.8705975,32.2064516 20.2181741,32.2064516 Z M22.0155115,27.9259338 L21.0413821,27.9259338 L21.0413821,25.1360756 C21.3157847,25.0813725 21.6496413,25.054021 22.0429517,25.054021 C22.6100505,25.054021 23.0422347,25.1725443 23.3395043,25.4095911 C23.6367738,25.6466379 23.7854086,26.0022081 23.7854086,26.4763016 C23.7854086,26.9686295 23.627627,27.3333169 23.312064,27.5703637 C22.9965009,27.8074105 22.5643168,27.9259338 22.0155115,27.9259338 L22.0155115,27.9259338 Z M29.8359869,32.2064516 C30.0006285,32.2064516 30.1606967,32.1927758 30.3161916,32.1654243 C30.4716864,32.1380727 30.5860208,32.1152798 30.6591949,32.0970454 L30.6591949,32.0970454 L30.6591949,25.2591576 L32.5525731,25.2591576 C32.7538017,25.2591576 32.9115833,25.1953373 33.0259177,25.0676967 C33.1402521,24.9400562 33.1974194,24.7531539 33.1974194,24.5069899 C33.1974194,24.361115 33.1768392,24.2266365 33.1356788,24.1035546 C33.0945184,23.9804726 33.0510713,23.8824628 33.0053375,23.8095254 L33.0053375,23.8095254 L27.0233598,23.8095254 C26.8221312,23.8095254 26.6643497,23.8710664 26.5500152,23.9941483 C26.4356808,24.1172303 26.3785136,24.3064119 26.3785136,24.561693 C26.3785136,24.707568 26.3990938,24.8397671 26.4402542,24.9582905 C26.4814146,25.0768139 26.5248616,25.1771029 26.5705954,25.2591576 L26.5705954,25.2591576 L28.8755777,25.2591576 L28.8755777,31.3722293 C28.8755777,31.6730964 28.9487517,31.8873502 29.0950998,32.0149908 C29.2414479,32.1426313 29.4884102,32.2064516 29.8359869,32.2064516 Z" id="PPT" fill="#FFFFFF"></path>
            </g>
        </g>
    </g>
</svg>