<?xml version="1.0" encoding="UTF-8"?>
<svg width="64px" height="64px" viewBox="0 0 64 64" version="1.1" xmlns="http://www.w3.org/2000/svg" xmlns:xlink="http://www.w3.org/1999/xlink">
    <title>Group 47 Copy 3</title>
    <g id="Page-1" stroke="none" stroke-width="1" fill="none" fill-rule="evenodd">
        <g id="Group-47-Copy-3">
            <rect id="Rectangle-Copy-105" fill-opacity="0" fill="#FFFFFF" x="0" y="0" width="64" height="64"></rect>
            <g id="Group-44" opacity="0.800000012" transform="translate(9.600000, 6.400000)" fill-rule="nonzero">
                <path d="M3.19240258,-1.40824986e-14 L30.3168413,-1.40824986e-14 L44.6939665,14.3213006 L44.6939665,47.8865342 C44.6939665,49.6502916 43.2638348,51.0789368 41.5015639,51.0789368 L3.19240258,51.0789368 C1.43013161,51.0789368 1.40824986e-14,49.6502916 1.40824986e-14,47.8865342 L1.40824986e-14,3.19240258 C1.40824986e-14,1.42864516 1.43029677,-1.40824986e-14 3.19240258,-1.40824986e-14 Z" id="Path" fill="#3DB39E"></path>
                <path d="M44.7022245,14.3658942 L33.5749781,14.3658942 C31.8127071,14.3658942 30.3825755,12.9357626 30.3825755,11.1734916 L30.3825755,0.031876129 L44.7022245,14.3658942 Z" id="Path" fill="#2F8A78"></path>
                <path d="M17.9190508,32.0989288 C18.204796,32.0989288 18.4324992,32.0250068 18.6021604,31.8771629 C18.7718216,31.729319 18.8879056,31.5299537 18.9504124,31.2790671 L18.9504124,31.2790671 L16.48586,27.8517765 C16.7983938,27.457526 17.1064629,27.0677557 17.4100672,26.6824655 C17.7136714,26.2971754 18.0128109,25.9118852 18.3074857,25.526595 C18.4592878,25.3294698 18.5798366,25.1592253 18.669132,25.0158615 C18.7584273,24.8724977 18.803075,24.7112134 18.803075,24.5320087 C18.803075,24.316963 18.7204768,24.1377583 18.5552804,23.9943945 C18.3900839,23.8510307 18.1601483,23.7793488 17.8654736,23.7793488 C17.6600942,23.7793488 17.4993625,23.8017494 17.3832785,23.8465506 L17.3832785,23.8465506 L15.4277098,26.6555848 L13.9275475,24.4244858 C13.7757453,24.1915197 13.6239432,24.0212752 13.4721411,23.9137523 C13.3203389,23.8062295 13.1462129,23.7524681 12.9497631,23.7524681 C12.6640179,23.7524681 12.4318499,23.8375903 12.2532592,24.0078348 C12.0746684,24.1780793 11.9541197,24.3662443 11.8916129,24.5723297 L11.8916129,24.5723297 L14.2490108,27.8652168 L12.3872022,30.2844808 C12.2354001,30.481606 12.1170837,30.6540906 12.0322531,30.8019345 C11.9474225,30.9497784 11.9050072,31.1177828 11.9050072,31.3059478 C11.9050072,31.538914 11.9943026,31.729319 12.1728933,31.8771629 C12.3514841,32.0250068 12.6104407,32.0989288 12.9497631,32.0989288 C13.0033403,32.0989288 13.0591499,32.0966887 13.1171919,32.0922086 C13.1752339,32.0877285 13.2310435,32.0810083 13.2846208,32.0720481 L13.2846208,32.0720481 L15.3607383,29.0479681 L16.9546607,31.426911 C17.1064629,31.6688374 17.2538002,31.841322 17.3966728,31.9443647 C17.5395454,32.0474074 17.7136714,32.0989288 17.9190508,32.0989288 Z M25.1787649,32.0182866 C25.3752147,32.0182866 25.5292492,31.9533249 25.6408685,31.8234015 C25.7524877,31.693478 25.8082973,31.5075531 25.8082973,31.2656267 C25.8082973,31.1222629 25.7859734,30.9900994 25.7413258,30.8691363 C25.6966781,30.7481731 25.6520304,30.6518505 25.6073827,30.5801686 L25.6073827,30.5801686 L22.1650459,30.5801686 L22.1650459,24.545449 C22.1650459,24.2318407 22.0891449,24.0167951 21.9373427,23.900312 C21.7855406,23.7838289 21.5489078,23.7255874 21.2274445,23.7255874 C21.0756423,23.7255874 20.9216078,23.7390277 20.7653409,23.7659084 C20.609074,23.7927891 20.4952224,23.8151897 20.4237861,23.8331102 L20.4237861,23.8331102 L20.4237861,31.0774618 C20.4237861,31.3641893 20.5063843,31.5926754 20.6715808,31.7629199 C20.8367772,31.9331644 21.062248,32.0182866 21.3479932,32.0182866 L21.3479932,32.0182866 L25.1787649,32.0182866 Z M29.6256746,32.2064516 C30.1435878,32.2064516 30.6056914,32.14597 31.0119853,32.0250068 C31.4182793,31.9040436 31.7576017,31.7337991 32.0299526,31.5142733 C32.3023035,31.2947475 32.5099153,31.0326606 32.6527879,30.7280125 C32.7956605,30.4233645 32.8670968,30.0873556 32.8670968,29.7199859 C32.8670968,29.0300476 32.6527879,28.4834732 32.2241701,28.0802625 C31.7955523,27.6770518 31.1928085,27.3589634 30.4159387,27.1259973 L30.4159387,27.1259973 L29.6524632,26.8840709 C29.2952817,26.7675878 29.0340928,26.6466246 28.8688963,26.5211813 C28.7036999,26.395738 28.6211016,26.2165332 28.6211016,25.9835671 C28.6211016,25.6968395 28.7416504,25.4705935 28.9827479,25.3048291 C29.2238454,25.1390647 29.5765622,25.0561825 30.0408981,25.0561825 C30.4605864,25.0561825 30.8467889,25.112184 31.1995056,25.224187 C31.5522224,25.3361899 31.8357352,25.4683534 32.0500441,25.6206775 C32.1750576,25.5400353 32.2799797,25.4347526 32.3648103,25.3048291 C32.4496409,25.1749057 32.4920562,25.0203416 32.4920562,24.8411369 C32.4920562,24.6529719 32.427317,24.4827274 32.2978388,24.3304034 C32.1683605,24.1780793 31.9875373,24.0503959 31.7553693,23.9473532 C31.5232014,23.8443105 31.2486181,23.7636684 30.9316195,23.7054268 C30.6146209,23.6471853 30.2686013,23.6180645 29.8935607,23.6180645 C28.9470298,23.6180645 28.2014134,23.8308701 27.6567116,24.2564814 C27.1120098,24.6820927 26.8396589,25.2577879 26.8396589,25.9835671 C26.8396589,26.3240561 26.8932361,26.6175038 27.0003906,26.8639103 C27.107545,27.1103169 27.2593471,27.3253625 27.455797,27.5090474 C27.6522468,27.6927323 27.8888796,27.8517765 28.1656952,27.98618 C28.4425109,28.1205836 28.7505799,28.2415468 29.0899024,28.3490696 L29.0899024,28.3490696 L29.947138,28.6178767 C30.3311081,28.7343598 30.6168533,28.8754835 30.8043736,29.0412479 C30.9918939,29.2070123 31.085654,29.4287782 31.085654,29.7065455 C31.085654,30.0111936 30.9651053,30.2643203 30.7240077,30.4659256 C30.4829102,30.6675309 30.1034049,30.7683336 29.5854917,30.7683336 C29.0943671,30.7683336 28.6657493,30.6854514 28.2996383,30.519687 C27.9335272,30.3539226 27.6388525,30.1724778 27.4156141,29.9753526 C27.2548824,30.0470345 27.1142422,30.1567974 26.9936934,30.3046413 C26.8731446,30.4524852 26.8128703,30.6294499 26.8128703,30.8355354 C26.8128703,31.0326606 26.8820742,31.2141054 27.020482,31.3798698 C27.1588899,31.5456341 27.3531073,31.6889979 27.6031343,31.8099611 C27.8531614,31.9309243 28.1500685,32.0272469 28.4938557,32.0989288 C28.8376429,32.1706107 29.2149159,32.2064516 29.6256746,32.2064516 Z" id="XLS" fill="#FFFFFF"></path>
            </g>
        </g>
    </g>
</svg>