<svg xmlns="http://www.w3.org/2000/svg" width="24" height="24" viewBox="0 0 24 24">
    <g fill="none" fill-rule="evenodd">
        <g fill="#678189">
            <g>
                <g>
                    <path d="M9.293 21c-1.655 0-3.23-.666-4.431-1.875-2.389-2.403-2.486-6.213-.22-8.494l7.386-7.43C12.798 2.427 13.835 2 14.95 2c1.194 0 2.328.479 3.192 1.349 1.721 1.731 1.788 4.482.146 6.132l-7.395 7.429c-.479.483-1.123.748-1.816.748-.73 0-1.423-.292-1.95-.821-1.053-1.061-1.085-2.752-.072-3.772L13.88 6.21c.39-.392 1.021-.394 1.413-.004.392.39.394 1.023.004 1.414l-6.825 6.856c-.24.242-.207.669.075.951.146.147.34.231.53.231.11 0 .268-.027.399-.158l7.394-7.429c.867-.873.802-2.358-.146-3.312-.906-.912-2.446-.984-3.277-.148l-7.386 7.43c-1.495 1.503-1.396 4.049.22 5.674C7.104 18.544 8.174 19 9.293 19c1 0 1.928-.378 2.61-1.064l7.387-7.43c.39-.391 1.023-.394 1.415-.004.39.39.393 1.022.003 1.414l-7.386 7.43C12.262 20.412 10.83 21 9.293 21" transform="translate(-645 -597) translate(133 61) translate(512 536)"/>
                </g>
            </g>
        </g>
    </g>
</svg>
