<?xml version="1.0" encoding="UTF-8"?>
<svg width="20px" height="20px" viewBox="0 0 20 20" version="1.1" xmlns="http://www.w3.org/2000/svg" xmlns:xlink="http://www.w3.org/1999/xlink">
    <title>icon/ bookmark</title>
    <defs>
        <path d="M11.971,2.0001 C12.766,2.0121 13.576,2.0921 14.352,2.2781 C14.888,2.4081 15.219,2.9481 15.089,3.4851 C14.96,4.0211 14.417,4.3511 13.883,4.2231 C13.262,4.0731 12.603,4.0101 11.977,4.0001 C9.84,4.0061 7.833,4.8441 6.327,6.3591 C4.82,7.8741 3.994,9.8861 4,12.0231 C4.006,14.1601 4.844,16.1661 6.359,17.6731 C7.869,19.1741 9.871,20.0001 12,20.0001 L12,20.0001 L12.023,20.0001 C14.16,19.9941 16.167,19.1561 17.673,17.6411 C19.18,16.1251 20.006,14.1141 20,11.9771 C19.999,11.4251 20.445,10.9751 20.997,10.9741 L20.997,10.9741 C21.551,10.9741 21.999,11.4201 22.0000461,11.9711 C22.008,14.6421 20.975,17.1571 19.091,19.0511 C17.208,20.9451 14.7,21.9921 12.029,22.0001 L12.029,22.0001 L12,22.0001 C9.339,22.0001 6.836,20.9681 4.949,19.0911 C3.055,17.2081 2.008,14.7001 1.99995388,12.0291 C1.992,9.3571 3.025,6.8431 4.909,4.9491 C6.792,3.0551 9.3,2.0081 11.971,2.0001 Z M18.248,6.341 C18.612,5.928 19.243,5.884 19.659,6.248 C20.074,6.611 20.116,7.243 19.752,7.659 L19.752,7.659 L12.752,15.659 C12.57,15.867 12.31,15.99 12.033,16 L12.033,16 L12,16 C11.735,16 11.481,15.895 11.293,15.707 L11.293,15.707 L8.293,12.707 C7.902,12.316 7.902,11.684 8.293,11.293 C8.684,10.902 9.316,10.902 9.707,11.293 L9.707,11.293 L11.951,13.537 Z" id="path-1"></path>
    </defs>
    <g id="Page-1" stroke="none" stroke-width="1" fill="none" fill-rule="evenodd">
        <g id="Amenities" transform="translate(-138.000000, -342.000000)">
            <g id="Group-147" transform="translate(16.000000, 192.000000)">
                <g id="icon/-bookmark" transform="translate(120.000000, 148.000000)">
                    <mask id="mask-2" fill="white">
                        <use xlink:href="#path-1"></use>
                    </mask>
                    <use id="🎨-Icon-Сolor" fill="#000" xlink:href="#path-1"></use>
                </g>
            </g>
        </g>
    </g>
</svg>