<svg width="16" height="16" viewBox="0 0 16 16" fill="none" xmlns="http://www.w3.org/2000/svg">
<path d="M12.789 8.21844H9.49183V5.04553C9.49183 5.00684 9.4868 4.96941 9.4782 4.93337C9.88252 4.54484 10.135 3.99934 10.135 3.39563C10.135 2.91322 9.8382 2.23697 9.2278 1.32825C8.80692 0.701688 8.39192 0.197187 8.37449 0.176031C8.28258 0.0645625 8.1457 0 8.0012 0C7.8567 0 7.71983 0.0645625 7.62792 0.176C7.61048 0.197156 7.19552 0.701687 6.77461 1.32822C6.1642 2.23694 5.86745 2.91319 5.86745 3.39559C5.86745 3.99928 6.11986 4.54478 6.5242 4.93334C6.51561 4.96941 6.51058 5.00681 6.51058 5.0455V8.21844H3.21339C2.21367 8.21844 1.40039 9.03172 1.40039 10.0314V15.5161C1.40039 15.7833 1.61705 16 1.88427 16H14.1182C14.3854 16 14.6021 15.7833 14.6021 15.5161V11.5643V10.0314C14.602 9.03178 13.7888 8.21844 12.789 8.21844ZM8.0012 1.26972C8.56136 2.02184 9.1672 2.98791 9.1672 3.39563C9.1672 4.03859 8.64414 4.56166 8.0012 4.56166C7.35827 4.56166 6.8352 4.03859 6.8352 3.39563C6.8352 2.98791 7.44108 2.02181 8.0012 1.26972ZM8.52408 5.52938V8.21844H7.47833V5.52938H8.52408ZM2.36817 10.0314C2.36811 9.56538 2.7473 9.18619 3.21336 9.18619H6.99445H9.00792H12.789C13.2551 9.18619 13.6343 9.56538 13.6343 10.0314V11.3258C13.261 11.584 12.815 11.7245 12.3578 11.7245C11.6478 11.7245 10.9946 11.3989 10.5657 10.8312C10.4743 10.7101 10.3314 10.6389 10.1796 10.6389C10.0279 10.6389 9.88499 10.7101 9.79355 10.8312C9.3647 11.3989 8.71139 11.7245 8.00117 11.7245C7.29117 11.7245 6.63802 11.3989 6.20917 10.8312C6.11773 10.7101 5.9748 10.6389 5.82308 10.6389C5.67136 10.6389 5.52842 10.7101 5.43699 10.8312C5.00811 11.3989 4.35483 11.7245 3.64461 11.7245C3.18686 11.7245 2.7412 11.584 2.3682 11.3258V10.0314H2.36817ZM2.36811 15.0323V12.4277C2.76808 12.6008 3.20245 12.6923 3.64452 12.6923C4.46627 12.6923 5.23464 12.3878 5.82298 11.8421C6.41127 12.3878 7.17958 12.6923 8.00111 12.6923C8.82289 12.6923 9.59127 12.3878 10.1796 11.8421C10.7679 12.3878 11.5362 12.6923 12.3578 12.6923C12.7994 12.6923 13.2338 12.6008 13.6343 12.4273V15.0323H2.36811Z" fill="black"/>
</svg>
