<svg width="66" height="57" viewBox="0 0 66 57" fill="none" xmlns="http://www.w3.org/2000/svg">
<circle opacity="0.2" cx="32" cy="25" r="24" fill="white"/>
<g filter="url(#filter0_d_2519:3583)">
<path d="M19.394 18.6666C19.394 16.9864 19.394 16.1463 19.721 15.5046C20.0086 14.9401 20.4676 14.4812 21.0321 14.1936C21.6738 13.8666 22.5139 13.8666 24.194 13.8666H39.151C40.8311 13.8666 41.6712 13.8666 42.313 14.1936C42.8774 14.4812 43.3364 14.9401 43.624 15.5046C43.951 16.1463 43.951 16.9864 43.951 18.6666V30.9999C43.951 33.8002 43.951 35.2003 43.406 36.2699C42.9267 37.2107 42.1618 37.9756 41.2209 38.4549C40.1514 38.9999 38.7513 38.9999 35.951 38.9999H24.194C22.5139 38.9999 21.6738 38.9999 21.0321 38.6729C20.4676 38.3853 20.0086 37.9264 19.721 37.3619C19.394 36.7201 19.394 35.8801 19.394 34.1999V18.6666Z" fill="white"/>
<path d="M19.394 18.6666C19.394 16.9864 19.394 16.1463 19.721 15.5046C20.0086 14.9401 20.4676 14.4812 21.0321 14.1936C21.6738 13.8666 22.5139 13.8666 24.194 13.8666H39.151C40.8311 13.8666 41.6712 13.8666 42.313 14.1936C42.8774 14.4812 43.3364 14.9401 43.624 15.5046C43.951 16.1463 43.951 16.9864 43.951 18.6666V30.9999C43.951 33.8002 43.951 35.2003 43.406 36.2699C42.9267 37.2107 42.1618 37.9756 41.2209 38.4549C40.1514 38.9999 38.7513 38.9999 35.951 38.9999H24.194C22.5139 38.9999 21.6738 38.9999 21.0321 38.6729C20.4676 38.3853 20.0086 37.9264 19.721 37.3619C19.394 36.7201 19.394 35.8801 19.394 34.1999V18.6666Z" stroke="#BCC1D3" stroke-width="0.5"/>
</g>
<g filter="url(#filter1_d_2519:3583)">
<path d="M35.9107 35.9517H18.866C17.9358 35.9517 17.1816 35.215 17.1816 34.3061V13.901C17.1816 12.9922 17.9358 12.2554 18.866 12.2554H40.4825C41.4127 12.2554 42.1668 12.9922 42.1668 13.901V29.8397C42.1668 30.2761 41.1486 30.6946 40.8327 31.0033L37.1017 34.6483C36.7859 34.9569 36.3574 35.9517 35.9107 35.9517Z" fill="white"/>
<path d="M35.9107 35.9517H18.866C17.9358 35.9517 17.1816 35.215 17.1816 34.3061V13.901C17.1816 12.9922 17.9358 12.2554 18.866 12.2554H40.4825C41.4127 12.2554 42.1668 12.9922 42.1668 13.901V29.8397C42.1668 30.2761 41.1486 30.6946 40.8327 31.0033L37.1017 34.6483C36.7859 34.9569 36.3574 35.9517 35.9107 35.9517Z" stroke="#BCC1D3" stroke-width="0.5"/>
</g>
<path d="M35.2122 35.9837C35.9744 35.9837 36.5922 35.3801 36.5922 34.6355V31.8939C36.5922 31.1493 37.2101 30.5457 37.9723 30.5457H40.7785C41.5407 30.5457 42.1586 29.9421 42.1586 29.1974V29.8641C42.1586 30.3005 41.9811 30.719 41.6652 31.0277L37.0855 35.5018C36.7696 35.8104 36.3412 35.9838 35.8945 35.9838H35.2122V35.9837Z" fill="#BCC1D3"/>
<path d="M42.1665 13.9299V18.1563H17.1816V13.9299C17.1816 13.0231 17.9344 12.2871 18.8632 12.2871H40.4849C41.4137 12.2871 42.1665 13.0231 42.1665 13.9299Z" fill="#9562FF"/>
<g style="mix-blend-mode:multiply" opacity="0.5">
<path d="M21.943 15.1551C21.6223 15.1551 21.35 15.1549 21.1179 15.1549C20.4128 15.1549 19.8394 14.5947 19.8394 13.9064V12.2877H20.6801V13.9064C20.6801 14.1419 20.8763 14.3335 21.1179 14.3335C21.35 14.3335 22.1751 15.1551 21.943 15.1551Z" fill="#9562FF"/>
</g>
<g style="mix-blend-mode:multiply" opacity="0.5">
<path d="M37.2124 15.1549C37.2124 15.1549 36.6195 15.1547 36.3869 15.1547C35.6823 15.1547 35.1089 14.5945 35.1089 13.9062V12.2874H35.9497V13.9062C35.9497 14.1416 36.1459 14.3333 36.3869 14.3333C36.6195 14.3333 37.2124 14.9282 37.2124 15.1549Z" fill="#9562FF"/>
</g>
<path d="M22.5713 12.2876V11.2489C22.5713 11.0132 22.375 10.8214 22.1337 10.8214H21.9407C21.6994 10.8214 21.5031 11.0132 21.5031 11.2489V13.9059C21.5031 14.1416 21.6994 14.3334 21.9407 14.3334C22.1729 14.3334 22.3611 14.5173 22.3611 14.7441C22.3611 14.9709 22.1729 15.1548 21.9407 15.1548C21.2358 15.1548 20.6624 14.5946 20.6624 13.9059V11.2489C20.6624 10.5603 21.2358 10 21.9407 10H22.1337C22.8386 10 23.4121 10.5603 23.4121 11.2489V12.2876H22.5713Z" fill="#333F74"/>
<path d="M37.8448 12.2876V11.2489C37.8448 11.0132 37.6485 10.8214 37.4072 10.8214H37.2142C36.9729 10.8214 36.7766 11.0132 36.7766 11.2489V13.9059C36.7766 14.1416 36.9729 14.3334 37.2142 14.3334C37.4463 14.3334 37.6346 14.5173 37.6346 14.7441C37.6346 14.9709 37.4463 15.1548 37.2142 15.1548C36.5093 15.1548 35.9358 14.5946 35.9358 13.9059V11.2489C35.9358 10.5603 36.5093 10 37.2142 10H37.4072C38.1121 10 38.6856 10.5603 38.6856 11.2489V12.2876H37.8448Z" fill="#333F74"/>
<ellipse cx="23.3514" cy="23.3651" rx="1.60673" ry="1.5697" fill="#C4C4C4"/>
<ellipse cx="29.7771" cy="23.3652" rx="1.60673" ry="1.5697" fill="#C4C4C4"/>
<ellipse cx="36.2041" cy="23.3652" rx="1.60673" ry="1.5697" fill="#C4C4C4"/>
<ellipse cx="23.3531" cy="29.0158" rx="1.60673" ry="1.5697" fill="#5EBE84"/>
<ellipse cx="23.3227" cy="29.1167" rx="2.88248" ry="2.83666" fill="#5EBE84" fill-opacity="0.3"/>
<ellipse cx="29.7784" cy="29.0158" rx="1.60673" ry="1.5697" fill="#C4C4C4"/>
<g filter="url(#filter2_d_2519:3583)">
<rect x="34.2168" y="14.0278" width="14.6014" height="14.5" rx="2.5" fill="white"/>
<rect x="34.2168" y="14.0278" width="14.6014" height="14.5" rx="2.5" stroke="#BCC1D3" stroke-width="0.5"/>
</g>
<path d="M37.4166 21.2202L37.2351 21.2774L37.3331 21.4404L39.7007 25.3828L39.7444 25.4556H39.8293H39.8293H39.8294H39.8294H39.8295H39.8296H39.8297H39.8298H39.83H39.8302H39.8303H39.8305H39.8307H39.831H39.8312H39.8315H39.8317H39.832H39.8323H39.8327H39.833H39.8334H39.8337H39.8341H39.8345H39.8349H39.8354H39.8358H39.8363H39.8368H39.8373H39.8378H39.8383H39.8389H39.8394H39.84H39.8406H39.8412H39.8419H39.8425H39.8431H39.8438H39.8445H39.8452H39.8459H39.8467H39.8474H39.8482H39.8489H39.8497H39.8506H39.8514H39.8522H39.8531H39.8539H39.8548H39.8557H39.8566H39.8576H39.8585H39.8595H39.8604H39.8614H39.8624H39.8634H39.8645H39.8655H39.8666H39.8676H39.8687H39.8698H39.8709H39.8721H39.8732H39.8744H39.8755H39.8767H39.8779H39.8791H39.8804H39.8816H39.8829H39.8841H39.8854H39.8867H39.888H39.8893H39.8907H39.892H39.8934H39.8948H39.8962H39.8976H39.899H39.9004H39.9019H39.9033H39.9048H39.9063H39.9078H39.9093H39.9108H39.9123H39.9139H39.9154H39.917H39.9186H39.9202H39.9218H39.9234H39.9251H39.9267H39.9284H39.9301H39.9318H39.9335H39.9352H39.9369H39.9386H39.9404H39.9422H39.9439H39.9457H39.9475H39.9493H39.9512H39.953H39.9548H39.9567H39.9586H39.9605H39.9624H39.9643H39.9662H39.9681H39.9701H39.972H39.974H39.976H39.9779H39.9799H39.982H39.984H39.986H39.9881H39.9901H39.9922H39.9943H39.9964H39.9985H40.0006H40.0027H40.0048H40.007H40.0091H40.0113H40.0135H40.0157H40.0179H40.0201H40.0223H40.0245H40.0268H40.029H40.0313H40.0336H40.0359H40.0381H40.0405H40.0428H40.0451H40.0474H40.0498H40.0521H40.0545H40.0569H40.0593H40.0617H40.0641H40.0665H40.0689H40.0714H40.0738H40.0763H40.0787H40.0812H40.0837H40.0862H40.0887H40.0912H40.0937H40.0963H40.0988H40.1014H40.1039H40.1065H40.1091H40.1117H40.1143H40.1169H40.1195H40.1221H40.1248H40.1274H40.1301H40.1327H40.1354H40.1381H40.1408H40.1435H40.1462H40.1489H40.1516H40.1543H40.1571H40.1598H40.1626H40.1653H40.1681H40.1709H40.1737H40.1765H40.1793H40.1821H40.1849H40.1878H40.1906H40.1935H40.1963H40.1992H40.2021H40.2049H40.2078H40.2107H40.2136H40.2165H40.2195H40.2224H40.2253H40.2283H40.2312H40.2342H40.2371H40.2401H40.2431H40.2461H40.2491H40.2521H40.2551H40.2581H40.2611H40.2642H40.2672H40.2702H40.2733H40.2764H40.2794H40.2825H40.2856H40.2887H40.2917H40.2948H40.298H40.3011H40.3042H40.3073H40.3104H40.3136H40.3167H40.3199H40.323H40.3262H40.3294H40.3325H40.3357H40.3389H40.3421H40.3453H40.3485H40.3517H40.355H40.3582H40.3614H40.3647H40.3679H40.3711H40.3744H40.3777H40.3809H40.3842H40.3875H40.3908H40.394H40.3973H40.4006H40.4039H40.4073H40.4106H40.4139H40.4172H40.4205H40.4239H40.4272H40.4306H40.4339H40.4373H40.4406H40.444H40.4474H40.4508H40.4541H40.4575H40.4609H40.4643H40.4677H40.4711H40.4745H40.4779H40.4813H40.4848H40.4882H40.4916H40.4951H40.4985H40.5019H40.5054H40.5088H40.5123H40.5158H40.5192H40.5227H40.5262H40.5296H40.5331H40.5366H40.5401H40.5436H40.5471H40.5506H40.5541H40.5576H40.5611H40.5646H40.5681H40.5716H40.5752H40.5787H40.5822H40.5857H40.5893H40.5928H40.5964H40.5999H40.6035H40.607H40.6106H40.6141H40.6177H40.6212H40.6248H40.6284H40.632H40.6355H40.6391H40.6427H40.6463H40.6499H40.6534H40.657H40.6606H40.6642H40.6678H40.6714H40.675H40.6786H40.6822H40.6859H40.6895H40.6931H40.6967H40.7003H40.7039H40.7076H40.7112H40.7148H40.7184H40.7221H40.7257H40.7293H40.733H40.7366H40.7402H40.7439H40.7475H40.7511H40.7548H40.7584H40.7621H40.7657H40.7694H40.773H40.7767H40.7803H40.784H40.7876H40.7913H40.795H40.7986H40.8023H40.8059H40.8096H40.8132H40.8169H40.8206H40.8242H40.8279H40.8316H40.8352H40.8389H40.8426H40.8462H40.8499H40.8536H40.8572H40.8609H40.8646H40.8682H40.8719H40.8756H40.8792H40.8829H40.8866H40.8902H40.8939H40.8976H40.9013H40.9049H40.9086H40.9123H40.9159H40.9196H40.9233H40.9269H40.9306H40.9343H40.9379H40.9416H40.9452H40.9489H40.9526H40.9562H40.9599H40.9636H40.9672H40.9709H40.9745H40.9782H40.9818H40.9855H40.9892H40.9928H40.9965H41.0001H41.0038H41.0074H41.011H41.0147H41.0183H41.022H41.0256H41.0293H41.0329H41.0365H41.0402H41.0438H41.0474H41.0511H41.0547H41.0583H41.0619H41.0656H41.0692H41.0728H41.0764H41.08H41.0836H41.0872H41.0908H41.0945H41.0981H41.1017H41.1053H41.1088H41.1124H41.116H41.1196H41.1232H41.1268H41.1304H41.1339H41.1375H41.1411H41.1447H41.1482H41.1518H41.1554H41.1589H41.1625H41.166H41.1696H41.1731H41.1767H41.2872L41.3199 25.35C42.3133 22.1446 43.6063 20.0575 44.6464 18.7743C45.1667 18.1325 45.624 17.6912 45.9497 17.4114C46.1125 17.2715 46.2425 17.172 46.3309 17.1079C46.3752 17.0758 46.409 17.0526 46.4314 17.0377C46.4426 17.0302 46.4509 17.0248 46.4563 17.0214L46.462 17.0178L46.4632 17.0171L46.4633 17.017L46.4633 17.017L46.6069 16.9289L46.5026 16.7964L46.3847 16.8892L46.5026 16.7964L46.5026 16.7964L46.5026 16.7964L46.5025 16.7962L46.502 16.7957L46.5003 16.7935L46.4936 16.785L46.4686 16.7532L46.3825 16.6441C46.3131 16.5563 46.225 16.4449 46.1501 16.351L46.0716 16.2525L45.961 16.3128C44 17.3821 42.6533 19.0845 41.7985 20.5116C41.3706 21.2261 41.0644 21.8742 40.865 22.3441C40.8157 22.4602 40.7729 22.5655 40.7365 22.6583L40.1626 20.5185L40.122 20.3672L39.9726 20.4143L37.4166 21.2202Z" fill="#5EBE84" stroke="#5EBE84" stroke-width="0.3"/>
<defs>
<filter id="filter0_d_2519:3583" x="3.14404" y="1.61658" width="57.0569" height="57.6333" filterUnits="userSpaceOnUse" color-interpolation-filters="sRGB">
<feFlood flood-opacity="0" result="BackgroundImageFix"/>
<feColorMatrix in="SourceAlpha" type="matrix" values="0 0 0 0 0 0 0 0 0 0 0 0 0 0 0 0 0 0 127 0" result="hardAlpha"/>
<feOffset dy="4"/>
<feGaussianBlur stdDeviation="8"/>
<feColorMatrix type="matrix" values="0 0 0 0 0 0 0 0 0 0 0 0 0 0 0 0 0 0 0.05 0"/>
<feBlend mode="normal" in2="BackgroundImageFix" result="effect1_dropShadow_2519:3583"/>
<feBlend mode="normal" in="SourceGraphic" in2="effect1_dropShadow_2519:3583" result="shape"/>
</filter>
<filter id="filter1_d_2519:3583" x="0.931641" y="0.00543213" width="57.4851" height="56.1963" filterUnits="userSpaceOnUse" color-interpolation-filters="sRGB">
<feFlood flood-opacity="0" result="BackgroundImageFix"/>
<feColorMatrix in="SourceAlpha" type="matrix" values="0 0 0 0 0 0 0 0 0 0 0 0 0 0 0 0 0 0 127 0" result="hardAlpha"/>
<feOffset dy="4"/>
<feGaussianBlur stdDeviation="8"/>
<feColorMatrix type="matrix" values="0 0 0 0 0 0 0 0 0 0 0 0 0 0 0 0 0 0 0.05 0"/>
<feBlend mode="normal" in2="BackgroundImageFix" result="effect1_dropShadow_2519:3583"/>
<feBlend mode="normal" in="SourceGraphic" in2="effect1_dropShadow_2519:3583" result="shape"/>
</filter>
<filter id="filter2_d_2519:3583" x="17.9668" y="1.77782" width="47.1013" height="47" filterUnits="userSpaceOnUse" color-interpolation-filters="sRGB">
<feFlood flood-opacity="0" result="BackgroundImageFix"/>
<feColorMatrix in="SourceAlpha" type="matrix" values="0 0 0 0 0 0 0 0 0 0 0 0 0 0 0 0 0 0 127 0" result="hardAlpha"/>
<feOffset dy="4"/>
<feGaussianBlur stdDeviation="8"/>
<feColorMatrix type="matrix" values="0 0 0 0 0 0 0 0 0 0 0 0 0 0 0 0 0 0 0.05 0"/>
<feBlend mode="normal" in2="BackgroundImageFix" result="effect1_dropShadow_2519:3583"/>
<feBlend mode="normal" in="SourceGraphic" in2="effect1_dropShadow_2519:3583" result="shape"/>
</filter>
</defs>
</svg>
