<svg width="65" height="57" viewBox="0 0 65 57" fill="none" xmlns="http://www.w3.org/2000/svg">
<circle opacity="0.2" cx="31" cy="25" r="24" fill="white"/>
<g filter="url(#filter0_d_2519:3709)">
<path d="M18.394 18.6666C18.394 16.9864 18.394 16.1463 18.721 15.5046C19.0086 14.9401 19.4676 14.4812 20.0321 14.1936C20.6738 13.8666 21.5139 13.8666 23.194 13.8666H38.151C39.8311 13.8666 40.6712 13.8666 41.313 14.1936C41.8774 14.4812 42.3364 14.9401 42.624 15.5046C42.951 16.1463 42.951 16.9864 42.951 18.6666V30.9999C42.951 33.8002 42.951 35.2003 42.406 36.2699C41.9267 37.2107 41.1618 37.9756 40.2209 38.4549C39.1514 38.9999 37.7513 38.9999 34.951 38.9999H23.194C21.5139 38.9999 20.6738 38.9999 20.0321 38.6729C19.4676 38.3853 19.0086 37.9264 18.721 37.3619C18.394 36.7201 18.394 35.8801 18.394 34.1999V18.6666Z" fill="white"/>
<path d="M18.394 18.6666C18.394 16.9864 18.394 16.1463 18.721 15.5046C19.0086 14.9401 19.4676 14.4812 20.0321 14.1936C20.6738 13.8666 21.5139 13.8666 23.194 13.8666H38.151C39.8311 13.8666 40.6712 13.8666 41.313 14.1936C41.8774 14.4812 42.3364 14.9401 42.624 15.5046C42.951 16.1463 42.951 16.9864 42.951 18.6666V30.9999C42.951 33.8002 42.951 35.2003 42.406 36.2699C41.9267 37.2107 41.1618 37.9756 40.2209 38.4549C39.1514 38.9999 37.7513 38.9999 34.951 38.9999H23.194C21.5139 38.9999 20.6738 38.9999 20.0321 38.6729C19.4676 38.3853 19.0086 37.9264 18.721 37.3619C18.394 36.7201 18.394 35.8801 18.394 34.1999V18.6666Z" stroke="#BCC1D3" stroke-width="0.5"/>
</g>
<g filter="url(#filter1_d_2519:3709)">
<path d="M34.9107 35.9517H17.866C16.9358 35.9517 16.1816 35.215 16.1816 34.3061V13.901C16.1816 12.9922 16.9358 12.2554 17.866 12.2554H39.4825C40.4127 12.2554 41.1668 12.9922 41.1668 13.901V29.8397C41.1668 30.2761 40.1486 30.6946 39.8327 31.0033L36.1017 34.6483C35.7859 34.9569 35.3574 35.9517 34.9107 35.9517Z" fill="white"/>
<path d="M35.927 34.4695L35.9269 34.4695C35.8269 34.5672 35.7278 34.7081 35.6375 34.843C35.6037 34.8934 35.5708 34.9436 35.5379 34.9936C35.4766 35.0871 35.4157 35.1798 35.3509 35.2717C35.2525 35.4114 35.1598 35.5272 35.0727 35.6064C34.9814 35.6894 34.9295 35.7017 34.9107 35.7017H17.866C17.0683 35.7017 16.4316 35.0714 16.4316 34.3061V13.901C16.4316 13.1357 17.0683 12.5054 17.866 12.5054H39.4825C40.2802 12.5054 40.9168 13.1357 40.9168 13.901V29.8397C40.9168 29.8516 40.9076 29.8997 40.8218 29.9898C40.7407 30.075 40.6219 30.1656 40.4787 30.2619C40.3846 30.3252 40.2896 30.3848 40.1939 30.4447C40.1427 30.4768 40.0913 30.5091 40.0397 30.542C39.9018 30.6302 39.7579 30.7269 39.658 30.8244L35.927 34.4695Z" stroke="#BCC1D3" stroke-width="0.5"/>
</g>
<path d="M34.2122 35.9837C34.9744 35.9837 35.5922 35.3801 35.5922 34.6355V31.8939C35.5922 31.1493 36.2101 30.5457 36.9723 30.5457H39.7785C40.5407 30.5457 41.1586 29.9421 41.1586 29.1974V29.8641C41.1586 30.3005 40.9811 30.719 40.6652 31.0277L36.0855 35.5018C35.7696 35.8104 35.3412 35.9838 34.8945 35.9838H34.2122V35.9837Z" fill="#BCC1D3"/>
<path d="M41.1665 13.9299V18.1563H16.1816V13.9299C16.1816 13.0231 16.9344 12.2871 17.8632 12.2871H39.4849C40.4137 12.2871 41.1665 13.0231 41.1665 13.9299Z" fill="#9562FF"/>
<g style="mix-blend-mode:multiply" opacity="0.5">
<path d="M20.943 15.1551C20.6223 15.1551 20.35 15.1549 20.1179 15.1549C19.4128 15.1549 18.8394 14.5947 18.8394 13.9064V12.2877H19.6801V13.9064C19.6801 14.1419 19.8763 14.3335 20.1179 14.3335C20.35 14.3335 21.1751 15.1551 20.943 15.1551Z" fill="#9562FF"/>
</g>
<g style="mix-blend-mode:multiply" opacity="0.5">
<path d="M36.2124 15.1549C36.2124 15.1549 35.6195 15.1547 35.3869 15.1547C34.6823 15.1547 34.1089 14.5945 34.1089 13.9062V12.2874H34.9497V13.9062C34.9497 14.1416 35.1459 14.3333 35.3869 14.3333C35.6195 14.3333 36.2124 14.9282 36.2124 15.1549Z" fill="#9562FF"/>
</g>
<path d="M21.5713 12.2876V11.2489C21.5713 11.0132 21.375 10.8214 21.1337 10.8214H20.9407C20.6994 10.8214 20.5031 11.0132 20.5031 11.2489V13.9059C20.5031 14.1416 20.6994 14.3334 20.9407 14.3334C21.1729 14.3334 21.3611 14.5173 21.3611 14.7441C21.3611 14.9709 21.1729 15.1548 20.9407 15.1548C20.2358 15.1548 19.6624 14.5946 19.6624 13.9059V11.2489C19.6624 10.5603 20.2358 10 20.9407 10H21.1337C21.8386 10 22.4121 10.5603 22.4121 11.2489V12.2876H21.5713Z" fill="#333F74"/>
<path d="M36.8448 12.2876V11.2489C36.8448 11.0132 36.6485 10.8214 36.4072 10.8214H36.2142C35.9729 10.8214 35.7766 11.0132 35.7766 11.2489V13.9059C35.7766 14.1416 35.9729 14.3334 36.2142 14.3334C36.4463 14.3334 36.6346 14.5173 36.6346 14.7441C36.6346 14.9709 36.4463 15.1548 36.2142 15.1548C35.5093 15.1548 34.9358 14.5946 34.9358 13.9059V11.2489C34.9358 10.5603 35.5093 10 36.2142 10H36.4072C37.1121 10 37.6856 10.5603 37.6856 11.2489V12.2876H36.8448Z" fill="#333F74"/>
<ellipse cx="22.3514" cy="23.3651" rx="1.60673" ry="1.5697" fill="#C4C4C4"/>
<ellipse cx="28.7771" cy="23.3652" rx="1.60673" ry="1.5697" fill="#C4C4C4"/>
<ellipse cx="35.2041" cy="23.3652" rx="1.60673" ry="1.5697" fill="#C4C4C4"/>
<ellipse cx="22.3531" cy="29.0158" rx="1.60673" ry="1.5697" fill="#FF5454"/>
<ellipse cx="22.3227" cy="29.1167" rx="2.88248" ry="2.83666" fill="#FF5454" fill-opacity="0.3"/>
<ellipse cx="28.7784" cy="29.0158" rx="1.60673" ry="1.5697" fill="#C4C4C4"/>
<g filter="url(#filter2_d_2519:3709)">
<rect x="33.2168" y="14.0278" width="14.6014" height="14.5" rx="2.5" fill="white"/>
<rect x="33.2168" y="14.0278" width="14.6014" height="14.5" rx="2.5" stroke="#BCC1D3" stroke-width="0.5"/>
</g>
<path fill-rule="evenodd" clip-rule="evenodd" d="M46.125 18.1269L44.1476 16L40.8715 19.8662L37.8559 16.0464L35.625 17.9228L39.6382 21.3217L36.1013 25.4956L36.4296 25.7858L40.8169 22.32L45.1619 26L45.4675 25.6876L42.0437 21.3509L46.125 18.1269Z" fill="#FF5454"/>
<defs>
<filter id="filter0_d_2519:3709" x="2.14404" y="1.61658" width="57.0569" height="57.6333" filterUnits="userSpaceOnUse" color-interpolation-filters="sRGB">
<feFlood flood-opacity="0" result="BackgroundImageFix"/>
<feColorMatrix in="SourceAlpha" type="matrix" values="0 0 0 0 0 0 0 0 0 0 0 0 0 0 0 0 0 0 127 0" result="hardAlpha"/>
<feOffset dy="4"/>
<feGaussianBlur stdDeviation="8"/>
<feColorMatrix type="matrix" values="0 0 0 0 0 0 0 0 0 0 0 0 0 0 0 0 0 0 0.05 0"/>
<feBlend mode="normal" in2="BackgroundImageFix" result="effect1_dropShadow_2519:3709"/>
<feBlend mode="normal" in="SourceGraphic" in2="effect1_dropShadow_2519:3709" result="shape"/>
</filter>
<filter id="filter1_d_2519:3709" x="0.181641" y="0.255432" width="56.9851" height="55.6963" filterUnits="userSpaceOnUse" color-interpolation-filters="sRGB">
<feFlood flood-opacity="0" result="BackgroundImageFix"/>
<feColorMatrix in="SourceAlpha" type="matrix" values="0 0 0 0 0 0 0 0 0 0 0 0 0 0 0 0 0 0 127 0" result="hardAlpha"/>
<feOffset dy="4"/>
<feGaussianBlur stdDeviation="8"/>
<feColorMatrix type="matrix" values="0 0 0 0 0 0 0 0 0 0 0 0 0 0 0 0 0 0 0.05 0"/>
<feBlend mode="normal" in2="BackgroundImageFix" result="effect1_dropShadow_2519:3709"/>
<feBlend mode="normal" in="SourceGraphic" in2="effect1_dropShadow_2519:3709" result="shape"/>
</filter>
<filter id="filter2_d_2519:3709" x="16.9668" y="1.77782" width="47.1013" height="47" filterUnits="userSpaceOnUse" color-interpolation-filters="sRGB">
<feFlood flood-opacity="0" result="BackgroundImageFix"/>
<feColorMatrix in="SourceAlpha" type="matrix" values="0 0 0 0 0 0 0 0 0 0 0 0 0 0 0 0 0 0 127 0" result="hardAlpha"/>
<feOffset dy="4"/>
<feGaussianBlur stdDeviation="8"/>
<feColorMatrix type="matrix" values="0 0 0 0 0 0 0 0 0 0 0 0 0 0 0 0 0 0 0.05 0"/>
<feBlend mode="normal" in2="BackgroundImageFix" result="effect1_dropShadow_2519:3709"/>
<feBlend mode="normal" in="SourceGraphic" in2="effect1_dropShadow_2519:3709" result="shape"/>
</filter>
</defs>
</svg>
