<svg xmlns="http://www.w3.org/2000/svg" width="24" height="24" viewBox="0 0 24 24">
    <g fill="none" fill-rule="evenodd">
        <g>
            <g>
                <g>
                    <path fill="#D8D8D8" fill-opacity="0" d="M0 0H24V24H0z" transform="translate(-24 -168) translate(0 151.5) translate(24 16.5)"/>
                    <path fill="#F4F6F7" stroke="#678189" stroke-width="2" d="M14.308 3c2.392 0 3.273.214 4.15.683.802.429 1.43 1.057 1.859 1.858.47.878.683 1.76.683 4.15h0v4.617c0 2.392-.214 3.273-.683 4.15-.429.802-1.057 1.43-1.858 1.859-.878.47-1.76.683-4.15.683h0-4.617c-2.392 0-3.273-.214-4.15-.683-.802-.429-1.43-1.057-1.859-1.858-.47-.878-.683-1.76-.683-4.15h0V9.691c0-2.392.214-3.273.683-4.15.429-.802 1.057-1.43 1.858-1.859C6.42 3.213 7.301 3 9.691 3h0z" transform="translate(-24 -168) translate(0 151.5) translate(24 16.5)"/>
                </g>
            </g>
        </g>
    </g>
</svg>
