<svg xmlns="http://www.w3.org/2000/svg" width="24" height="24" viewBox="0 0 24 24">
    <g fill="none" fill-rule="evenodd">
        <g>
            <g>
                <g>
                    <path fill="#D8D8D8" fill-opacity="0" d="M0 0H24V24H0z" transform="translate(-24 -280) translate(0 151.5) translate(24 128.5)"/>
                    <g>
                        <path fill="#678189" d="M7.692 0h4.616c2.675 0 3.645.278 4.623.801.977.523 1.745 1.29 2.268 2.268.523.978.801 1.948.801 4.623v4.616c0 2.675-.278 3.645-.801 4.623-.523.977-1.29 1.745-2.268 2.268-.978.523-1.948.801-4.623.801H7.692c-2.675 0-3.645-.278-4.623-.801-.977-.523-1.745-1.29-2.268-2.268C.278 15.953 0 14.983 0 12.308V7.692c0-2.675.278-3.645.801-4.623.523-.977 1.29-1.745 2.268-2.268C4.047.278 5.017 0 7.692 0z" transform="translate(-24 -280) translate(0 151.5) translate(24 128.5) translate(2 2)"/>
                        <path fill="#FFF" d="M13.205 6.394l-3.784 4.97-1.633-2.087c-.341-.436-.97-.512-1.404-.17-.435.34-.512.968-.171 1.402l2.43 3.107c.19.242.48.383.789.383h.007c.309 0 .6-.147.788-.394l4.569-6c.335-.44.25-1.066-.19-1.4-.44-.336-1.068-.25-1.401.19" transform="translate(-24 -280) translate(0 151.5) translate(24 128.5) translate(2 2)"/>
                    </g>
                </g>
            </g>
        </g>
    </g>
</svg>
