<svg xmlns="http://www.w3.org/2000/svg" width="16" height="16" viewBox="0 0 16 16">
    <g fill="none" fill-rule="evenodd">
        <g>
            <g>
                <g>
                    <g>
                        <g>
                            <path fill="#000" d="M13.006 3.577c.325.326.325.853 0 1.179L9.47 8.29l3.536 3.536c.325.325.325.853 0 1.179-.326.325-.854.325-1.179 0L8.291 9.47l-3.535 3.536c-.326.325-.853.325-1.179 0-.325-.326-.325-.854 0-1.179l3.536-3.536-3.536-3.535c-.325-.326-.325-.853 0-1.179.326-.325.853-.325 1.179 0L8.29 7.113l3.536-3.536c.325-.325.853-.325 1.179 0z" transform="translate(-1287 -665) translate(133 61) translate(634) translate(48 600) translate(472 4)"/>
                        </g>
                    </g>
                </g>
            </g>
        </g>
    </g>
</svg>
