<svg xmlns="http://www.w3.org/2000/svg" width="24" height="24" viewBox="0 0 24 24">
    <g fill="none" fill-rule="evenodd">
        <g>
            <g>
                <g>
                    <path d="M0 0H24V24H0z" transform="translate(-1368 -213) translate(1221 45) translate(147 168)"/>
                    <path fill="#678189" stroke="#67818A" stroke-width=".75" d="M3.001 21.49c-.062.014-.127.014-.19 0-.2-.082-.326-.284-.31-.5V4.999c0-1.38 1.12-2.499 2.5-2.499h14c1.381 0 2.5 1.119 2.5 2.499v9.994c0 1.38-1.119 2.499-2.5 2.499H7.211l-3.86 3.847c-.09.098-.217.152-.35.15zm2-17.99c-.828 0-1.5.67-1.5 1.499V19.78l3.15-3.138c.09-.097.218-.151.35-.15h12c.829 0 1.5-.671 1.5-1.499V4.999c0-.828-.671-1.5-1.5-1.5h-14z" transform="translate(-1368 -213) translate(1221 45) translate(147 168)"/>
                </g>
            </g>
        </g>
    </g>
</svg>
