<svg width="18" height="18" viewBox="0 0 18 18" fill="none" xmlns="http://www.w3.org/2000/svg">
<circle cx="9" cy="9" r="7.65" fill="#FF9432" stroke="white" stroke-width="1.3"/>
<g clip-path="url(#clip0_3259:3556)">
<path d="M13.7066 7.35123C13.7082 7.37875 13.7062 7.40675 13.6992 7.43456L13.0824 9.90185C13.0513 10.0261 12.9399 10.1135 12.8118 10.1142L9.1109 10.1329C9.11042 10.1329 9.10997 10.1329 9.10948 10.1329H5.40851C5.27976 10.1329 5.16757 10.0452 5.13647 9.92028L4.51965 7.44364C4.51255 7.41508 4.51049 7.3863 4.51228 7.35807C4.27367 7.2829 4.1001 7.05961 4.1001 6.79647C4.1001 6.47179 4.36421 6.20768 4.68888 6.20768C5.01356 6.20768 5.27767 6.47179 5.27767 6.79647C5.27767 6.97931 5.19389 7.1429 5.06271 7.25097L5.83498 8.02906C6.03015 8.22574 6.30099 8.33848 6.57808 8.33848C6.90571 8.33848 7.21808 8.1829 7.41479 7.92222L8.68395 6.24058C8.57733 6.13404 8.51131 5.98682 8.51131 5.8245C8.51131 5.49983 8.77542 5.23572 9.1001 5.23572C9.42477 5.23572 9.68888 5.49983 9.68888 5.8245C9.68888 5.98196 9.62638 6.12488 9.52533 6.23063C9.52567 6.23108 9.52608 6.23146 9.52642 6.23194L10.7864 7.91822C10.983 8.1814 11.2965 8.33852 11.6251 8.33852C11.9047 8.33852 12.1676 8.22962 12.3654 8.03187L13.1425 7.25475C13.0085 7.14671 12.9225 6.98155 12.9225 6.79647C12.9225 6.47179 13.1866 6.20768 13.5113 6.20768C13.836 6.20768 14.1001 6.47179 14.1001 6.79647C14.1001 7.05258 13.9354 7.27041 13.7066 7.35123ZM13.0222 11.0114C13.0222 10.8566 12.8967 10.731 12.7419 10.731H5.48952C5.33468 10.731 5.20914 10.8566 5.20914 11.0114V11.6843C5.20914 11.8392 5.33468 11.9647 5.48952 11.9647H12.7419C12.8967 11.9647 13.0222 11.8392 13.0222 11.6843V11.0114Z" fill="#F8FAFA"/>
</g>
<defs>
<clipPath id="clip0_3259:3556">
<rect width="10" height="10" fill="white" transform="translate(4.1001 3.6001)"/>
</clipPath>
</defs>
</svg>
