<svg xmlns="http://www.w3.org/2000/svg" xmlns:xlink="http://www.w3.org/1999/xlink" width="24" height="24" viewBox="0 0 24 24">
    <defs>
        <path id="0hwcwqkzqa" d="M5.863 12c-.276 0-.54-.114-.729-.315L.271 6.506c-.379-.402-.358-1.035.044-1.413.403-.378 1.036-.358 1.413.044l4.125 4.391L14.261.326c.374-.409 1.006-.436 1.414-.064.407.372.435 1.005.063 1.412l-9.137 10c-.187.206-.453.324-.73.326h-.008z"/>
        <path id="2aluog7vqb" d="M5.863 12c-.276 0-.54-.114-.729-.315L.271 6.506c-.379-.402-.358-1.035.044-1.413.403-.378 1.036-.358 1.413.044l4.125 4.391L14.261.326c.374-.409 1.006-.436 1.414-.064.407.372.435 1.005.063 1.412l-9.137 10c-.187.206-.453.324-.73.326h-.008z"/>
    </defs>
    <g >
        <g>
            <g>
                <g>
                    <g>
                        <path fill="#000" fill-opacity="0" d="M0 0H24V24H0z" transform="translate(-1640 -213) translate(1221 45) translate(415 164) translate(4 4)"/>
                        <g transform="translate(-1640 -213) translate(1221 45) translate(415 164) translate(4 4) translate(7 6)">
                            <path stroke="#000" d="M14.932-.498c.384-.018.774.111 1.08.39.306.28.47.657.486 1.04.018.384-.112.774-.39 1.08h0L6.971 12.01c-.281.31-.68.487-1.102.49-.423 0-.817-.172-1.1-.473h0L-.093 6.85c-.284-.302-.418-.69-.406-1.073.012-.384.17-.764.472-1.048.302-.283.69-.417 1.074-.405.384.012.763.17 1.046.472h0l3.755 3.997L13.892-.01c.28-.307.657-.47 1.04-.487z"/>
                        </g>
                        <path fill="#EEF8F2" d="M6 9H11V15H6z" transform="translate(-1640 -213) translate(1221 45) translate(415 164) translate(4 4)"/>
                        <g transform="translate(-1640 -213) translate(1221 45) translate(415 164) translate(4 4) translate(1 6)">
                            <path stroke="#000" d="M14.932-.498c.384-.018.774.111 1.08.39.306.28.47.657.486 1.04.018.384-.112.774-.39 1.08h0L6.971 12.01c-.281.31-.68.487-1.102.49-.423 0-.817-.172-1.1-.473h0L-.093 6.85c-.284-.302-.418-.69-.406-1.073.012-.384.17-.764.472-1.048.302-.283.69-.417 1.074-.405.384.012.763.17 1.046.472h0l3.755 3.997L13.892-.01c.28-.307.657-.47 1.04-.487z"/>
                        </g>
                    </g>
                </g>
            </g>
        </g>
    </g>
</svg>
