<svg xmlns="http://www.w3.org/2000/svg" width="24" height="24" viewBox="0 0 24 24">
    <g fill="none" fill-rule="evenodd">
        <g>
            <g>
                <g>
                    <path fill="#D8D8D8" fill-opacity="0" d="M0 0H24V24H0z" transform="translate(-480 -288) translate(456 264) translate(24 24)"/>
                    <g fill="#FE7388" fill-rule="nonzero" stroke="#FE7388" stroke-width=".3">
                        <path d="M15 15.385v2.307C15 18.967 13.993 20 12.75 20H2.25C1.007 20 0 18.967 0 17.692V2.308C0 1.033 1.007 0 2.25 0H4.5c.414 0 .75.344.75.77 0 .424-.336.768-.75.768H2.25c-.414 0-.75.345-.75.77v15.384c0 .425.336.77.75.77h10.5c.414 0 .75-.345.75-.77v-2.307c0-.425.336-.77.75-.77s.75.345.75.77zm0-8.462v4.615c0 .425-.336.77-.75.77s-.75-.345-.75-.77V7.692H9.75c-1.243 0-2.25-1.033-2.25-2.307V.769c.001-.1.022-.2.06-.292.076-.188.222-.337.405-.415.183-.077.387-.077.57 0 .092.036.176.091.248.161l6 6.154c.068.073.121.16.157.254.038.092.059.192.06.292h0zm-5.25-.77h2.693L9 2.624v2.762c0 .424.336.769.75.769z" transform="translate(-480 -288) translate(456 264) translate(24 24) translate(4.5 2)"/>
                    </g>
                </g>
            </g>
        </g>
    </g>
</svg>
