<?xml version="1.0" encoding="UTF-8"?>
<svg width="24px" height="24px" viewBox="0 0 24 24" version="1.1" xmlns="http://www.w3.org/2000/svg" xmlns:xlink="http://www.w3.org/1999/xlink">
    <title>Group 3</title>
    <defs>
        <path d="M17,14 L3,14 C2.449,14 2,13.552 2,13 L2,3.25 L9.4,8.8 C9.578,8.934 9.789,9 10,9 C10.211,9 10.422,8.934 10.6,8.8 L18,3.25 L18,13 C18,13.552 17.551,14 17,14 L17,14 Z M16.333,2 L10,6.75 L3.667,2 L16.333,2 Z M17,0 L3,0 C1.346,0 0,1.346 0,3 L0,13 C0,14.654 1.346,16 3,16 L17,16 C18.654,16 20,14.654 20,13 L20,3 C20,1.346 18.654,0 17,0 L17,0 Z" id="path-1"></path>
    </defs>
    <g id="Page-1" stroke="none" stroke-width="1" fill="none" fill-rule="evenodd">
        <g id="Profile-page" transform="translate(-36.000000, -276.000000)">
            <g id="Group-13" transform="translate(32.000000, 272.000000)">
                <g id="Group-3" transform="translate(4.000000, 4.000000)">
                    <rect id="Rectangle" opacity="0" x="0" y="0" width="24" height="24"></rect>
                    <g id="27)-Icon/email" transform="translate(2.000000, 4.000000)">
                        <mask id="mask-2" fill="white">
                            <use xlink:href="#path-1"></use>
                        </mask>
                        <use id="🎨-Icon-Сolor" fill="#000" xlink:href="#path-1"></use>
                    </g>
                </g>
            </g>
        </g>
    </g>
</svg>