<svg width="20" height="20" viewBox="0 0 20 20" fill="none" xmlns="http://www.w3.org/2000/svg">
<path d="M9.16675 13.3332C9.16675 12.8729 9.53984 12.4998 10.0001 12.4998C10.4603 12.4998 10.8334 12.8729 10.8334 13.3332C10.8334 13.7934 10.4603 14.1665 10.0001 14.1665C9.53984 14.1665 9.16675 13.7934 9.16675 13.3332ZM9.16675 6.6665C9.16675 6.20627 9.53984 5.83317 10.0001 5.83317C10.4603 5.83317 10.8334 6.20627 10.8334 6.6665V9.99984C10.8334 10.4601 10.4603 10.8332 10.0001 10.8332C9.53984 10.8332 9.16675 10.4601 9.16675 9.99984V6.6665ZM9.99175 1.6665C5.39175 1.6665 1.66675 5.39984 1.66675 9.99984C1.66675 14.5998 5.39175 18.3332 9.99175 18.3332C14.6001 18.3332 18.3334 14.5998 18.3334 9.99984C18.3334 5.39984 14.6001 1.6665 9.99175 1.6665ZM10.0001 16.6665C6.31675 16.6665 3.33341 13.6832 3.33341 9.99984C3.33341 6.3165 6.31675 3.33317 10.0001 3.33317C13.6834 3.33317 16.6667 6.3165 16.6667 9.99984C16.6667 13.6832 13.6834 16.6665 10.0001 16.6665Z" fill="#FF5454"/>
</svg>
