<svg width="16" height="16" viewBox="0 0 16 16" fill="none" xmlns="http://www.w3.org/2000/svg">
<path d="M9.41329 9.41319C9.23019 9.60969 9.00939 9.76729 8.76406 9.8766C8.51873 9.98591 8.25389 10.0447 7.98535 10.0494C7.71681 10.0542 7.45007 10.0048 7.20103 9.90418C6.952 9.80359 6.72577 9.65387 6.53586 9.46396C6.34594 9.27404 6.19622 9.04782 6.09563 8.79878C5.99504 8.54975 5.94564 8.283 5.95038 8.01446C5.95512 7.74592 6.0139 7.48108 6.12321 7.23575C6.23252 6.99042 6.39013 6.76962 6.58663 6.58652M11.96 11.9599C10.8204 12.8285 9.4327 13.3098 7.99996 13.3332C3.33329 13.3332 0.666626 7.99985 0.666626 7.99985C1.49589 6.45445 2.64605 5.10426 4.03996 4.03985L11.96 11.9599ZM6.59996 2.82652C7.05885 2.71911 7.52867 2.66541 7.99996 2.66652C12.6666 2.66652 15.3333 7.99985 15.3333 7.99985C14.9286 8.75693 14.446 9.46968 13.8933 10.1265L6.59996 2.82652Z" stroke="#2E3537" stroke-width="1.2" stroke-linecap="round" stroke-linejoin="round"/>
<path d="M0.666626 0.666504L15.3333 15.3332" stroke="#2E3537" stroke-width="1.2" stroke-linecap="round" stroke-linejoin="round"/>
</svg>
