<svg xmlns="http://www.w3.org/2000/svg" width="24" height="24" viewBox="0 0 24 24">
    <g fill="none" fill-rule="evenodd">
        <g fill="#678189">
            <g>
                <g>
                    <g>
                        <path d="M17.444 20H6.555C6.25 20 6 19.776 6 19.5v-15c0-.276.25-.5.555-.5H11v4.15C11 9.722 12.217 11 13.714 11H18v8.5c0 .276-.25.5-.556.5zm.205-11h-3.935C13.32 9 13 8.619 13 8.15V4h.112l4.537 5zm2.091-.672l-5.444-6c-.189-.209-.458-.328-.74-.328h-7C5.145 2 4 3.122 4 4.5v15C4 20.878 5.146 22 6.555 22h10.89C18.852 22 20 20.878 20 19.5V9c0-.249-.093-.488-.26-.672z" transform="translate(-815 -705) translate(133 61) translate(634) translate(48 644)"/>
                    </g>
                </g>
            </g>
        </g>
    </g>
</svg>
