<?xml version="1.0" encoding="UTF-8"?>
<svg width="16px" height="18px" viewBox="0 0 16 18" version="1.1" xmlns="http://www.w3.org/2000/svg" xmlns:xlink="http://www.w3.org/1999/xlink">
    <title>27) Icon/funnel</title>
    <defs>
        <path d="M10.877,17.457 L12.903,18.99 L12.903,14.437 C12.903,14.271 12.945,14.108 13.023,13.962 L17.323,6 L6.643,6 L10.765,13.978 C10.839,14.12 10.877,14.278 10.877,14.437 L10.877,17.457 Z M13.903,22 C13.69,22 13.477,21.932 13.3,21.797 L9.274,18.752 C9.024,18.563 8.877,18.268 8.877,17.955 L8.877,14.681 L4.112,5.459 C3.951,5.149 3.964,4.778 4.146,4.48 C4.327,4.182 4.651,4 5,4 L19,4 C19.352,4 19.678,4.185 19.859,4.488 C20.039,4.79 20.047,5.165 19.88,5.475 L14.903,14.69 L14.903,21 C14.903,21.379 14.689,21.726 14.349,21.895 C14.208,21.965 14.055,22 13.903,22 L13.903,22 Z" id="path-1"></path>
    </defs>
    <g id="Page-1" stroke="none" stroke-width="1" fill="none" fill-rule="evenodd">
        <g id="members-list" transform="translate(-240.000000, -60.000000)">
            <g id="Group-173-Copy" transform="translate(220.000000, 48.000000)">
                <g id="27)-Icon/funnel" transform="translate(16.000000, 8.000171)">
                    <mask id="mask-2" fill="white">
                        <use xlink:href="#path-1"></use>
                    </mask>
                    <use id="🎨-Icon-Сolor" fill="#000" xlink:href="#path-1"></use>
                </g>
            </g>
        </g>
    </g>
</svg>