<svg width="116" height="116" viewBox="0 0 116 116" fill="none" xmlns="http://www.w3.org/2000/svg">
<g style="mix-blend-mode:multiply">
<circle cx="58" cy="58" r="58" fill="#F9F9FC"/>
<circle cx="58" cy="58" r="58" stroke="#F2F5F9"/>
</g>
<g style="mix-blend-mode:multiply">
<circle cx="58" cy="58" r="44" fill="#EDEFF6"/>
<circle cx="58" cy="58" r="44" stroke="#F2F5F9"/>
</g>
<path d="M91.875 52.26V90.5853C91.882 91.5413 91.4834 92.4543 90.7811 93.0916L90.6819 93.1923C90.076 93.7162 89.3053 94.0028 88.5091 93.9999H28.493C27.7026 93.9997 26.9381 93.7133 26.3372 93.1923C26.2962 93.1678 26.2621 93.1332 26.2379 93.0916C25.5303 92.4565 25.1255 91.5438 25.1264 90.5853V52.26C25.1185 51.4079 25.4399 50.5866 26.0218 49.9722C26.2589 49.6881 26.5439 49.4488 26.8632 49.2653C27.3613 48.9888 27.9202 48.844 28.488 48.8445H88.5084C89.4505 48.8617 90.3465 49.2615 90.9958 49.9542C91.5601 50.5859 91.8735 51.4075 91.875 52.26Z" fill="#F6B863"/>
<path d="M90.9981 49.9509C90.7617 50.2471 58.5174 76.2617 58.5174 76.2617L26.019 49.9798L26.0333 49.9662V49.9517L56.6773 24.6618C57.7467 23.7794 59.2799 23.7794 60.3495 24.6618L90.9981 49.9509Z" fill="#EAA14E"/>
<path d="M84.1428 32.3167V55.5517L58.5143 76.2616L32.8713 55.5236V32.3167H84.1428Z" fill="white"/>
<path d="M90.7761 93.0899C90.7473 93.1264 90.7144 93.1596 90.6785 93.189L61.8093 73.652L64.4515 71.4932L90.7761 93.0899Z" fill="#EAA14E"/>
<path d="M55.2039 73.6376L26.3347 93.1865C26.2923 93.1653 26.2579 93.1306 26.2371 93.0874L52.5481 71.4648L55.2039 73.6376Z" fill="#EAA14E"/>
<path d="M38.5513 38.4153H78.4478V40.1713H38.5513V38.4153Z" fill="#DBD8DD"/>
<path d="M38.5513 45.1882H78.4478V46.9443H38.5513V45.1882Z" fill="#9562FF"/>
<path d="M38.5513 51.9622H78.4478V53.7182H38.5513V51.9622Z" fill="#DBD8DD"/>
<path d="M45.252 58.7349H71.7482V60.4909H45.252V58.7349Z" fill="#DBD8DD"/>
</svg>
