<svg xmlns="http://www.w3.org/2000/svg" width="320" height="252" fill="none" viewBox="0 0 320 252">
    <mask id="osyw5yb0na" width="362" height="252" x="-21" y="0" maskUnits="userSpaceOnUse">
        <path fill="#C4C4C4" d="M-21 0H341V252H-21z"/>
    </mask>
    <g mask="url(#osyw5yb0na)">
        <path fill="url(#paint0_linear)" d="M70.624 105.364C21.028 91.284.127 142.782-6.31 153.433c-14.57 3.969-18.202 14.32 3.892 35.885 27.617 26.958 67.913 151.027 115.138 123.861 47.226-27.166 11.129-77.445 120.482-97.595 109.353-20.151-99.421-127.235-113.708-118.96-14.032 34.717-15.872 22.047-48.87 8.74z"/>
        <path fill="url(#paint1_linear)" d="M70.624 105.364C21.028 91.284.127 142.782-6.31 153.433c-14.57 3.969-18.202 14.32 3.892 35.885 27.617 26.958 67.913 151.027 115.138 123.861 47.226-27.166 11.129-77.445 120.482-97.595 109.353-20.151-99.421-127.235-113.708-118.96-14.032 34.717-15.872 22.047-48.87 8.74z" opacity=".6"/>
        <path fill="url(#paint2_linear)" d="M149.757 79.236c9.878-49.985-3.895-79.154-12.017-87.49l163.335 47.967c3.345 14.047-1.67 48.924-48.491 76.049-58.525 33.906-115.174 25.955-102.827-36.526z"/>
        <path fill="url(#paint3_linear)" d="M149.757 79.236c9.878-49.985-3.895-79.154-12.017-87.49l163.335 47.967c3.345 14.047-1.67 48.924-48.491 76.049-58.525 33.906-115.174 25.955-102.827-36.526z" opacity=".6"/>
        <g filter="url(#filter0_f)" opacity=".9">
            <ellipse cx="185.3" cy="-5.827" fill="#FAFBFE" rx="103.637" ry="44.185" transform="rotate(-180 185.3 -5.82657)"/>
        </g>
        <g filter="url(#filter1_f)" opacity=".9">
            <ellipse fill="#FAFBFE" rx="104.129" ry="44.041" transform="matrix(-0.241411 -0.970423 0.970027 -0.242997 290.657 61.7392)"/>
        </g>
        <g filter="url(#filter2_f)">
            <ellipse fill="#FAFBFE" rx="159.054" ry="82.174" transform="matrix(0.87845 0.477835 -0.479368 0.877614 54.4752 241.83)"/>
        </g>
        <g filter="url(#filter3_f)" opacity=".9">
            <ellipse fill="#FAFBFE" rx="104.158" ry="44.273" transform="matrix(0.192597 -0.981278 0.981429 0.191827 -13.9296 149.545)"/>
        </g>
        <path fill="#fff" d="M129.019 46.93c1.163 0 2.106-.94 2.106-2.1 0-1.16-.943-2.102-2.106-2.102-1.162 0-2.105.941-2.105 2.102 0 1.16.943 2.1 2.105 2.1z"/>
        <path fill="#232323" d="M100.51 32.366l-36.934-5.122 6.814 8.927-3.21 12.066 9.199-4.245 3.305 4.306 20.826-15.932z" opacity=".1"/>
        <path fill="#5EBE84" d="M68.16 47.724l4.688-17.629 28.643 1.754L68.16 47.724z"/>
        <path fill="#9CD6B3" d="M71.418 35.716c.154-.03 30.072-3.867 30.072-3.867l-36.938-5.122 6.866 8.99z"/>
        <path fill="#579C72" d="M73.746 38.777l-5.586 8.947 15.244-7.04-9.658-1.907z"/>
        <path fill="#9CD6B3" d="M73.746 38.778l6.915 9.003 20.83-15.93-27.745 6.927z"/>
        <path stroke="url(#paint4_linear)" stroke-dasharray="6 6" d="M69.743 46.855C57.42 48.012 31.68 83.503 51.254 112.404c23 33.955 32.083.516 21.33-2.725-10.754-3.24-21.953 11.344-5.453 28.675 13.2 13.865 32.668 10.668 38.359 9.539"/>
        <g filter="url(#filter4_f)" opacity=".7">
            <ellipse fill="#FAFBFE" rx="62.315" ry="44.396" transform="matrix(0.0110082 -0.999939 0.99994 0.0109625 92.1988 140.001)"/>
        </g>
        <rect width="125.7" height="108.7" x="96.65" y="50.65" stroke="#9CD6B3" stroke-width="2.7" rx="12.35"/>
        <path fill="#359B5D" d="M228.534 111.676H91.324c.317-.879.863-1.643 1.57-2.225.007-.007.02-.013.034-.027l.27-.203 63.57-48.428c1.867-1.427 4.455-1.427 6.328 0l63.564 48.428c.007-.007.007 0 .007 0l.27.203c.013.007.027.014.033.027.075.054.135.115.196.169.047.041.094.088.141.136.142.135.277.284.405.446.06.074.114.142.161.216.216.298.405.623.546.968.041.094.081.189.115.284-.007 0 0 0 0 .006z"/>
        <g filter="url(#filter5_d)">
            <path fill="#fff" d="M217.157 168.88H114.148c-4.481 0-6.721 0-8.432-.872-1.506-.767-2.729-1.991-3.496-3.497-.872-1.711-.872-3.951-.872-8.431V64.017c0-4.923 4.002-8.917 8.936-8.917h97.93c4.934 0 8.936 3.993 8.936 8.917v104.856c0 .004.003.007.007.007z"/>
        </g>
        <path fill="#5EBE84" d="M160.075 151.637c-.204.224-.442.428-.715.591l-63.428 39.058h-.286c-.531 0-1.035-.075-1.512-.225-.068-.02-.136-.04-.197-.061-.831-.285-1.574-.782-2.153-1.42-.054-.062-.109-.123-.163-.191-.164-.19-.307-.394-.436-.612-.048-.074-.082-.142-.13-.217-.04-.075-.081-.15-.116-.231-.326-.687-.517-1.448-.517-2.257v-72.778c0-.626.109-1.224.313-1.781.32-.884.872-1.652 1.587-2.237.007-.006.02-.013.034-.027l.273-.204c.851-.605 1.886-.958 3.01-.958h1.192l5.572 3.426 51.338 31.614 1.934 1.189 3.685 2.271c.273.17.518.374.715.591v.007c1.145 1.244 1.145 3.208 0 4.452z"/>
        <path fill="#5EBE84" d="M229.73 113.294v72.792c0 .088-.007.176-.007.272 0 .04-.007.081-.007.129 0 .041-.007.081-.007.122 0 .014-.006.034-.006.048-.007.027-.007.054-.014.081-.007.061-.014.129-.027.191-.007.061-.021.122-.034.183 0 .007-.007.021-.007.027-.007.014-.007.041-.014.062 0 .02-.007.047-.013.067l-.021.089-.041.163c0 .007-.007.02-.007.027-.027.095-.054.184-.088.272 0 .007 0 .007-.007.014-.014.047-.027.088-.048.136-.013.04-.027.074-.047.115-.007.007-.007.021-.014.034-.048.116-.102.231-.163.34-.014.034-.041.075-.062.116-.02.04-.041.074-.061.108l-.061.109c-.041.075-.089.143-.136.211-.028.047-.062.081-.082.129-.075.095-.143.183-.218.272-.055.068-.109.129-.164.19-.054.061-.115.123-.17.184l-.082.081c-.027.027-.047.048-.081.075-.028.027-.062.061-.096.088-.007.007-.02.014-.027.028-.082.074-.164.136-.252.203-.007.007-.014.014-.027.021l-.205.143c-.027.013-.047.034-.068.047l-.116.075c-.027.02-.061.041-.095.054l-.102.062c-.238.135-.484.251-.743.339-.013.007-.034.014-.047.014-.014.007-.041.014-.055.014-.061.02-.115.04-.184.061-.109.034-.211.061-.32.081l-.163.041c-.034.007-.075.014-.109.014-.041.006-.089.013-.13.027h-.013c-.041.007-.075.013-.109.013-.014 0-.034.007-.048.007-.027.007-.061.007-.095.014-.014 0-.034.007-.055.007-.061.006-.129.006-.197.013-.096.007-.184.007-.28.007h-.286l-63.428-39.057c-.272-.17-.517-.374-.715-.591v-.007c-1.151-1.251-1.151-3.202 0-4.459v-.007c.198-.218.443-.422.715-.591l3.679-2.271 1.934-1.189 51.345-31.614 5.571-3.426h1.192c.13 0 .252.007.375.013.02-.006.048 0 .068.007.116.007.238.021.354.041.027.007.055.007.082.014.102.013.204.04.3.061.027.006.047.006.075.013.122.027.238.061.361.102.109.034.224.075.327.116.149.061.299.129.442.204.082.041.164.081.239.129.136.075.265.163.388.251.007-.006.007 0 .007 0l.272.204c.014.007.027.014.034.027.075.055.136.116.198.17.047.041.095.089.143.136.143.136.279.286.408.449.062.075.116.143.164.217.218.3.409.626.552.972.041.096.081.191.115.286 0 .007.007.007.007.014.062.156.109.319.15.475.021.082.041.157.055.238.013.061.027.123.034.184.013.061.02.129.027.19.014.075.02.15.027.224.007.062.014.13.014.198-.007.081 0 .176 0 .265z"/>
        <mask id="ekwf5yvvub" width="140" height="85" x="90" y="107" maskUnits="userSpaceOnUse">
            <path fill="#5EBE84" fill-rule="evenodd" d="M103.894 110.654l-1.32.812-.171-.106-5.572-3.425H95.64c-1.123 0-2.159.353-3.01.958l-.273.204c-.008.008-.016.013-.022.018l-.012.009c-.715.585-1.267 1.353-1.587 2.236-.204.558-.313 1.156-.313 1.781v72.779c0 .809.19 1.57.517 2.256.035.082.075.157.116.231v.001c.024.037.045.073.065.108.02.036.04.072.065.109.13.218.272.422.436.612.054.068.109.129.163.19.58.639 1.322 1.135 2.153 1.421.06.02.128.04.196.061h.001c.477.15.98.224 1.512.224h.213v.014h128.348l.013.007h.286c.095 0 .184 0 .279-.007l.099-.007c.034-.001.067-.003.098-.007.012 0 .023-.002.033-.003l.022-.003c.016-.004.032-.005.048-.007l.017-.002.03-.005c.014 0 .034-.007.048-.007.034 0 .068-.007.109-.013h.014c.04-.014.088-.021.129-.028.034 0 .075-.006.109-.013l.163-.041c.109-.02.212-.048.321-.081l.071-.023.053-.018.06-.021c.013 0 .04-.006.054-.013.014 0 .034-.007.048-.014.259-.088.504-.204.742-.34l.102-.061c.034-.013.068-.034.096-.054l.058-.038.018-.011.039-.026c.012-.007.023-.017.035-.026.01-.008.021-.015.034-.022l.204-.142c.014-.007.02-.014.027-.021.089-.068.17-.129.252-.204.005-.009.013-.015.02-.021l.007-.006c.035-.027.069-.061.096-.088.034-.027.054-.048.082-.075l.081-.082c.055-.061.116-.122.171-.183.054-.061.109-.122.163-.19.062-.073.118-.146.178-.222h.001l.039-.05c.012-.028.029-.051.046-.075l.026-.038.01-.016c.047-.068.095-.136.136-.211l.031-.055.017-.031.013-.023c.021-.034.041-.068.062-.109l.027-.05c.013-.023.026-.045.034-.065.061-.109.116-.225.163-.34.007-.014.007-.027.014-.034.02-.041.034-.075.048-.116.02-.047.034-.088.047-.136.007-.006.007-.006.007-.013.034-.089.061-.177.089-.272 0-.007.007-.02.007-.027l.04-.163.011-.045.01-.044c.007-.02.013-.047.013-.068.004-.009.005-.02.007-.031.002-.012.003-.023.007-.03l.003-.014.004-.013c.014-.061.027-.122.034-.184.008-.036.014-.076.019-.114l.006-.06.002-.016c.004-.014.005-.027.007-.041l.001-.004.006-.037.003-.023c.002-.009.004-.017.004-.024 0-.041.006-.082.006-.122 0-.048.007-.089.007-.13l.002-.08.002-.061.003-.13v-72.793l-.001-.089c-.002-.061-.003-.121.001-.176 0-.068-.007-.136-.014-.197v-.001c-.006-.074-.013-.149-.027-.223l-.002-.016c-.006-.057-.013-.119-.025-.174-.007-.062-.02-.123-.034-.184-.011-.068-.027-.131-.044-.197l-.011-.041c-.04-.156-.088-.319-.149-.476 0-.003-.002-.005-.004-.006-.002-.002-.003-.004-.003-.007-.034-.095-.075-.19-.116-.285v-.001c-.143-.346-.334-.673-.552-.972-.047-.075-.102-.143-.163-.217-.13-.163-.266-.313-.409-.449-.048-.048-.095-.095-.143-.136l-.048-.043c-.046-.043-.094-.087-.15-.127-.006-.013-.02-.02-.034-.027l-.272-.204s0-.007-.007 0c-.122-.088-.252-.177-.388-.251-.075-.048-.157-.089-.239-.13-.143-.074-.292-.142-.442-.203-.102-.041-.218-.082-.327-.116-.123-.041-.239-.075-.361-.102l-.038-.007c-.012-.001-.024-.003-.037-.007l-.081-.018c-.071-.016-.145-.033-.219-.043l-.041-.007-.041-.006c-.115-.021-.238-.034-.354-.041-.02-.007-.047-.014-.068-.007-.123-.007-.245-.013-.375-.013h-1.191l-5.572 3.425-113.855-.713z" clip-rule="evenodd"/>
        </mask>
        <g mask="url(#ekwf5yvvub)">
            <path fill="#8AD0A6" d="M239.742 187.388v.727c0 2.875-2.336 11.803-5.217 11.803H90.399c-2.881 0-5.217-8.928-5.217-11.803v-.727l71.366-41.695c2.057-1.291 4.679-1.291 6.737 0l76.457 41.695z"/>
        </g>
        <g filter="url(#filter6_d)">
            <ellipse cx="158.784" cy="142.024" fill="#FF9432" rx="15.813" ry="15.78"/>
        </g>
        <g fill="#fff" stroke="#fff" stroke-width=".2" filter="url(#filter7_d)">
            <path d="M165.092 146.606h0c.283-.38.822-.459 1.203-.176l-1.203.176zm0 0c-.136.183-.282.362-.433.533h0m.433-.533l-.433.533m1.289 1.138s0 0 0 0l-.075-.067.075.067zm0 0c-.17.191-.407.289-.645.289m.645-.289l-.645.289m-.644-1.427c-.315.355-.282.898.074 1.212h.001m-.075-1.212l.075 1.212m0 0c.163.144.367.215.569.215m-.569-.215l.569.215M166.329 144.173h0c.067-.217.126-.44.175-.662l-.175.662zm0 0c-.14.453.114.934.568 1.074h0m-.568-1.074l.568 1.074m0 0c.085.026.17.039.254.039.367 0 .708-.237.822-.606m-1.076.567l1.288-1.371h0c-.059.27-.13.541-.212.804m0 0l-.096-.029.096.029zm-.446-1.826c-.464-.1-.922.193-1.023.657l1.002-.559.021-.098s0 0 0 0zM161.482 150.297h0c-.195-.432-.003-.941.43-1.136l-.43 1.136zm0 0c.144.318.457.506.785.506.118 0 .239-.025.353-.077h0m-1.138-.429l1.138.429m0 0c.252-.113.503-.239.744-.374.415-.231.564-.754.332-1.168-.231-.414-.755-.562-1.17-.331-.2.111-.406.215-.614.308l.708 1.565zM155.156 144.412h0c-.336.335-.336.879 0 1.214.168.168.388.252.608.252.22 0 .44-.084.608-.252h0l3.011-3.004c.161-.161.252-.38.252-.607v-4.991c0-.474-.385-.858-.86-.858s-.861.384-.861.858v4.635l-2.758 2.753z"/>
            <path d="M166.65 136.234c-1.813-2.635-4.838-4.265-8.11-4.265-2.626 0-5.095 1.021-6.952 2.874h0c-1.857 1.853-2.879 4.317-2.879 6.937 0 2.621 1.022 5.085 2.879 6.938l.07-.07-.07.07c1.857 1.853 4.326 2.873 6.952 2.873h.016l.003-.001.002.001h.017c.277 0 .556-.011.831-.034l-.009-.1.009.1c.473-.04.825-.455.785-.928h0c-.04-.472-.455-.823-.929-.784l7.385-13.611zm0 0v-1.775c0-.474.386-.859.861-.859s.86.385.86.859v2.238c0 .882-.456 1.66-1.143 2.112-.024.017-.049.033-.074.047-.384.234-.834.369-1.316.369h-2.321c-.475 0-.86-.384-.86-.859 0-.474.385-.858.86-.858h1.913m1.22-1.274l-1.22 1.274m0 0c-1.467-2.351-4.068-3.821-6.89-3.821-4.473 0-8.111 3.631-8.111 8.093 0 4.463 3.638 8.094 8.111 8.094l.016.001h.005l.017-.001c.229 0 .46-.01.687-.029l6.165-12.337z"/>
        </g>
        <rect width="26.863" height="26.811" fill="url(#paint5_linear)" opacity=".15" rx="13.406" transform="matrix(0.983385 0.181534 -0.182265 0.983249 307.936 111.677)"/>
        <rect width="10.309" height="10.29" fill="url(#paint6_linear)" opacity=".4" rx="5.145" transform="matrix(0.9735 -0.228688 0.229591 0.973287 16.7578 188.131)"/>
        <rect width="7.102" height="7.089" fill="url(#paint7_linear)" opacity=".4" rx="3.545" transform="matrix(0.96606 0.258318 -0.259321 0.965791 253.797 49.5264)"/>
        <rect width="6.222" height="6.21" fill="url(#paint8_linear)" opacity=".4" rx="3" transform="matrix(0.96606 0.258318 -0.259321 0.965791 120.266 231.974)"/>
    </g>
    <defs>
        <linearGradient id="paint0_linear" x1="239.84" x2="8.401" y1="96.236" y2="229.812" gradientUnits="userSpaceOnUse">
            <stop stop-color="#FAFBFE"/>
            <stop offset="1" stop-color="#E1EDF8"/>
        </linearGradient>
        <linearGradient id="paint1_linear" x1="239.84" x2="8.401" y1="96.236" y2="229.812" gradientUnits="userSpaceOnUse">
            <stop stop-color="#FAFBFE"/>
            <stop offset="1" stop-color="#E1EDF8"/>
        </linearGradient>
        <linearGradient id="paint2_linear" x1="235.62" x2="177.964" y1="-41.271" y2="143.773" gradientUnits="userSpaceOnUse">
            <stop stop-color="#FAFBFE"/>
            <stop offset="1" stop-color="#E1EDF8"/>
        </linearGradient>
        <linearGradient id="paint3_linear" x1="235.62" x2="177.964" y1="-41.271" y2="143.773" gradientUnits="userSpaceOnUse">
            <stop stop-color="#FAFBFE"/>
            <stop offset="1" stop-color="#E1EDF8"/>
        </linearGradient>
        <linearGradient id="paint4_linear" x1="169.957" x2="18.786" y1="210.507" y2="94.552" gradientUnits="userSpaceOnUse">
            <stop stop-color="#678989" stop-opacity="0"/>
            <stop offset="1" stop-color="#678989"/>
        </linearGradient>
        <linearGradient id="paint5_linear" x1="30.738" x2="-21.826" y1="32.741" y2="-21.272" gradientUnits="userSpaceOnUse">
            <stop stop-color="#905CFD" stop-opacity="0"/>
            <stop offset="1" stop-color="#905CFD"/>
        </linearGradient>
        <linearGradient id="paint6_linear" x1="17.703" x2="-33.334" y1="21.141" y2="-33.098" gradientUnits="userSpaceOnUse">
            <stop stop-color="#905CFD" stop-opacity="0"/>
            <stop offset="1" stop-color="#905CFD"/>
        </linearGradient>
        <linearGradient id="paint7_linear" x1="7.134" x2="-1.382" y1="10.657" y2="-10.461" gradientUnits="userSpaceOnUse">
            <stop stop-color="#FFB59C"/>
            <stop offset="1" stop-color="#FFB59C" stop-opacity="0"/>
        </linearGradient>
        <linearGradient id="paint8_linear" x1="6.25" x2="-1.21" y1="9.336" y2="-9.164" gradientUnits="userSpaceOnUse">
            <stop stop-color="#FFB59C"/>
            <stop offset="1" stop-color="#FFB59C" stop-opacity="0"/>
        </linearGradient>
        <filter id="filter0_f" width="327.274" height="208.37" x="21.663" y="-110.012" color-interpolation-filters="sRGB" filterUnits="userSpaceOnUse">
            <feFlood flood-opacity="0" result="BackgroundImageFix"/>
            <feBlend in="SourceGraphic" in2="BackgroundImageFix" result="shape"/>
            <feGaussianBlur result="effect1_foregroundBlur" stdDeviation="30"/>
        </filter>
        <filter id="filter1_f" width="259.151" height="363.245" x="161.081" y="-119.884" color-interpolation-filters="sRGB" filterUnits="userSpaceOnUse">
            <feFlood flood-opacity="0" result="BackgroundImageFix"/>
            <feBlend in="SourceGraphic" in2="BackgroundImageFix" result="shape"/>
            <feGaussianBlur result="effect1_foregroundBlur" stdDeviation="40"/>
        </filter>
        <filter id="filter2_f" width="410.409" height="329.544" x="-150.729" y="77.058" color-interpolation-filters="sRGB" filterUnits="userSpaceOnUse">
            <feFlood flood-opacity="0" result="BackgroundImageFix"/>
            <feBlend in="SourceGraphic" in2="BackgroundImageFix" result="shape"/>
            <feGaussianBlur result="effect1_foregroundBlur" stdDeviation="30"/>
        </filter>
        <filter id="filter3_f" width="255.74" height="365.132" x="-141.8" y="-33.02" color-interpolation-filters="sRGB" filterUnits="userSpaceOnUse">
            <feFlood flood-opacity="0" result="BackgroundImageFix"/>
            <feBlend in="SourceGraphic" in2="BackgroundImageFix" result="shape"/>
            <feGaussianBlur result="effect1_foregroundBlur" stdDeviation="40"/>
        </filter>
        <filter id="filter4_f" width="208.798" height="244.626" x="-12.2" y="17.688" color-interpolation-filters="sRGB" filterUnits="userSpaceOnUse">
            <feFlood flood-opacity="0" result="BackgroundImageFix"/>
            <feBlend in="SourceGraphic" in2="BackgroundImageFix" result="shape"/>
            <feGaussianBlur result="effect1_foregroundBlur" stdDeviation="30"/>
        </filter>
        <filter id="filter5_d" width="195.809" height="193.78" x="65.348" y="31.1" color-interpolation-filters="sRGB" filterUnits="userSpaceOnUse">
            <feFlood flood-opacity="0" result="BackgroundImageFix"/>
            <feColorMatrix in="SourceAlpha" values="0 0 0 0 0 0 0 0 0 0 0 0 0 0 0 0 0 0 127 0"/>
            <feOffset dx="4" dy="16"/>
            <feGaussianBlur stdDeviation="20"/>
            <feColorMatrix values="0 0 0 0 0.113725 0 0 0 0 0.203922 0 0 0 0 0.321569 0 0 0 0.06 0"/>
            <feBlend in2="BackgroundImageFix" result="effect1_dropShadow"/>
            <feBlend in="SourceGraphic" in2="effect1_dropShadow" result="shape"/>
        </filter>
        <filter id="filter6_d" width="34.626" height="35.561" x="142.971" y="126.243" color-interpolation-filters="sRGB" filterUnits="userSpaceOnUse">
            <feFlood flood-opacity="0" result="BackgroundImageFix"/>
            <feColorMatrix in="SourceAlpha" values="0 0 0 0 0 0 0 0 0 0 0 0 0 0 0 0 0 0 127 0"/>
            <feOffset dx="3" dy="4"/>
            <feColorMatrix values="0 0 0 0 1 0 0 0 0 0.580392 0 0 0 0 0.196078 0 0 0 0.25 0"/>
            <feBlend in2="BackgroundImageFix" result="effect1_dropShadow"/>
            <feBlend in="SourceGraphic" in2="effect1_dropShadow" result="shape"/>
        </filter>
        <filter id="filter7_d" width="19.862" height="23.822" x="148.609" y="131.869" color-interpolation-filters="sRGB" filterUnits="userSpaceOnUse">
            <feFlood flood-opacity="0" result="BackgroundImageFix"/>
            <feColorMatrix in="SourceAlpha" values="0 0 0 0 0 0 0 0 0 0 0 0 0 0 0 0 0 0 127 0"/>
            <feOffset dy="4"/>
            <feColorMatrix values="0 0 0 0 1 0 0 0 0 0.580392 0 0 0 0 0.196078 0 0 0 0.25 0"/>
            <feBlend in2="BackgroundImageFix" result="effect1_dropShadow"/>
            <feBlend in="SourceGraphic" in2="effect1_dropShadow" result="shape"/>
        </filter>
    </defs>
</svg>
