<svg xmlns="http://www.w3.org/2000/svg" width="60" height="42" fill="none" viewBox="0 0 60 42">
    <path fill="#FF9432" d="M51.321 4.187c-1.026.002-2.032.277-2.919.798-.886.521-1.62 1.27-2.128 2.169L38.949 20.04 31.626 7.154c-.434-.763-1.03-1.418-1.746-1.92-.77-.535-1.658-.874-2.587-.988-.236-.036-.474-.056-.712-.06-1.05-.004-2.08.28-2.982.824-.902.543-1.64 1.324-2.134 2.258-.474.87-.723 1.848-.723 2.842 0 .993.25 1.97.723 2.841.02.04.044.081.067.12l11.443 20.147.874 1.539c.513.94 1.269 1.723 2.188 2.265.663.388 1.396.64 2.156.741.76.101 1.533.049 2.273-.154.74-.202 1.434-.55 2.04-1.025.605-.474 1.112-1.065 1.49-1.738l12.378-21.774c2.238-3.94-.566-8.885-5.053-8.885zM26.513 28.929l-.035-.064L14.14 7.155c-.507-.9-1.241-1.648-2.128-2.17-.886-.52-1.893-.796-2.919-.798-4.486 0-7.291 4.946-5.053 8.886l12.325 21.685c.496.916 1.225 1.682 2.112 2.219.887.537 1.9.825 2.934.834 1.035.01 2.053-.26 2.95-.78.896-.52 1.64-1.273 2.151-2.18l.04-.07c.492-.896.747-1.907.74-2.932-.007-1.026-.275-2.032-.78-2.922v.002z"/>
</svg>
