<?xml version="1.0" encoding="UTF-8"?>
<svg width="24px" height="24px" viewBox="0 0 24 24" version="1.1" xmlns="http://www.w3.org/2000/svg" xmlns:xlink="http://www.w3.org/1999/xlink">
    <title>Group 7</title>
    <defs>
        <path d="M4.6001,2 C3.1661,2 2.0001,3.166 2.0001,4.6 C2.0001,11.988 8.0111,18 15.4001,18 C16.8331,18 18.0001,16.834 18.0001,15.4 C18.0001,15.289 17.9931,15.18 17.9791,15.072 L13.3591,14.012 C13.2671,14.188 13.1661,14.379 13.0741,14.557 C12.6181,15.427 12.2881,16.059 11.4461,15.72 C8.1401,14.56 5.4411,11.86 4.2661,8.514 C3.9091,7.729 4.5891,7.373 5.4511,6.923 C5.6261,6.831 5.8151,6.732 5.9881,6.642 L4.9281,2.021 C4.8171,2.007 4.7091,2 4.6001,2 M15.4001,20 C6.9081,20 0.0001,13.092 0.0001,4.6 C0.0001,2.063 2.0631,0 4.6001,0 C4.8601,0 5.1171,0.022 5.3661,0.065 C5.6091,0.104 5.8531,0.166 6.0911,0.248 C6.4161,0.361 6.6611,0.634 6.7381,0.97 L8.1071,6.934 C8.1831,7.262 8.0881,7.606 7.8541,7.85 C7.7181,7.992 7.7151,7.995 6.4751,8.644 C7.4791,10.818 9.2241,12.557 11.3541,13.527 C12.0041,12.286 12.0081,12.282 12.1501,12.146 C12.3941,11.912 12.7401,11.821 13.0661,11.893 L19.0311,13.262 C19.3661,13.339 19.6391,13.583 19.7511,13.908 C19.8331,14.144 19.8951,14.388 19.9361,14.639 C19.9781,14.886 20.0001,15.142 20.0001,15.4 C20.0001,17.937 17.9361,20 15.4001,20" id="path-1"></path>
    </defs>
    <g id="Page-1" stroke="none" stroke-width="1" fill="none" fill-rule="evenodd">
        <g id="Profile-page" transform="translate(-36.000000, -332.000000)">
            <g id="Group-14" transform="translate(32.000000, 328.000000)">
                <g id="Group-7" transform="translate(4.000000, 4.000000)">
                    <rect id="Rectangle" opacity="0" x="0" y="0" width="24" height="24"></rect>
                    <g id="27)-Icon/phone" transform="translate(2.000000, 2.000000)">
                        <mask id="mask-2" fill="white">
                            <use xlink:href="#path-1"></use>
                        </mask>
                        <use id="🎨-Icon-Сolor" fill="#000" xlink:href="#path-1"></use>
                    </g>
                </g>
            </g>
        </g>
    </g>
</svg>