<svg width="16" height="16" viewBox="0 0 16 16" fill="none" xmlns="http://www.w3.org/2000/svg">
<mask id="mask0_4572_4275" style="mask-type:alpha" maskUnits="userSpaceOnUse" x="0" y="0" width="16" height="16">
<rect width="16" height="16" fill="#C4C4C4"/>
</mask>
<g mask="url(#mask0_4572_4275)">
<g clip-path="url(#clip0_4572_4275)">
<path d="M13.5548 10.7346V12.4013C13.5554 12.556 13.5237 12.7092 13.4618 12.8509C13.3998 12.9927 13.3089 13.1199 13.1949 13.2245C13.0808 13.3291 12.9462 13.4088 12.7997 13.4583C12.6531 13.5079 12.4978 13.5263 12.3437 13.5124C10.6342 13.3266 8.99203 12.7425 7.54926 11.8068C6.20694 10.9539 5.06889 9.81583 4.21592 8.47351C3.27702 7.02418 2.69273 5.37406 2.51037 3.65684C2.49649 3.50321 2.51474 3.34838 2.56398 3.20219C2.61322 3.056 2.69235 2.92167 2.79635 2.80774C2.90035 2.69382 3.02693 2.60279 3.16803 2.54047C3.30913 2.47814 3.46167 2.44588 3.61592 2.44573H5.28259C5.55221 2.44308 5.81359 2.53855 6.01801 2.71436C6.22244 2.89017 6.35597 3.13431 6.3937 3.40129C6.46405 3.93466 6.59451 4.45836 6.78259 4.9624C6.85734 5.16125 6.87351 5.37735 6.82921 5.58511C6.7849 5.79287 6.68196 5.98357 6.53259 6.13462L5.82704 6.84018C6.6179 8.23104 7.76951 9.38265 9.16037 10.1735L9.86592 9.46795C10.017 9.31859 10.2077 9.21565 10.4154 9.17134C10.6232 9.12703 10.8393 9.14321 11.0381 9.21795C11.5422 9.40604 12.0659 9.5365 12.5993 9.60684C12.8691 9.64492 13.1156 9.78085 13.2918 9.98878C13.468 10.1967 13.5616 10.4622 13.5548 10.7346Z" stroke="#2E3537" stroke-width="1.2" stroke-linecap="round" stroke-linejoin="round"/>
</g>
</g>
<defs>
<clipPath id="clip0_4572_4275">
<rect width="13.3333" height="13.3333" fill="white" transform="translate(1.33203 1.33435)"/>
</clipPath>
</defs>
</svg>
