<svg xmlns="http://www.w3.org/2000/svg" width="16" height="16" fill="none" viewBox="0 0 16 16">
    <path fill="#2E3537" fill-rule="evenodd" d="M8 1.6c-2.647 0-4.8 2.153-4.8 4.8 0 3.327 4.333 7.698 4.517 7.883.078.078.18.117.283.117.102 0 .205-.04.283-.117C8.467 14.1 12.8 9.727 12.8 6.4c0-2.647-2.153-4.8-4.8-4.8zm0 11.822c-.955-1.023-4-4.48-4-7.022 0-2.205 1.794-4 4-4s4 1.795 4 4c0 2.54-3.045 6-4 7.022zM8 4C6.677 4 5.6 5.077 5.6 6.4S6.677 8.8 8 8.8s2.4-1.077 2.4-2.4S9.323 4 8 4zm0 4c-.882 0-1.6-.717-1.6-1.6 0-.882.718-1.6 1.6-1.6.882 0 1.6.718 1.6 1.6C9.6 7.283 8.882 8 8 8z" clip-rule="evenodd"/>
</svg>
