<svg width="64" height="60" viewBox="0 0 64 60" fill="none" xmlns="http://www.w3.org/2000/svg">
<path d="M16 60C7.16344 60 0 52.8366 0 44C0 35.1634 7.16344 28 16 28C24.8366 28 32 35.1634 32 44C32 52.8366 24.8366 60 16 60Z" fill="#E8EBEE"/>
<mask id="mask0" style="mask-type:alpha" maskUnits="userSpaceOnUse" x="0" y="28" width="32" height="32">
<path d="M16 60C7.16344 60 0 52.8366 0 44C0 35.1634 7.16344 28 16 28C24.8366 28 32 35.1634 32 44C32 52.8366 24.8366 60 16 60Z" fill="#EDEDED"/>
</mask>
<g mask="url(#mask0)">
<path d="M21.5122 42.8097C21.554 42.6946 22.5475 36.9848 22.6625 34.7678C22.7776 32.5508 19.0965 32.2267 19.0965 32.2267C19.0965 32.2267 16.0847 30.6058 13.8991 31.4319C11.724 32.2685 10.239 33.6698 9.24553 35.4058C8.25206 37.1522 10.1135 42.5901 10.1135 42.5901L21.5122 42.8097Z" fill="#2E2D3D"/>
<path d="M28.3517 61.1529C28.3622 61.0588 28.1008 58.8104 28.0903 58.7267C27.5883 53.9999 21.7531 52.6614 15.9387 52.6614C9.09946 52.6614 4.46678 53.9163 3.72429 58.8313C3.70338 58.9777 3.30599 61.2261 3.32691 61.3829C15.991 61.5503 28.3517 61.1529 28.3517 61.1529Z" fill="#5EBE84"/>
<path d="M14.754 56.3301C15.4338 57.334 15.9253 57.3759 16.6677 56.3301C17.2534 55.504 19.2089 53.6111 19.2089 52.6595L18.4037 43.1432C18.4037 42.1915 17.6194 41.4072 16.6677 41.4072H14.754C13.8024 41.4072 13.0181 42.1915 13.0181 43.1432L12.6416 52.6595C12.6521 53.6111 14.1475 55.4308 14.754 56.3301Z" fill="#FFB792"/>
<path d="M14.7595 41.4072H16.6733C17.6249 41.4072 18.4092 42.1915 18.4092 43.1432L19.1099 51.5928C16.9661 52.2726 14.0693 50.8922 12.7935 49.3549L13.034 43.1432C13.0236 42.1811 13.8079 41.4072 14.7595 41.4072Z" fill="#F2AC8C"/>
<g style="mix-blend-mode:multiply" opacity="0.6">
<path d="M22.2669 53.3487L19.2028 59.0062C19.2028 59.0062 17.561 57.6572 17.4042 57.9186C17.2473 58.18 17.697 61.516 17.697 61.516C17.697 61.516 14.0473 61.5683 13.8904 61.4114C13.7336 61.2546 14.6329 57.7931 14.2564 57.7931C13.8904 57.7931 12.7715 58.797 12.7715 58.797L9.35188 53.3487L10.1048 53.1709L15.6996 56.1827L21.7022 53.2336L22.2669 53.3487Z" fill="#5EBE84"/>
</g>
<path d="M18.7756 55.9616L16.4958 57.4779L17.2069 61.5355L14.1324 61.3577L14.9063 57.6766L13.0135 55.9616L13.9024 55.125H17.8867L18.7756 55.9616Z" fill="#F6B863"/>
<path d="M19.0473 50.5766L21.8604 53.2537C21.8604 53.2537 18.9951 58.3466 18.8382 58.3466C18.6813 58.3466 16.412 55.5335 16.412 55.5335L14.9585 55.5126L12.6578 57.9283L9.99113 53.2015L12.7101 50.3152C12.7101 50.3152 15.0317 54.8119 15.4604 54.9165C15.8787 55.0211 15.8892 55.0734 16.2238 54.8119C16.5689 54.54 19.0473 50.5766 19.0473 50.5766Z" fill="#5EBE84"/>
<path d="M15.7185 49.3643C12.5304 49.3643 9.94599 45.8435 9.94599 41.5003C9.94599 37.1571 12.5304 33.6362 15.7185 33.6362C18.9066 33.6362 21.4911 37.1571 21.4911 41.5003C21.4911 45.8435 18.9066 49.3643 15.7185 49.3643Z" fill="#FFB792"/>
<path d="M20.8936 41.3768C20.3498 42.5167 20.5276 43.7297 21.291 44.0853C22.0439 44.4409 23.1001 43.8134 23.6439 42.684C24.1877 41.5441 24.0099 40.3311 23.2465 39.9755C22.4832 39.6095 21.4374 40.2474 20.8936 41.3768Z" fill="#FFB792"/>
<path d="M10.7948 41.3768C11.3386 42.5167 11.1608 43.7297 10.3974 44.0853C9.64449 44.4409 8.58828 43.8134 8.04449 42.684C7.5007 41.5441 7.67847 40.3311 8.44187 39.9755C9.20527 39.6095 10.2615 40.2474 10.7948 41.3768Z" fill="#FFB792"/>
<path d="M13.1582 44.7212C13.1582 44.7212 14.3086 46.5826 15.7203 46.5826C17.1321 46.5826 18.2824 44.7212 18.2824 44.7212H13.1582Z" fill="white"/>
<path d="M19.0989 36.1465C16.7251 34.4838 15.6479 34.7557 13.8702 37.4955C12.0819 40.2354 9.94859 40.2772 9.94859 40.2772L9.66624 37.4432C9.66624 37.4432 12.3224 32.2982 15.8885 32.9779C19.4545 33.6472 21.4832 36.8576 21.4832 36.8576C21.4832 36.8576 21.661 42.8707 21.159 43.0799C20.6571 43.289 20.6048 41.1348 20.2492 40.706C19.8937 40.2668 20.6048 38.2066 20.1342 37.255C19.6636 36.3138 19.0989 36.1465 19.0989 36.1465Z" fill="#2E2D3D"/>
<path d="M11.4524 39.2385C10.6262 40.1483 10.94 43.7562 10.5008 43.7143C10.0615 43.6725 9.90468 40.2634 10.0302 39.9078C10.1452 39.5523 11.4524 39.2385 11.4524 39.2385Z" fill="#2E2D3D"/>
</g>
<path d="M41.2891 45C28.8627 45 18.7891 34.9264 18.7891 22.5C18.7891 10.0736 28.8627 0 41.2891 0C53.7155 0 63.7891 10.0736 63.7891 22.5C63.7891 34.9264 53.7155 45 41.2891 45Z" fill="#E8EBEE"/>
<mask id="mask1" style="mask-type:alpha" maskUnits="userSpaceOnUse" x="18" y="0" width="46" height="45">
<path d="M19.2891 22.5C19.2891 34.6503 29.1388 44.5 41.2891 44.5C53.4393 44.5 63.2891 34.6503 63.2891 22.5C63.2891 10.3497 53.4393 0.5 41.2891 0.5C29.1388 0.5 19.2891 10.3497 19.2891 22.5Z" fill="#EDEDED" stroke="white"/>
</mask>
<g mask="url(#mask1)">
<path d="M56.7051 43.4304C53.9845 37.5774 49.3815 35.6951 41.808 35.6951C32.808 35.6951 26.8374 41.2539 25.5139 46.0039C41.6463 46.2392 56.7051 43.4304 56.7051 43.4304Z" fill="#9562FF"/>
<path d="M44.956 7.22575C48.7649 8.29928 48.6031 10.4316 49.8678 12.4316C51.1325 14.4169 53.8972 15.7405 54.2355 17.0787C54.5737 18.4022 53.3825 21.1669 54.7943 22.711C56.1913 24.2552 56.6766 25.0346 56.1178 26.5787C55.559 28.1228 54.3531 30.5493 54.2355 30.8875C54.1178 31.2258 52.5737 33.5346 50.706 33.8728C48.8237 34.211 45.2943 34.7552 43.5296 35.5346C41.7649 36.314 36.0737 34.5493 32.9266 34.6522C29.7649 34.7699 27.6178 32.4316 27.8384 30.8875C28.059 29.3434 25.5149 26.2405 25.5149 23.5934C25.5149 20.7405 28.8237 18.6228 29.706 16.7405C30.5884 14.8581 29.5884 11.5493 32.9119 9.5787C35.0002 8.3434 36.4413 8.44634 38.1031 7.90223C39.7649 7.3434 42.5296 6.54928 44.956 7.22575Z" fill="#3A384D"/>
<path d="M40.3196 40.3733C41.1872 41.6527 41.8196 41.6968 42.746 40.3733C43.496 39.3145 44.9519 36.9174 44.9519 35.7115V23.5792C44.9519 22.3586 43.9519 21.3733 42.746 21.3733H40.3196C39.099 21.3733 38.1137 22.3733 38.1137 23.5792V35.7115C38.1137 36.9321 39.5401 39.2409 40.3196 40.3733Z" fill="#FFB792"/>
<path d="M40.3196 21.3733H42.746C43.9666 21.3733 44.9519 22.3733 44.9519 23.5792V34.4027C42.2166 35.2703 39.7313 33.5498 38.099 31.5939V23.5792C38.1137 22.3733 39.099 21.3733 40.3196 21.3733Z" fill="#F2AC8C"/>
<path d="M41.5277 31.5172C37.4668 31.5172 34.1747 27.0335 34.1747 21.5025C34.1747 15.9715 37.4668 11.4878 41.5277 11.4878C45.5886 11.4878 48.8806 15.9715 48.8806 21.5025C48.8806 27.0335 45.5886 31.5172 41.5277 31.5172Z" fill="#FFB792"/>
<path d="M38.1182 13.5326C42.7653 21.3709 49.6035 20.6062 49.6035 20.6062C49.6035 20.6062 49.4418 10.2238 44.0006 9.665C38.5594 9.10617 35.3535 11.2973 34.2506 14.9003C33.1476 18.5032 34.2506 20.8856 34.2506 20.8856C34.2506 20.8856 36.0153 19.5032 36.8976 17.2973C37.78 15.0768 38.1182 13.5326 38.1182 13.5326Z" fill="#3A384D"/>
<path d="M48.1349 21.3391C47.4437 22.7802 47.679 24.3244 48.6349 24.795C49.6055 25.2508 50.9437 24.4567 51.6202 23.0008C52.3113 21.5597 52.0761 20.0155 51.1202 19.5449C50.1643 19.0891 48.8261 19.8979 48.1349 21.3391Z" fill="#FFB792"/>
<path d="M35.2813 21.3391C35.9725 22.7802 35.7372 24.3244 34.7813 24.795C33.8107 25.2508 32.4725 24.4567 31.796 23.0008C31.1048 21.5597 31.3401 20.0155 32.296 19.5449C33.2519 19.0891 34.5901 19.8979 35.2813 21.3391Z" fill="#FFB792"/>
<path d="M38.7743 26.9258C38.7743 26.9258 40.0096 28.5287 41.539 28.5287C43.0684 28.5287 44.3037 26.9258 44.3037 26.9258H38.7743Z" fill="white"/>
</g>
<circle r="24" transform="matrix(-1 0 0 1 41.2891 22.5)" stroke="white" stroke-width="3"/>
</svg>
