<svg width="50" height="50" viewBox="0 0 50 50" fill="none" xmlns="http://www.w3.org/2000/svg">
<g clip-path="url(#clip0)">
<path d="M38.2953 46.89C38.2605 46.7155 36.1409 36.0669 36.1175 35.9575C35.863 34.7249 35.1732 33.7807 34.1609 33.1724C33.5541 32.8064 33.2095 32.7481 32.8159 32.6271C33.0926 32.7238 27.7435 30.8543 25.588 30.1009C25.1614 29.9546 24.8748 29.5534 24.8748 29.1025V26.8892C22.1063 28.2734 19.2032 28.186 16.6263 26.9285V29.1025C16.6263 29.5534 16.3398 29.9547 15.9132 30.1009C15.6094 30.2051 17.0137 29.7236 12.9419 31.1197H12.9391C12.9392 31.12 12.9394 31.1203 12.9394 31.1203L12.9391 31.1208L8.68823 32.6271C8.49199 32.685 8.10432 32.7994 8.129 32.7921C7.11772 33.1693 6.24081 33.8855 5.74943 34.887C5.40929 35.577 5.5102 35.3347 3.8596 43.6204C3.24842 46.7854 3.11348 47.0159 3.18991 47.723C3.40264 49.6995 5.4356 49.4932 5.49064 49.5172C9.38866 49.5172 21.135 49.5172 20.765 49.5172C20.806 49.5172 22.5627 49.5172 22.4535 49.5172C25.1679 49.5172 34.7908 49.5172 36.013 49.5172C36.0348 49.5099 38.694 49.7123 38.2953 46.89Z" fill="#5EBE84"/>
<g style="mix-blend-mode:multiply" opacity="0.5">
<path d="M5.69085 46.8897L7.86849 34.964C7.83832 35.1088 8.03013 33.3688 9.66714 32.2795C7.8389 32.9273 8.40555 32.6682 7.84353 32.909C6.78261 33.3882 5.95986 34.2022 5.55418 35.3494C5.39186 35.8101 5.49712 35.4051 3.85914 43.62C3.24796 46.7849 3.11312 47.0157 3.18945 47.7225C3.40218 49.699 5.43514 49.4927 5.49018 49.5167C5.73249 49.5167 7.67379 49.5167 7.97287 49.5167C6.22116 49.5168 5.46425 48.4925 5.69085 46.8897Z" fill="#9562FF"/>
</g>
<path d="M9.98367 49.5169C8.56613 49.5169 6.93336 49.5169 5.49037 49.5169C5.43283 49.4917 3.11563 49.7245 3.17355 47.3089C3.18618 46.7938 3.25066 46.7721 3.85934 43.62L3.89452 43.4434H9.98367V49.5169Z" fill="#FFB792"/>
<path d="M6.31973 43.4441H3.89389L3.85871 43.6207C3.24782 46.7838 3.18556 46.7937 3.17293 47.3095C3.1152 49.7171 5.44406 49.4976 5.48975 49.5175C5.73206 49.5175 7.67336 49.5175 7.97245 49.5175C6.35905 49.5175 5.62305 48.6688 5.65563 47.3095C5.65948 47.1518 5.71828 46.8218 6.31973 43.4441Z" fill="#F2AC8C"/>
<path d="M16.6267 26.5461C16.6267 32.7202 16.6267 25.8428 16.6268 30.7057H16.6294V30.8543C16.6294 31.8421 17.2603 32.7202 18.197 33.0338C19.7003 33.5372 21.6303 33.5945 23.3048 33.0338C24.2416 32.7202 24.8724 31.8422 24.8724 30.8543V30.7057H24.875C24.875 29.738 24.8751 27.0637 24.8751 26.5461C22.2028 27.971 19.1895 27.9127 16.6267 26.5461Z" fill="#FFB792"/>
<path d="M19.1116 31.531H19.1084C19.1082 26.362 19.1083 28.0843 19.1082 27.7233C18.2514 27.5515 17.4158 27.2566 16.6255 26.8352C16.6255 33.0093 16.6255 25.8427 16.6256 30.7056H16.6282V30.8542C16.6282 31.8421 17.2592 32.7201 18.1959 33.0338C18.6591 33.1888 19.1482 33.3009 19.6561 33.3657C19.0248 32.5085 19.1213 31.5967 19.1116 31.531Z" fill="#F2AC8C"/>
<g style="mix-blend-mode:multiply" opacity="0.5">
<path d="M10.7554 41.0076C10.344 41.0076 10.0105 41.341 10.0105 41.7524V49.5173C10.5271 49.5173 10.9456 49.5173 11.5001 49.5173V41.7524C11.5002 41.341 11.1667 41.0076 10.7554 41.0076Z" fill="#9562FF"/>
</g>
<path d="M44.8634 49.5169H20.7502C19.7441 49.5169 18.9285 48.7012 18.9285 47.6952C18.9285 47.1186 19.3959 46.6511 19.9725 46.6511H45.6411C46.2176 46.6511 46.6851 47.1186 46.6851 47.6952C46.6851 48.7012 45.8695 49.5169 44.8634 49.5169Z" fill="#C6C6C6"/>
<path d="M23.6207 47.6952C23.6207 47.1186 24.0882 46.6511 24.6648 46.6511H19.9725C19.3959 46.6511 18.9285 47.1186 18.9285 47.6952V47.6953C18.9285 48.7013 19.7441 49.517 20.7502 49.517H25.4423C24.4362 49.5169 23.6207 48.7012 23.6207 47.6952Z" fill="#B7B7B7"/>
<path d="M43.2836 30.7061H22.3293C21.6739 30.7061 21.1376 31.2423 21.1376 31.8978V45.4597C21.1376 46.1151 21.6739 46.6514 22.3293 46.6514H43.2836C43.939 46.6514 44.4753 46.1151 44.4753 45.4597V31.8978C44.4753 31.2423 43.939 30.7061 43.2836 30.7061Z" fill="#EDEDED"/>
<path d="M23.6208 45.4597V31.8978C23.6208 31.2423 24.1571 30.7061 24.8125 30.7061H22.3298C21.6744 30.7061 21.1381 31.2423 21.1381 31.8978V45.4597C21.1381 46.1151 21.6744 46.6514 22.3298 46.6514H24.8125C24.1571 46.6514 23.6208 46.1151 23.6208 45.4597Z" fill="#DADADA"/>
<path d="M32.8074 40.3997C33.7581 40.3997 34.5288 39.6291 34.5288 38.6784C34.5288 37.7277 33.7581 36.957 32.8074 36.957C31.8567 36.957 31.0861 37.7277 31.0861 38.6784C31.0861 39.6291 31.8567 40.3997 32.8074 40.3997Z" fill="#5EBE84"/>
<g style="mix-blend-mode:multiply">
<path d="M32.8079 36.9592C31.4954 36.9571 30.6499 38.3856 31.3163 39.5398C31.983 40.6945 33.6427 40.6757 34.297 39.5385C32.973 39.5367 32.1463 38.1088 32.8079 36.9592Z" fill="#5EBE84"/>
</g>
<path d="M20.5263 0.180401C14.111 0.204883 8.69482 5.44209 8.69482 12.0958V16.6114H32.5289C32.5289 12.3322 32.5289 13.6842 32.5289 9.85587C32.5289 5.24161 29.6901 4.17867 29.6901 4.17867C26.1597 -0.174394 20.5311 0.180305 20.5311 0.180305" fill="#4C4846"/>
<path d="M22.1349 0.252033C14.8642 -0.575629 8.94745 4.91208 8.7036 11.6267C8.6848 12.1095 8.69743 11.9289 8.69348 16.6119H11.5323V12.0963C11.5323 5.93223 16.1983 0.903599 22.1349 0.252033Z" fill="#3D3938"/>
<path d="M11.6288 15.1934C10.1341 14.6607 8.51141 15.6513 8.51141 17.0965C8.51141 18.5413 10.1339 19.5324 11.6288 18.9996V15.1934Z" fill="#FFB792"/>
<path d="M29.5921 15.1934C31.0868 14.6607 32.7095 15.6513 32.7095 17.0965C32.7095 18.5413 31.087 19.5324 29.5921 18.9996V15.1934Z" fill="#FFB792"/>
<path d="M8.73051 16.2207C7.85736 17.8782 9.69572 19.6881 11.6296 18.999V17.2488C10.5018 17.6505 9.24078 17.1896 8.73051 16.2207Z" fill="#F2AC8C"/>
<path d="M29.5936 17.2488V18.999C31.5273 19.6881 33.3657 17.8783 32.4926 16.2207C32.1275 16.9141 30.7218 17.6507 29.5936 17.2488Z" fill="#F2AC8C"/>
<path d="M29.2801 11.4218C29.5116 11.4442 29.6898 11.6363 29.6898 11.8689C29.6898 19.5122 29.6948 18.9351 29.6769 19.2905C29.5592 21.6152 28.5649 23.7497 26.9479 25.3275C21.2813 30.8525 11.8255 26.9342 11.541 19.1843C11.5277 18.8426 11.5333 14.8838 11.5333 14.895C11.5333 13.115 13.113 11.757 14.8747 12.0113C17.6494 12.4118 21.6994 12.2563 25.2333 9.23553C25.5964 8.92517 26.1475 9.02541 26.3794 9.44305C26.8173 10.2316 27.6879 11.2682 29.2801 11.4218Z" fill="#FFB792"/>
<path d="M14.0242 19.1847C14.0128 18.8917 14.0152 13.5291 14.0162 12.0142C12.6304 12.2221 11.5326 13.4118 11.5326 14.8954C11.5326 14.8842 11.527 18.843 11.5403 19.1847C11.7499 24.8988 16.9454 28.529 21.9318 27.8279C17.8376 27.2618 14.1989 23.9473 14.0242 19.1847Z" fill="#F2AC8C"/>
</g>
<defs>
<clipPath id="clip0">
<rect width="49.3494" height="49.3494" fill="white" transform="translate(0.252991 0.168701)"/>
</clipPath>
</defs>
</svg>
