
<svg xmlns="http://www.w3.org/2000/svg" width="24" height="24" viewBox="0 0 24 24">
    <g fill="none" fill-rule="evenodd">
        <g>
            <g>
                <g>
                    <path fill="#D8D8D8" fill-opacity="0" d="M0 0H24V24H0z" transform="translate(-1245 -213) translate(1221 45) translate(24 168)"/>
                    <g fill="#67818A" fill-rule="nonzero">
                        <path stroke="#67818A" stroke-width=".579" d="M10.467.022C4.76.022.117 4.632.117 10.3c0 5.667 4.643 10.277 10.35 10.277s10.35-4.61 10.35-10.277c0-5.666-4.643-10.277-10.35-10.277zm0 19.278c-4.998 0-9.064-4.038-9.064-9 0-4.963 4.066-9.001 9.064-9.001s9.064 4.038 9.064 9c0 4.963-4.066 9.001-9.064 9.001z" transform="translate(-1245 -213) translate(1221 45) translate(24 168) translate(1.5 1.5)"/>
                        <path d="M6.857 8.91c.376 0 .681.304.681.677h1.286c0-1.077-.882-1.953-1.967-1.953-1.084 0-1.967.876-1.967 1.953h1.286c0-.373.306-.677.68-.677zM13.962 7.634c-1.085 0-1.967.876-1.967 1.953h1.285c0-.373.306-.677.682-.677.375 0 .681.304.681.677h1.286c0-1.077-.883-1.953-1.967-1.953zM14.064 12.512h-7.01c-.47 0-.826.429-.73.885.411 1.948 2.151 3.41 4.235 3.41 2.083 0 3.823-1.462 4.234-3.41.096-.456-.26-.885-.73-.885z" transform="translate(-1245 -213) translate(1221 45) translate(24 168) translate(1.5 1.5)"/>
                    </g>
                </g>
            </g>
        </g>
    </g>
</svg>
