<?xml version="1.0" encoding="UTF-8"?>
<svg width="392px" height="272px" viewBox="0 0 392 272" version="1.1" xmlns="http://www.w3.org/2000/svg" xmlns:xlink="http://www.w3.org/1999/xlink">
    <title>image</title>
    <defs>
        <rect id="path-1" x="0" y="0" width="360" height="240" rx="8"></rect>
        <filter x="-7.2%" y="-9.2%" width="114.4%" height="121.7%" filterUnits="objectBoundingBox" id="filter-3">
            <feOffset dx="0" dy="4" in="SourceAlpha" result="shadowOffsetOuter1"></feOffset>
            <feGaussianBlur stdDeviation="8" in="shadowOffsetOuter1" result="shadowBlurOuter1"></feGaussianBlur>
            <feColorMatrix values="0 0 0 0 0   0 0 0 0 0   0 0 0 0 0  0 0 0 0.04 0" type="matrix" in="shadowBlurOuter1"></feColorMatrix>
        </filter>
        <linearGradient x1="50%" y1="92.314674%" x2="77.3108593%" y2="-15.8787021%" id="linearGradient-4">
            <stop stop-color="#90B2BD" offset="0%"></stop>
            <stop stop-color="#C3D9E0" offset="100%"></stop>
        </linearGradient>
        <filter x="-13.6%" y="-13.6%" width="127.3%" height="127.3%" filterUnits="objectBoundingBox" id="filter-5">
            <feGaussianBlur stdDeviation="2" in="SourceGraphic"></feGaussianBlur>
        </filter>
        <filter x="-7.7%" y="-7.7%" width="115.4%" height="115.4%" filterUnits="objectBoundingBox" id="filter-6">
            <feGaussianBlur stdDeviation="1" in="SourceGraphic"></feGaussianBlur>
        </filter>
        <filter x="-27.3%" y="-27.3%" width="154.5%" height="154.5%" filterUnits="objectBoundingBox" id="filter-7">
            <feGaussianBlur stdDeviation="2" in="SourceGraphic"></feGaussianBlur>
        </filter>
        <linearGradient x1="73.4814612%" y1="95.9886742%" x2="64.0154441%" y2="17.7001479%" id="linearGradient-8">
            <stop stop-color="#C3D9E0" offset="0%"></stop>
            <stop stop-color="#90B2BD" offset="100%"></stop>
        </linearGradient>
        <filter x="-14.8%" y="-19.8%" width="129.6%" height="139.7%" filterUnits="objectBoundingBox" id="filter-9">
            <feGaussianBlur stdDeviation="2" in="SourceGraphic"></feGaussianBlur>
        </filter>
        <linearGradient x1="54.1866945%" y1="132.592096%" x2="52.4989238%" y2="-8.0080319%" id="linearGradient-10">
            <stop stop-color="#C3D9E0" offset="0%"></stop>
            <stop stop-color="#90B2BD" offset="100%"></stop>
        </linearGradient>
        <filter x="-12.4%" y="-5.2%" width="124.7%" height="110.4%" filterUnits="objectBoundingBox" id="filter-11">
            <feGaussianBlur stdDeviation="1" in="SourceGraphic"></feGaussianBlur>
        </filter>
        <linearGradient x1="58.2187744%" y1="132.592096%" x2="54.9055624%" y2="-8.0080319%" id="linearGradient-12">
            <stop stop-color="#C3D9E0" offset="0%"></stop>
            <stop stop-color="#90B2BD" offset="100%"></stop>
        </linearGradient>
        <linearGradient x1="73.4814612%" y1="58.2287602%" x2="64.0154441%" y2="44.2205828%" id="linearGradient-13">
            <stop stop-color="#C3D9E0" offset="0%"></stop>
            <stop stop-color="#90B2BD" offset="100%"></stop>
        </linearGradient>
    </defs>
    <g id="Page-1" stroke="none" stroke-width="1" fill="none" fill-rule="evenodd">
        <g id="image" transform="translate(16.000000, 12.000000)">
            <mask id="mask-2" fill="white">
                <use xlink:href="#path-1"></use>
            </mask>
            <g id="Mask" transform="translate(180.000000, 120.000000) scale(-1, 1) translate(-180.000000, -120.000000) " fill="black" fill-opacity="1">
                <use filter="url(#filter-3)" xlink:href="#path-1"></use>
            </g>
            <rect id="Rectangle" fill="#FFFFFF" mask="url(#mask-2)" transform="translate(180.000000, 122.000000) scale(-1, 1) translate(-180.000000, -122.000000) " x="0" y="2" width="360" height="240"></rect>
            <g id="Group-152" mask="url(#mask-2)">
                <g transform="translate(0.000000, 1.000000)">
                    <rect id="Mask" fill-opacity="0.2" fill="#90B2BD" transform="translate(180.000000, 120.000000) scale(-1, 1) translate(-180.000000, -120.000000) " x="0" y="0" width="360" height="240" rx="8"></rect>
                    <g id="Group-153" stroke-width="1" fill="none" transform="translate(63.000000, 63.000000)">
                        <path d="M178,151.44 L178,128.56 C178,122.727873 182.727873,118 188.56,118 L211.44,118 C217.272127,118 222,122.727873 222,128.56 L222,151.44 C222,157.272127 217.272127,162 211.44,162 L188.56,162 C182.727873,162 178,157.272127 178,151.44 Z" id="Rectangle-Copy-121" fill-opacity="0.2" fill="url(#linearGradient-4)" filter="url(#filter-5)" transform="translate(200.000000, 140.000000) rotate(-17.000000) translate(-200.000000, -140.000000) "></path>
                        <path d="M217,14.16 L217,5.84 C217,3.71922656 218.719227,2 220.84,2 L229.16,2 C231.280773,2 233,3.71922656 233,5.84 L233,14.16 C233,16.2807734 231.280773,18 229.16,18 L220.84,18 C218.719227,18 217,16.2807734 217,14.16 Z" id="Rectangle-Copy-123" fill-opacity="0.35" fill="url(#linearGradient-4)" transform="translate(225.000000, 10.000000) rotate(-17.000000) translate(-225.000000, -10.000000) "></path>
                        <path d="M48,146.64 L48,126.36 C48,121.190615 52.1906147,117 57.36,117 L77.64,117 C82.8093853,117 87,121.190615 87,126.36 L87,146.64 C87,151.809385 82.8093853,156 77.64,156 L57.36,156 C52.1906147,156 48,151.809385 48,146.64 Z" id="Rectangle-Copy-127" fill-opacity="0.35" fill="url(#linearGradient-4)" filter="url(#filter-6)" transform="translate(67.500000, 136.500000) rotate(-17.000000) translate(-67.500000, -136.500000) "></path>
                        <path d="M3,39.72 L3,28.28 C3,25.3639365 5.36393652,23 8.28,23 L19.72,23 C22.6360635,23 25,25.3639365 25,28.28 L25,39.72 C25,42.6360635 22.6360635,45 19.72,45 L8.28,45 C5.36393652,45 3,42.6360635 3,39.72 Z" id="Rectangle-Copy-128" fill-opacity="0.35" fill="url(#linearGradient-4)" filter="url(#filter-7)" transform="translate(14.000000, 34.000000) rotate(-17.000000) translate(-14.000000, -34.000000) "></path>
                    </g>
                    <path d="M38.233,0 L39.9959069,5.76216451 C42.0498363,12.4802647 38.2687787,19.5913997 31.5506785,21.6453291 L5.19491941,29.7030933 C3.45815823,30.2340745 1.69512959,30.3750893 -9.34807787e-14,30.176207 L0.00061054007,8.00016862 C0.00061054007,3.58189063 3.58233254,0.00016862379 8.00061054,0.00016862379 L8.00061054,0.00016862379 L38.233,0 Z" id="Combined-Shape" fill-opacity="0.4" fill="url(#linearGradient-8)" filter="url(#filter-9)"></path>
                    <path d="M0.00061054007,64 L18.7483545,76.6453112 C24.4625073,80.4995559 25.9702607,88.2562747 22.116016,93.9704275 L6.99543988,116.387603 C5.26885032,118.947378 2.75912029,120.66302 0.000696293689,121.430646 L0.00061054007,64 Z" id="Combined-Shape" fill-opacity="0.4" fill="url(#linearGradient-10)" filter="url(#filter-11)"></path>
                    <path d="M342.004618,67.2193977 L360.305611,77.785 L360.305888,232.305278 C360.305888,236.640192 356.85805,240.16982 352.555067,240.301471 L352.305888,240.305278 L345.797611,240.305 L268.004618,195.391157 C256.525595,188.76374 252.592591,174.085571 259.220008,162.606548 L309.220008,76.0040074 C315.847425,64.5249844 330.525595,60.5919807 342.004618,67.2193977 Z" id="Combined-Shape" fill-opacity="0.2" fill="url(#linearGradient-12)"></path>
                    <path d="M348.713,0.000562489675 C349.423216,0.000562489675 350.111816,0.093110346 350.767398,0.266804077 C348.794327,5.78210723 344.330987,10.3272601 338.299007,12.1714213 L298.516729,24.3340842 C288.376201,27.4343549 277.642412,21.7270982 274.542141,11.5865696 L271,0 Z" id="Combined-Shape" fill-opacity="0.2" fill="url(#linearGradient-13)"></path>
                </g>
            </g>
        </g>
    </g>
</svg>