<svg width="84" height="85" viewBox="0 0 84 85" fill="none" xmlns="http://www.w3.org/2000/svg">
<g style="mix-blend-mode:multiply">
<circle cx="42" cy="42" r="42" fill="#F9F9FC"/>
<circle cx="42" cy="42" r="42" stroke="#F2F5F9"/>
</g>
<circle cx="42" cy="42" r="32" fill="white"/>
<path d="M60.8676 43.2759H59.0688V50.4138H62.2413V44.6495C62.2413 43.8905 61.6258 43.2759 60.8676 43.2759Z" fill="#959BB7"/>
<path d="M26.5517 37.7241H22.3737C21.6154 37.7241 21 38.3388 21 39.0978V72.9855C21.0547 72.9871 21.1094 72.9903 21.1626 72.9934L26.5517 58.3448V37.7241Z" fill="#959BB7"/>
<g filter="url(#filter0_d_3259:3888)">
<path d="M29.1745 64.2427C29.3197 63.3891 29.8084 62.7958 30.3666 62.7958H31.9455H52.6C54.8402 62.7958 55.9603 62.7958 56.816 62.3598C57.5686 61.9763 58.1805 61.3644 58.564 60.6117C59 59.7561 59 58.636 59 56.3958V47.7754V35.4C59 33.1598 59 32.0397 58.564 31.184C58.1805 30.4314 57.5686 29.8195 56.816 29.436C55.9603 29 54.8402 29 52.6 29H47.1579H32.6756C30.6456 29 29 30.6456 29 32.6756V64.2229C29 64.3281 29.1509 64.3452 29.1745 64.2427Z" fill="white"/>
<path d="M29.1745 64.2427C29.3197 63.3891 29.8084 62.7958 30.3666 62.7958H31.9455H52.6C54.8402 62.7958 55.9603 62.7958 56.816 62.3598C57.5686 61.9763 58.1805 61.3644 58.564 60.6117C59 59.7561 59 58.636 59 56.3958V47.7754V35.4C59 33.1598 59 32.0397 58.564 31.184C58.1805 30.4314 57.5686 29.8195 56.816 29.436C55.9603 29 54.8402 29 52.6 29H47.1579H32.6756C30.6456 29 29 30.6456 29 32.6756V64.2229C29 64.3281 29.1509 64.3452 29.1745 64.2427Z" stroke="#BCC1D3" stroke-width="0.5"/>
</g>
<path d="M34.4826 41.6897H53.517C53.9548 41.6897 54.3101 41.3352 54.3101 40.8966C54.3101 40.458 53.9548 40.1035 53.517 40.1035H34.4826C34.0448 40.1035 33.6895 40.458 33.6895 40.8966C33.6895 41.3352 34.0448 41.6897 34.4826 41.6897Z" fill="#FF9432"/>
<path d="M34.4826 36.138H42.4136C42.8514 36.138 43.2067 35.7834 43.2067 35.3449C43.2067 34.9063 42.8514 34.5518 42.4136 34.5518H34.4826C34.0448 34.5518 33.6895 34.9063 33.6895 35.3449C33.6895 35.7834 34.0448 36.138 34.4826 36.138Z" fill="#DBD8DD"/>
<path d="M53.517 45.6553H34.4826C34.0448 45.6553 33.6895 46.0098 33.6895 46.4484C33.6895 46.887 34.0448 47.2415 34.4826 47.2415H53.517C53.9548 47.2415 54.3101 46.887 54.3101 46.4484C54.3101 46.0098 53.9548 45.6553 53.517 45.6553Z" fill="#DBD8DD"/>
<g filter="url(#filter1_d_3259:3888)">
<path d="M28.5436 52.8727C28.6885 52.4756 28.7609 52.277 28.8118 52.0732C28.857 51.8922 28.8895 51.7082 28.9091 51.5226C28.9311 51.3138 28.9311 51.1024 28.9311 50.6797V31.5862C27.617 31.5862 26.5518 32.6514 26.5518 33.9655V58.3337L28.5436 52.8727Z" fill="white"/>
<path d="M28.5436 52.8727C28.6885 52.4756 28.7609 52.277 28.8118 52.0732C28.857 51.8922 28.8895 51.7082 28.9091 51.5226C28.9311 51.3138 28.9311 51.1024 28.9311 50.6797V31.5862C27.617 31.5862 26.5518 32.6514 26.5518 33.9655V58.3337L28.5436 52.8727Z" stroke="#BCC1D3" stroke-width="0.5"/>
</g>
<path d="M57.7398 75H22.2413C21.4244 75 20.8304 74.2244 21.0437 73.4352L29.1064 51.3306C29.2524 50.7897 29.7433 50.4138 30.304 50.4138H65.8025C66.6194 50.4138 67.0001 51.1942 67.0001 51.9786L58.9374 74.0832C58.7915 74.6241 58.3006 75 57.7398 75Z" fill="#BCC1D3"/>
<g clip-path="url(#clip0_3259:3888)">
<path d="M58.0632 30.8661L56.2704 32.659L58.6608 35.0493L60.4536 33.2565L58.0632 30.8661Z" fill="#9399B4"/>
<path d="M58.6609 30.2687L57.4657 31.464L59.856 33.8543L61.0513 32.6591L58.6609 30.2687Z" fill="#BCC1D3"/>
<path d="M58.0634 34.4544L59.2587 33.2591L61.6494 34.4544L59.2587 35.6498C58.9286 35.9799 58.3935 35.9799 58.0634 35.6498C57.7333 35.3197 57.7333 34.7845 58.0634 34.4544Z" fill="#BCC1D3"/>
<path d="M59.2587 34.4547C58.9286 34.1246 58.9286 33.5895 59.2587 33.2594L60.454 32.064C60.7841 31.7339 61.3193 31.7339 61.6494 32.064C61.9795 32.3941 61.9795 32.9293 61.6494 33.2594V34.4547H60.454C60.1239 34.7848 59.5888 34.7848 59.2587 34.4547Z" fill="#D0D3E0"/>
<path d="M55.6733 32.0643L56.8686 30.8689L58.064 32.0643L56.8686 33.2596C56.5385 33.5897 56.0034 33.5897 55.6733 33.2596C55.3432 32.9295 55.3432 32.3943 55.6733 32.0643Z" fill="#BCC1D3"/>
<path d="M56.8686 32.0646C56.5385 31.7345 56.5385 31.1993 56.8686 30.8693L58.0639 29.6739C58.394 29.3438 58.9292 29.3438 59.2593 29.6739C59.5894 30.004 59.5894 30.5392 59.2593 30.8693L58.0639 32.0646C57.7338 32.3947 57.1986 32.3947 56.8686 32.0646Z" fill="#D0D3E0"/>
<path d="M59.2592 35.6493L60.4543 34.4542L68.2576 42.2575C67.2675 43.2476 65.6623 43.2476 64.6722 42.2575L59.2592 36.8445C58.9292 36.5145 58.9292 35.9794 59.2592 35.6493Z" fill="#9399B4"/>
<path d="M65.8674 41.0623L60.4544 35.6493C60.1244 35.3193 60.1244 34.7842 60.4544 34.4542L61.6495 33.2591C61.9795 32.9291 62.5146 32.9291 62.8446 33.2591L68.2577 38.6721C69.2478 39.6622 69.2478 41.2673 68.2577 42.2574C67.9277 42.5874 66.8575 42.0523 65.8674 41.0623Z" fill="#BCC1D3"/>
<path d="M50.296 33.5916C45.1621 33.5916 41.0002 29.4297 41.0002 24.2958C41.0002 19.1619 45.1621 15 50.296 15C55.4299 15 59.5918 19.1619 59.5918 24.2958C59.5918 29.4297 55.4299 33.5916 50.296 33.5916Z" fill="#9562FF"/>
<path d="M50.2959 16.6901V31.9014C46.0955 31.9014 42.6903 28.4962 42.6903 24.2958C42.6903 20.0953 46.0955 16.6901 50.2959 16.6901Z" fill="#DBD8DD"/>
<path d="M44.3805 24.2958C44.3805 20.0953 47.0289 16.6901 50.296 16.6901C54.4964 16.6901 57.9016 20.0953 57.9016 24.2958C57.9016 28.4962 54.4964 31.9014 50.296 31.9014C47.0289 31.9014 44.3805 28.4962 44.3805 24.2958Z" fill="white"/>
</g>
<defs>
<filter id="filter0_d_3259:3888" x="12.75" y="16.75" width="62.5" height="67.8115" filterUnits="userSpaceOnUse" color-interpolation-filters="sRGB">
<feFlood flood-opacity="0" result="BackgroundImageFix"/>
<feColorMatrix in="SourceAlpha" type="matrix" values="0 0 0 0 0 0 0 0 0 0 0 0 0 0 0 0 0 0 127 0" result="hardAlpha"/>
<feOffset dy="4"/>
<feGaussianBlur stdDeviation="8"/>
<feColorMatrix type="matrix" values="0 0 0 0 0 0 0 0 0 0 0 0 0 0 0 0 0 0 0.05 0"/>
<feBlend mode="normal" in2="BackgroundImageFix" result="effect1_dropShadow_3259:3888"/>
<feBlend mode="normal" in="SourceGraphic" in2="effect1_dropShadow_3259:3888" result="shape"/>
</filter>
<filter id="filter1_d_3259:3888" x="10.3018" y="19.3362" width="34.8794" height="59.0832" filterUnits="userSpaceOnUse" color-interpolation-filters="sRGB">
<feFlood flood-opacity="0" result="BackgroundImageFix"/>
<feColorMatrix in="SourceAlpha" type="matrix" values="0 0 0 0 0 0 0 0 0 0 0 0 0 0 0 0 0 0 127 0" result="hardAlpha"/>
<feOffset dy="4"/>
<feGaussianBlur stdDeviation="8"/>
<feColorMatrix type="matrix" values="0 0 0 0 0 0 0 0 0 0 0 0 0 0 0 0 0 0 0.05 0"/>
<feBlend mode="normal" in2="BackgroundImageFix" result="effect1_dropShadow_3259:3888"/>
<feBlend mode="normal" in="SourceGraphic" in2="effect1_dropShadow_3259:3888" result="shape"/>
</filter>
<clipPath id="clip0_3259:3888">
<rect width="28" height="28" fill="white" transform="matrix(-1 0 0 1 69 15)"/>
</clipPath>
</defs>
</svg>
