<svg xmlns="http://www.w3.org/2000/svg" width="173" height="176" viewBox="0 0 173 176">
    <g fill="none" fill-rule="evenodd">
        <path fill="#FCDDAA" fill-opacity=".2" d="M103.508 171.314c46.605-13.387 76.622-51.362 67.045-84.82-9.578-33.457-55.123-49.728-101.728-36.34C22.22 63.54-7.797 101.513 1.781 134.971c9.577 33.458 55.122 49.728 101.727 36.342z"/>
        <g>
            <path fill="#678189" d="M68.327.037s-6.805-1.143-7.826 9.357c-1.02 10.5-5.704 12.065-5.704 12.065l8.815-3.486s2.868-6.805 3.306-9.333c.437-2.527 2.139-5.638 3.5-5.784l-2.09-2.82z" transform="translate(37.4)"/>
            <path fill="#91B2BD" d="M54.45 23.175s23.186-.557 24.863-11.958C80.772 1.3 72.994-.232 68.327.037c0 0 5.147 6.713-3.816 14.898-8.963 8.186-12.322 6.781-12.322 6.781l2.26 1.459z" transform="translate(37.4)"/>
            <path fill="#FEFEFE" d="M79.22 6.404c-2.744-.471-6.23-.486-9.485-.325-.123 1.074-.441 2.258-1.054 3.525 3.785-.022 7.879.206 10.7 1.057.19-1.652.119-3.062-.16-4.257" opacity=".2" transform="translate(37.4)"/>
            <path fill="#678189" d="M36.9.037s6.805-1.143 7.826 9.357c1.02 10.5 5.704 12.065 5.704 12.065l-8.815-3.486s-2.868-6.805-3.306-9.333c-.437-2.527-2.139-5.638-3.5-5.784L36.9.036z" transform="translate(37.4)"/>
            <path fill="#91B2BD" d="M50.777 23.175s-23.187-.557-24.863-11.958C24.455 1.3 32.233-.232 36.899.037c0 0-5.147 6.713 3.816 14.898 8.963 8.186 12.322 6.781 12.322 6.781l-2.26 1.459z" transform="translate(37.4)"/>
            <path fill="#FEFEFE" d="M26.006 6.404c2.744-.471 6.23-.486 9.486-.325.123 1.074.441 2.258 1.054 3.525-3.785-.022-7.879.206-10.7 1.057-.19-1.652-.119-3.062.16-4.257" opacity=".2" transform="translate(37.4)"/>
            <path fill="#678189" d="M48.51 5.49s4.429.676 2.93 7.359c-1.5 6.682 1.071 8.598 1.071 8.598l-4.73-3.938s-.389-4.779-.146-6.426c.242-1.648-.176-3.912-.986-4.278L48.51 5.49z" transform="translate(37.4)"/>
            <path fill="#405E67" d="M52.378 22.575S38.19 17.53 39.468 10.158c1.11-6.411 6.218-5.78 9.042-4.668 0 0-4.535 3.097-.667 9.963 3.867 6.866 6.226 6.681 6.226 6.681l-1.69.441z" transform="translate(37.4)"/>
            <path fill="#FEFEFE" d="M40.5 7.208c1.789.266 3.941.964 5.917 1.723-.142.688-.187 1.483-.064 2.389-2.33-.781-4.901-1.471-6.815-1.518.218-1.057.548-1.913.962-2.594" opacity=".2" transform="translate(37.4)"/>
            <path fill="#405E67" d="M51.142 10.247s-3.353 1.846-.182 6.765c3.17 4.918 1.672 7.211 1.672 7.211l2.635-4.55s-1.096-3.948-1.776-5.198c-.68-1.25-1.01-3.189-.468-3.721l-1.88-.507z" transform="translate(37.4)"/>
            <path fill="#91B2BD" d="M53.072 25.09s9.894-8.225 6.698-13.762c-2.78-4.815-6.69-2.804-8.627-1.081 0 0 4.55 1.148 3.469 7.794-1.08 6.647-3.026 7.193-3.026 7.193l1.486-.144z" transform="translate(37.4)"/>
            <path fill="#FEFEFE" d="M58.073 9.266c-1.356.74-2.878 1.933-4.239 3.125.317.51.586 1.134.756 1.896 1.639-1.312 3.497-2.623 5.018-3.224-.485-.784-1.002-1.373-1.535-1.797" opacity=".2" transform="translate(37.4)"/>
            <path fill="#96D0A8" d="M27.881 146.645L94.908 146.645 94.908 35.226 27.881 35.226z" transform="translate(37.4)"/>
            <path fill="#5EBE85" d="M27.88 146.644H5.678c-.102 0-.185-.083-.185-.185V35.225H27.88v111.42zM.186 20.44H27.88v11.547H.186c-.103 0-.186-.083-.186-.186V20.626c0-.102.083-.186.186-.186" transform="translate(37.4)"/>
            <path fill="#96D0A8" d="M27.881 31.987L98.569 31.987 98.569 20.44 27.881 20.44z" transform="translate(37.4)"/>
            <path fill="#39AB66" d="M27.881 35.226L94.908 35.226 94.908 31.987 27.881 31.987zM5.491 35.226L27.88 35.226 27.88 31.987 5.491 31.987z" transform="translate(37.4)"/>
            <path fill="#91B2BD" d="M56.325 146.644L64.774 146.644 64.774 20.44 56.325 20.44zM13.94 146.644L17.742 146.644 17.742 20.44 13.94 20.44z" transform="translate(37.4)"/>
            <path fill="#678189" d="M13.94 35.226L17.742 35.226 17.742 31.987 13.94 31.987zM56.325 35.226L64.774 35.226 64.774 31.987 56.325 31.987z" transform="translate(37.4)"/>
        </g>
    </g>
</svg>
