<?xml version="1.0" encoding="UTF-8"?>
<svg xmlns:ev="http://www.w3.org/2001/xml-events"
	 xmlns="http://www.w3.org/2000/svg" xmlns:xlink="http://www.w3.org/1999/xlink" class="MuiSvgIcon-root" focusable="false" viewBox="0 0 20 22" aria-hidden="true" role="presentation" style="color: rgb(192, 194, 195);"><g fill="#000" fill-rule="evenodd"><g><g><path fill="#000" fill-rule="nonzero" d="M11.272 15.593c.244 0 .481.1.938.398.285.187.614.399.978.632.314.2.74.388 1.264.557.513.166 1.034.25 1.547.25.514 0 1.035-.084 1.547-.25.526-.17.951-.357 1.265-.558.367-.234.697-.447.978-.63.457-.298.694-.399.938-.399.623 0 1.206.106 1.731.314.528.209.984.496 1.357.853.356.34.673.755.944 1.232.26.458.47.937.626 1.422.15.468.275.982.372 1.524.097.539.162 1.049.195 1.517.032.457.048.934.048 1.417 0 1.254-.398 2.268-1.182 3.015-.775.739-1.8 1.113-3.047 1.113H10.23c-1.247 0-2.272-.374-3.047-1.113C6.398 26.14 6 25.125 6 23.872c0-.48.016-.958.048-1.417.032-.469.098-.979.194-1.517.097-.542.223-1.055.373-1.524.155-.485.365-.964.626-1.422.27-.476.587-.89.943-1.232.373-.357.83-.644 1.357-.853.525-.208 1.107-.314 1.73-.314zM15.849 4c1.586 0 2.96.57 4.082 1.693 1.123 1.124 1.692 2.5 1.692 4.087 0 1.589-.57 2.964-1.692 4.087-1.122 1.124-2.496 1.694-4.082 1.694-1.586 0-2.96-.57-4.082-1.694-1.123-1.123-1.692-2.498-1.692-4.087 0-1.588.569-2.963 1.691-4.087C12.89 4.57 14.262 4 15.85 4z" transform="translate(-854 -12) translate(848 8)"></path></g></g></g></svg>