<svg width="48" height="48" viewBox="0 0 48 48" fill="none" xmlns="http://www.w3.org/2000/svg">
<mask id="mask0" style="mask-type:alpha" maskUnits="userSpaceOnUse" x="0" y="0" width="48" height="48">
<rect width="48" height="48" fill="#C4C4C4"/>
</mask>
<g mask="url(#mask0)">
<g style="mix-blend-mode:multiply">
<path d="M39.0469 11.8575C38.316 11.859 37.5984 12.058 36.9668 12.4343C36.3352 12.8106 35.812 13.3508 35.4501 14.0003L30.2302 23.3075L25.0116 14.0003C24.7023 13.4498 24.2772 12.9765 23.7671 12.6146C23.218 12.2275 22.5853 11.9824 21.9232 11.9003C21.7553 11.8746 21.586 11.8603 21.4162 11.8575C20.668 11.8542 19.9332 12.0597 19.2907 12.4519C18.6483 12.8441 18.1227 13.4081 17.7705 14.0832C17.4324 14.7119 17.2551 15.4178 17.2551 16.1353C17.2551 16.8528 17.4324 17.5587 17.7705 18.1875C17.7844 18.216 17.8012 18.246 17.818 18.2746L25.9726 32.8246L26.5956 33.936C26.961 34.6155 27.4997 35.1808 28.1545 35.5717C28.6271 35.8524 29.1495 36.0344 29.6913 36.1072C30.2332 36.1801 30.7838 36.1423 31.3113 35.9962C31.8388 35.8501 32.3327 35.5984 32.7645 35.2559C33.1963 34.9133 33.5574 34.4865 33.827 34.0003L42.6479 18.2746C44.2431 15.4289 42.2443 11.8575 39.0469 11.8575Z" fill="#d0d3d9"/>
<path d="M21.3682 29.7265L21.343 29.6808L12.5514 14.0008C12.1897 13.3511 11.6666 12.8107 11.0349 12.4344C10.4033 12.0581 9.68559 11.8592 8.95459 11.8579C5.75726 11.8579 3.7584 15.4293 5.35358 18.2751L14.1368 33.9365C14.49 34.5982 15.0096 35.1515 15.6418 35.5392C16.2741 35.9269 16.9961 36.1349 17.7332 36.1417C18.4704 36.1486 19.1959 35.954 19.835 35.5781C20.474 35.2023 21.0033 34.6587 21.3682 34.0036L21.3961 33.9536C21.7471 33.3057 21.929 32.5763 21.9241 31.8356C21.9192 31.0949 21.7277 30.368 21.3682 29.7251V29.7265Z" fill="#d0d3d9"/>
<g style="mix-blend-mode:multiply">
<path d="M39.0469 11.8575C38.316 11.859 37.5984 12.058 36.9668 12.4343C36.3352 12.8106 35.812 13.3508 35.4501 14.0003L30.2302 23.3075L25.0116 14.0003C24.7023 13.4498 24.2772 12.9765 23.7671 12.6146C23.218 12.2275 22.5853 11.9824 21.9232 11.9003C21.7553 11.8746 21.586 11.8603 21.4162 11.8575C20.668 11.8542 19.9332 12.0597 19.2907 12.4519C18.6483 12.8441 18.1227 13.4081 17.7705 14.0832C17.4324 14.7119 17.2551 15.4178 17.2551 16.1353C17.2551 16.8528 17.4324 17.5587 17.7705 18.1875C17.7844 18.216 17.8012 18.246 17.818 18.2746L25.9726 32.8246L26.5956 33.936C26.961 34.6155 27.4997 35.1808 28.1545 35.5717C28.6271 35.8524 29.1495 36.0344 29.6913 36.1072C30.2332 36.1801 30.7838 36.1423 31.3113 35.9962C31.8388 35.8501 32.3327 35.5984 32.7645 35.2559C33.1963 34.9133 33.5574 34.4865 33.827 34.0003L42.6479 18.2746C44.2431 15.4289 42.2443 11.8575 39.0469 11.8575Z" fill="#d0d3d9"/>
<path d="M21.3682 29.7265L21.343 29.6808L12.5514 14.0008C12.1897 13.3511 11.6666 12.8107 11.0349 12.4344C10.4033 12.0581 9.68559 11.8592 8.95459 11.8579C5.75726 11.8579 3.7584 15.4293 5.35358 18.2751L14.1368 33.9365C14.49 34.5982 15.0096 35.1515 15.6418 35.5392C16.2741 35.9269 16.9961 36.1349 17.7332 36.1417C18.4704 36.1486 19.1959 35.954 19.835 35.5781C20.474 35.2023 21.0033 34.6587 21.3682 34.0036L21.3961 33.9536C21.7471 33.3057 21.929 32.5763 21.9241 31.8356C21.9192 31.0949 21.7277 30.368 21.3682 29.7251V29.7265Z" fill="#F7F8FB"/>
<g style="mix-blend-mode:multiply" opacity="0.9">
<path d="M39.0469 11.8575C38.316 11.859 37.5984 12.058 36.9668 12.4343C36.3352 12.8106 35.812 13.3508 35.4501 14.0003L30.2302 23.3075L25.0116 14.0003C24.7023 13.4498 24.2772 12.9765 23.7671 12.6146C23.218 12.2275 22.5853 11.9824 21.9232 11.9003C21.7553 11.8746 21.586 11.8603 21.4162 11.8575C20.668 11.8542 19.9332 12.0597 19.2907 12.4519C18.6483 12.8441 18.1227 13.4081 17.7705 14.0832C17.4324 14.7119 17.2551 15.4178 17.2551 16.1353C17.2551 16.8528 17.4324 17.5587 17.7705 18.1875C17.7844 18.216 17.8012 18.246 17.818 18.2746L25.9726 32.8246L26.5956 33.936C26.961 34.6155 27.4997 35.1808 28.1545 35.5717C28.6271 35.8524 29.1495 36.0344 29.6913 36.1072C30.2332 36.1801 30.7838 36.1423 31.3113 35.9962C31.8388 35.8501 32.3327 35.5984 32.7645 35.2559C33.1963 34.9133 33.5574 34.4865 33.827 34.0003L42.6479 18.2746C44.2431 15.4289 42.2443 11.8575 39.0469 11.8575Z" fill="#d0d3d9"/>
<path d="M21.3682 29.7265L21.343 29.6808L12.5514 14.0008C12.1897 13.3511 11.6666 12.8107 11.0349 12.4344C10.4033 12.0581 9.68559 11.8592 8.95459 11.8579C5.75726 11.8579 3.7584 15.4293 5.35358 18.2751L14.1368 33.9365C14.49 34.5982 15.0096 35.1515 15.6418 35.5392C16.2741 35.9269 16.9961 36.1349 17.7332 36.1417C18.4704 36.1486 19.1959 35.954 19.835 35.5781C20.474 35.2023 21.0033 34.6587 21.3682 34.0036L21.3961 33.9536C21.7471 33.3057 21.929 32.5763 21.9241 31.8356C21.9192 31.0949 21.7277 30.368 21.3682 29.7251V29.7265Z" fill="#d0d3d9"/>
<g style="mix-blend-mode:multiply">
<path d="M39.0469 11.8575C38.316 11.859 37.5984 12.058 36.9668 12.4343C36.3352 12.8106 35.812 13.3508 35.4501 14.0003L30.2302 23.3075L25.0116 14.0003C24.7023 13.4498 24.2772 12.9765 23.7671 12.6146C23.218 12.2275 22.5853 11.9824 21.9232 11.9003C21.7553 11.8746 21.586 11.8603 21.4162 11.8575C20.668 11.8542 19.9332 12.0597 19.2907 12.4519C18.6483 12.8441 18.1227 13.4081 17.7705 14.0832C17.4324 14.7119 17.2551 15.4178 17.2551 16.1353C17.2551 16.8528 17.4324 17.5587 17.7705 18.1875C17.7844 18.216 17.8012 18.246 17.818 18.2746L25.9726 32.8246L26.5956 33.936C26.961 34.6155 27.4997 35.1808 28.1545 35.5717C28.6271 35.8524 29.1495 36.0344 29.6913 36.1072C30.2332 36.1801 30.7838 36.1423 31.3113 35.9962C31.8388 35.8501 32.3327 35.5984 32.7645 35.2559C33.1963 34.9133 33.5574 34.4865 33.827 34.0003L42.6479 18.2746C44.2431 15.4289 42.2443 11.8575 39.0469 11.8575Z" fill="#d0d3d9"/>
<path d="M21.3682 29.7265L21.343 29.6808L12.5514 14.0008C12.1897 13.3511 11.6666 12.8107 11.0349 12.4344C10.4033 12.0581 9.68559 11.8592 8.95459 11.8579C5.75726 11.8579 3.7584 15.4293 5.35358 18.2751L14.1368 33.9365C14.49 34.5982 15.0096 35.1515 15.6418 35.5392C16.2741 35.9269 16.9961 36.1349 17.7332 36.1417C18.4704 36.1486 19.1959 35.954 19.835 35.5781C20.474 35.2023 21.0033 34.6587 21.3682 34.0036L21.3961 33.9536C21.7471 33.3057 21.929 32.5763 21.9241 31.8356C21.9192 31.0949 21.7277 30.368 21.3682 29.7251V29.7265Z" fill="#d0d3d9"/>
</g>
</g>
</g>
</g>
</g>
</svg>
