<svg width="155" height="25" viewBox="0 0 155 25" fill="none" xmlns="http://www.w3.org/2000/svg">
<path d="M61.5085 8.38549C61.6532 8.01109 61.8599 7.73029 62.1286 7.54309C62.418 7.35589 62.728 7.26229 63.0587 7.26229C63.5341 7.26229 63.9578 7.42869 64.3299 7.76149C64.7226 8.07349 64.919 8.46869 64.919 8.94709C64.919 9.21749 64.8673 9.45669 64.7639 9.66469L59.6483 21.7391C59.483 22.1343 59.2246 22.4359 58.8732 22.6439C58.5425 22.8519 58.1705 22.9559 57.7571 22.9559C57.3644 22.9559 56.9923 22.8519 56.6409 22.6439C56.3102 22.4359 56.0622 22.1343 55.8969 21.7391L52.2074 12.8159L48.642 21.7391C48.4766 22.1343 48.2183 22.4359 47.8669 22.6439C47.5362 22.8519 47.1641 22.9559 46.7507 22.9559C46.358 22.9559 45.986 22.8519 45.6346 22.6439C45.2832 22.4359 45.0249 22.1343 44.8595 21.7391L39.7749 9.66469C39.6715 9.39429 39.6199 9.16549 39.6199 8.97829C39.6199 8.49989 39.8266 8.09429 40.2399 7.76149C40.6533 7.40789 41.1081 7.23109 41.6041 7.23109C41.9555 7.23109 42.2759 7.32469 42.5652 7.51189C42.8546 7.69909 43.0716 7.97989 43.2163 8.35429L46.8748 17.8703L50.6262 8.44789C50.7916 8.05269 51.0293 7.76149 51.3393 7.57429C51.6493 7.36629 51.9904 7.26229 52.3624 7.26229C52.7345 7.26229 53.0755 7.36629 53.3856 7.57429C53.6956 7.76149 53.9333 8.05269 54.0986 8.44789L57.8811 17.9015L61.5085 8.38549Z" fill="#000"/>
<path d="M69.4903 22.9871C68.9322 22.9871 68.4672 22.8311 68.0951 22.5191C67.7438 22.1863 67.5681 21.7183 67.5681 21.1151V9.07189C67.5681 8.46869 67.7438 8.01109 68.0951 7.69909C68.4672 7.38709 68.9322 7.23109 69.4903 7.23109C70.0484 7.23109 70.5134 7.38709 70.8855 7.69909C71.2575 8.01109 71.4436 8.46869 71.4436 9.07189V21.1151C71.4436 21.7183 71.2575 22.1863 70.8855 22.5191C70.5134 22.8311 70.0484 22.9871 69.4903 22.9871ZM69.4903 4.45429C68.7876 4.45429 68.2295 4.26709 67.8161 3.89269C67.4027 3.49749 67.196 2.98789 67.196 2.36389C67.196 1.73989 67.4027 1.24069 67.8161 0.866288C68.2295 0.491888 68.7876 0.304688 69.4903 0.304688C70.1724 0.304688 70.7201 0.491888 71.1335 0.866288C71.5676 1.24069 71.7846 1.73989 71.7846 2.36389C71.7846 2.98789 71.5779 3.49749 71.1645 3.89269C70.7511 4.26709 70.1931 4.45429 69.4903 4.45429Z" fill="#000"/>
<path d="M86.0124 8.35429C86.1778 7.97989 86.3948 7.69909 86.6635 7.51189C86.9529 7.32469 87.2629 7.23109 87.5936 7.23109C88.069 7.23109 88.4927 7.39749 88.8648 7.73029C89.2575 8.04229 89.4538 8.43749 89.4538 8.91589C89.4538 9.16549 89.3918 9.41509 89.2678 9.66469L83.5321 21.7391C83.3461 22.1343 83.0774 22.4359 82.726 22.6439C82.3953 22.8519 82.0233 22.9559 81.6099 22.9559C81.2172 22.9559 80.8348 22.8519 80.4627 22.6439C80.1114 22.4359 79.8427 22.1343 79.6567 21.7391L73.8899 9.66469C73.7866 9.45669 73.7349 9.21749 73.7349 8.94709C73.7349 8.46869 73.9313 8.06309 74.324 7.73029C74.7374 7.39749 75.2024 7.23109 75.7192 7.23109C76.4633 7.23109 77.011 7.59509 77.3624 8.32309L81.7029 17.9639L86.0124 8.35429Z" fill="#000"/>
<path d="M92.4079 22.9871C91.7465 22.9871 91.1988 22.7687 90.7647 22.3319C90.3307 21.8743 90.1136 21.3127 90.1136 20.6471C90.1136 19.9815 90.3307 19.4303 90.7647 18.9935C91.1988 18.5359 91.7465 18.3071 92.4079 18.3071C93.0693 18.3071 93.6171 18.5359 94.0511 18.9935C94.4852 19.4303 94.7022 19.9815 94.7022 20.6471C94.7022 21.3127 94.4852 21.8743 94.0511 22.3319C93.6171 22.7687 93.0693 22.9871 92.4079 22.9871Z" fill="#000"/>
<path d="M104.603 23.0495C103.094 23.0495 101.761 22.7271 100.604 22.0823C99.467 21.4375 98.5886 20.5223 97.9685 19.3367C97.3484 18.1511 97.0384 16.7679 97.0384 15.1871C97.0384 13.6063 97.3588 12.2127 97.9995 11.0063C98.6609 9.77909 99.5807 8.83269 100.759 8.16709C101.937 7.50149 103.291 7.16869 104.82 7.16869C105.626 7.16869 106.433 7.28309 107.239 7.51189C108.065 7.74069 108.789 8.05269 109.409 8.44789C110.07 8.88469 110.401 9.43589 110.401 10.1015C110.401 10.5591 110.287 10.9335 110.06 11.2247C109.853 11.4951 109.574 11.6303 109.223 11.6303C108.996 11.6303 108.758 11.5783 108.51 11.4743C108.262 11.3703 108.014 11.2455 107.766 11.0999C107.311 10.8295 106.877 10.6215 106.464 10.4759C106.05 10.3095 105.575 10.2263 105.037 10.2263C103.756 10.2263 102.764 10.6527 102.061 11.5055C101.379 12.3375 101.038 13.5439 101.038 15.1247C101.038 16.6847 101.379 17.8911 102.061 18.7439C102.764 19.5759 103.756 19.9919 105.037 19.9919C105.554 19.9919 106.009 19.9191 106.402 19.7735C106.815 19.6071 107.27 19.3887 107.766 19.1183C108.076 18.9311 108.344 18.7959 108.572 18.7127C108.799 18.6087 109.027 18.5567 109.254 18.5567C109.585 18.5567 109.864 18.7023 110.091 18.9935C110.318 19.2847 110.432 19.6487 110.432 20.0855C110.432 20.4391 110.349 20.7511 110.184 21.0215C110.039 21.2711 109.791 21.4999 109.44 21.7079C108.799 22.1239 108.055 22.4567 107.208 22.7063C106.36 22.9351 105.492 23.0495 104.603 23.0495Z" fill="#000"/>
<path d="M114.936 22.9871C114.378 22.9871 113.913 22.8311 113.541 22.5191C113.19 22.1863 113.014 21.7183 113.014 21.1151V2.48869C113.014 1.88549 113.19 1.42789 113.541 1.11589C113.913 0.803887 114.378 0.647887 114.936 0.647887C115.494 0.647887 115.959 0.803887 116.331 1.11589C116.703 1.42789 116.89 1.88549 116.89 2.48869V21.1151C116.89 21.7183 116.703 22.1863 116.331 22.5191C115.959 22.8311 115.494 22.9871 114.936 22.9871Z" fill="#000"/>
<path d="M132.854 7.23109C133.453 7.23109 133.928 7.39749 134.28 7.73029C134.631 8.06309 134.807 8.51029 134.807 9.07189V21.1775C134.807 21.7183 134.621 22.1551 134.249 22.4879C133.897 22.8207 133.432 22.9871 132.854 22.9871C132.296 22.9871 131.851 22.8311 131.52 22.5191C131.19 22.2071 131.024 21.7807 131.024 21.2399V20.4599C130.549 21.2919 129.908 21.9367 129.102 22.3943C128.296 22.8311 127.387 23.0495 126.374 23.0495C122.653 23.0495 120.793 20.9487 120.793 16.7471V9.07189C120.793 8.51029 120.969 8.06309 121.32 7.73029C121.672 7.39749 122.137 7.23109 122.715 7.23109C123.315 7.23109 123.79 7.39749 124.142 7.73029C124.493 8.06309 124.669 8.51029 124.669 9.07189V16.7783C124.669 17.8599 124.886 18.6607 125.32 19.1807C125.754 19.7007 126.436 19.9607 127.366 19.9607C128.441 19.9607 129.298 19.6071 129.939 18.8999C130.601 18.1719 130.931 17.2151 130.931 16.0295V9.07189C130.931 8.51029 131.107 8.06309 131.458 7.73029C131.81 7.39749 132.275 7.23109 132.854 7.23109Z" fill="#000"/>
<path d="M147.553 7.16869C148.875 7.16869 150.043 7.49109 151.056 8.13589C152.069 8.78069 152.854 9.69589 153.412 10.8815C153.991 12.0671 154.28 13.4503 154.28 15.0311C154.28 16.6119 153.991 18.0159 153.412 19.2431C152.854 20.4495 152.058 21.3855 151.025 22.0511C150.012 22.7167 148.855 23.0495 147.553 23.0495C146.457 23.0495 145.475 22.8103 144.607 22.3319C143.76 21.8535 143.109 21.1879 142.654 20.3351V21.1151C142.654 21.6767 142.478 22.1239 142.127 22.4567C141.775 22.7895 141.31 22.9559 140.732 22.9559C140.153 22.9559 139.688 22.7895 139.337 22.4567C139.006 22.1239 138.84 21.6767 138.84 21.1151V2.45749C138.84 1.91669 139.016 1.47989 139.368 1.14709C139.74 0.814287 140.215 0.647887 140.794 0.647887C141.372 0.647887 141.837 0.803887 142.189 1.11589C142.54 1.42789 142.716 1.85429 142.716 2.39509V9.75829C143.171 8.92629 143.822 8.29189 144.669 7.85509C145.517 7.39749 146.478 7.16869 147.553 7.16869ZM146.529 20.0231C147.749 20.0231 148.7 19.5863 149.382 18.7127C150.064 17.8391 150.405 16.6119 150.405 15.0311C150.405 13.4711 150.064 12.2751 149.382 11.4431C148.72 10.6111 147.77 10.1951 146.529 10.1951C145.289 10.1951 144.328 10.6215 143.646 11.4743C142.985 12.3063 142.654 13.5127 142.654 15.0935C142.654 16.6743 142.985 17.8911 143.646 18.7439C144.328 19.5967 145.289 20.0231 146.529 20.0231Z" fill="#000"/>
<g clip-path="url(#clip0)">
<path d="M30.9919 3.28568C30.3999 3.28694 29.8187 3.44614 29.3072 3.74716C28.7957 4.04819 28.3719 4.48036 28.0788 4.99996L23.851 12.4457L19.6244 4.99996C19.3739 4.55957 19.0296 4.18092 18.6164 3.89139C18.1717 3.58168 17.6593 3.3856 17.1231 3.31996C16.9871 3.29937 16.8499 3.28791 16.7124 3.28568C16.1065 3.28304 15.5113 3.44746 14.991 3.76122C14.4707 4.07498 14.045 4.52619 13.7597 5.06625C13.4859 5.56922 13.3423 6.13394 13.3423 6.70796C13.3423 7.28198 13.4859 7.8467 13.7597 8.34967C13.771 8.37253 13.7846 8.39653 13.7981 8.41939L20.4028 20.0594L20.9073 20.9485C21.2033 21.4921 21.6396 21.9443 22.1699 22.2571C22.5527 22.4816 22.9758 22.6272 23.4146 22.6855C23.8535 22.7438 24.2994 22.7136 24.7266 22.5967C25.1539 22.4798 25.5539 22.2785 25.9037 22.0044C26.2534 21.7303 26.5459 21.3889 26.7642 21L33.9085 8.41939C35.2004 6.14282 33.5815 3.28568 30.9919 3.28568Z" fill="#FF9432"/>
<path d="M16.6734 17.581L16.653 17.5444L9.53251 5.00042C9.23958 4.48066 8.81585 4.04836 8.30427 3.74731C7.79268 3.44626 7.21142 3.28716 6.61937 3.28613C4.02978 3.28613 2.41086 6.14328 3.70283 8.41985L10.8166 20.949C11.1026 21.4784 11.5234 21.921 12.0355 22.2312C12.5476 22.5413 13.1323 22.7077 13.7294 22.7132C14.3264 22.7187 14.914 22.563 15.4316 22.2623C15.9492 21.9616 16.3778 21.5268 16.6734 21.0027L16.696 20.9627C16.9803 20.4444 17.1276 19.8608 17.1236 19.2683C17.1197 18.6757 16.9646 18.0942 16.6734 17.5798V17.581Z" fill="#FF9432"/>
</g>
<defs>
<clipPath id="clip0">
<rect width="35.6365" height="24" fill="#000" transform="translate(0.987549 1)"/>
</clipPath>
</defs>
</svg>
